<svg width="137" height="138" viewBox="0 0 137 138" fill="none" xmlns="http://www.w3.org/2000/svg">
<path d="M55.4119 63.8957L8.85676 110.451C3.71441 115.593 3.71441 123.931 8.85676 129.073C13.999 134.216 22.3364 134.216 27.4788 129.073L74.0337 82.5182" stroke="#2CD1EA" stroke-width="9.87583" stroke-linecap="round" stroke-linejoin="round"/>
<path d="M102.436 84.9168L127.971 110.451C133.113 115.593 133.113 123.931 127.971 129.073C122.829 134.216 114.491 134.216 109.349 129.073L68.4727 88.1976" stroke="#2CD1EA" stroke-width="9.87583" stroke-linecap="round" stroke-linejoin="round"/>
<path d="M33.5698 32.9331L19.6032 37.5886L5.63672 14.3111L14.9477 5L38.2253 18.9665L33.5698 32.9331ZM33.5698 32.9331L52.2037 51.567" stroke="#2CD1EA" stroke-width="9.87583" stroke-linecap="round" stroke-linejoin="round"/>
<path d="M55.4129 63.8958C49.8574 49.7206 50.9436 31.1213 62.3964 19.6685C73.8491 8.21572 94.9847 5.70199 106.624 12.6853L86.6041 32.7047L84.7435 53.1874L105.226 51.3267L125.246 31.3073C132.229 42.946 129.715 64.0821 118.263 75.5348C106.809 86.9874 88.2105 88.0738 74.0354 82.5176" stroke="#2CD1EA" stroke-width="9.87583" stroke-linecap="round" stroke-linejoin="round"/>
</svg>
