<svg id="Grupo_140" data-name="Grupo 140" xmlns="http://www.w3.org/2000/svg" xmlns:xlink="http://www.w3.org/1999/xlink" width="103.409" height="137.862" viewBox="0 0 103.409 137.862">
  <defs>
    <clipPath id="clip-path">
      <rect id="Retângulo_8" data-name="Retângulo 8" width="103.409" height="137.862" fill="none"/>
    </clipPath>
  </defs>
  <g id="Grupo_139" data-name="Grupo 139" clip-path="url(#clip-path)">
    <path id="Caminho_140" data-name="Caminho 140" d="M102.109,74.7H70.053a1.3,1.3,0,0,1-1.3-1.3V61.466a1.3,1.3,0,0,1,1.3-1.3h32.056a1.3,1.3,0,0,1,1.3,1.3V73.4a1.3,1.3,0,0,1-1.3,1.3" fill="#2cd1ea"/>
    <path id="Caminho_141" data-name="Caminho 141" d="M102.109,123.329H35.4a1.3,1.3,0,0,1-1.3-1.3V110.1a1.3,1.3,0,0,1,1.3-1.3h66.712a1.3,1.3,0,0,1,1.3,1.3v11.933a1.3,1.3,0,0,1-1.3,1.3" fill="#2cd1ea"/>
    <path id="Caminho_142" data-name="Caminho 142" d="M102.109,29.067H35.4a1.3,1.3,0,0,1-1.3-1.3V15.834a1.3,1.3,0,0,1,1.3-1.3h66.712a1.3,1.3,0,0,1,1.3,1.3V27.767a1.3,1.3,0,0,1-1.3,1.3" fill="#2cd1ea"/>
    <path id="Caminho_143" data-name="Caminho 143" d="M43.6,21.8A21.8,21.8,0,1,1,21.8,0,21.8,21.8,0,0,1,43.6,21.8" fill="#6b6b6b"/>
    <path id="Caminho_144" data-name="Caminho 144" d="M72.106,67.432a21.8,21.8,0,1,1-21.8-21.8,21.8,21.8,0,0,1,21.8,21.8" fill="#6b6b6b"/>
    <path id="Caminho_145" data-name="Caminho 145" d="M43.6,116.062a21.8,21.8,0,1,1-21.8-21.8,21.8,21.8,0,0,1,21.8,21.8" fill="#6b6b6b"/>
    <path id="Caminho_146" data-name="Caminho 146" d="M50.307,69.932a2.5,2.5,0,0,1-2.5-2.5v-13.8a2.5,2.5,0,0,1,5,0v13.8a2.5,2.5,0,0,1-2.5,2.5" fill="#fff"/>
    <path id="Caminho_147" data-name="Caminho 147" d="M64.111,69.932h-13.8a2.5,2.5,0,0,1,0-5h13.8a2.5,2.5,0,0,1,0,5" fill="#fff"/>
  </g>
</svg>