<svg width="498" height="414" viewBox="0 0 498 414" fill="none" xmlns="http://www.w3.org/2000/svg">
<g clip-path="url(#clip0_243_998)">
<path d="M154.641 269.428H145.641L144.682 280.613H153.328L154.641 269.428Z" fill="white"/>
<path d="M144.681 280.613L133.248 410.748C133.221 411.1 133.266 411.454 133.381 411.788C133.495 412.122 133.677 412.429 133.915 412.691C134.153 412.952 134.442 413.161 134.764 413.307C135.085 413.452 135.434 413.53 135.787 413.536C136.416 413.536 137.022 413.304 137.491 412.885C137.959 412.465 138.256 411.888 138.325 411.263L153.345 280.613H144.681Z" fill="#1B929E"/>
<path d="M233.237 269.428H224.253L225.553 280.613H234.199L233.237 269.428Z" fill="#1B929E"/>
<path d="M225.55 280.613L240.569 411.263C240.603 411.596 240.702 411.92 240.861 412.215C241.019 412.51 241.235 412.771 241.495 412.983C241.754 413.195 242.053 413.353 242.374 413.45C242.695 413.546 243.032 413.578 243.365 413.545C243.699 413.511 244.022 413.412 244.317 413.253C244.612 413.094 244.873 412.878 245.085 412.619C245.297 412.359 245.456 412.06 245.552 411.739C245.648 411.418 245.681 411.081 245.647 410.748L234.213 280.613H225.55Z" fill="#1B929E"/>
<path d="M236.557 340.177H143.811V344.633H236.557V340.177Z" fill="#1B929E"/>
<path d="M242.504 272.659H136.39C135.988 272.661 135.591 272.583 135.22 272.43C134.848 272.277 134.511 272.052 134.227 271.768C133.943 271.485 133.718 271.147 133.565 270.776C133.412 270.405 133.335 270.007 133.336 269.606V269.34C133.335 268.939 133.412 268.541 133.565 268.17C133.718 267.798 133.943 267.461 134.227 267.177C134.511 266.893 134.848 266.668 135.22 266.516C135.591 266.363 135.988 266.285 136.39 266.286H242.59C242.991 266.284 243.389 266.362 243.761 266.515C244.132 266.668 244.469 266.893 244.753 267.177C245.037 267.461 245.262 267.798 245.415 268.169C245.568 268.541 245.646 268.939 245.644 269.34V269.606C245.627 270.425 245.287 271.205 244.7 271.776C244.112 272.348 243.323 272.665 242.504 272.659Z" fill="#0F464C"/>
<path d="M406.07 218.617L327.9 213.806C326.526 213.729 325.184 213.361 323.963 212.726C322.742 212.09 321.67 211.202 320.819 210.121C319.968 209.039 319.356 207.789 319.025 206.453C318.695 205.117 318.652 203.726 318.9 202.372L348.673 35.487C349.18 32.7026 350.577 30.1582 352.655 28.237C354.733 26.3158 357.379 25.1219 360.195 24.835L438.702 17.235C440.194 17.0934 441.698 17.2967 443.098 17.829C444.499 18.3614 445.758 19.2087 446.779 20.3053C447.8 21.4019 448.555 22.7186 448.986 24.1536C449.417 25.5886 449.512 27.1034 449.264 28.581L419.564 207.787C419.063 210.953 417.398 213.817 414.896 215.821C412.394 217.824 409.235 218.821 406.036 218.617H406.07Z" fill="#0F464C"/>
<path d="M401.791 218.084L323.621 213.273C322.247 213.196 320.905 212.828 319.684 212.193C318.463 211.557 317.392 210.669 316.54 209.588C315.689 208.507 315.078 207.256 314.747 205.921C314.416 204.585 314.373 203.194 314.621 201.84L344.394 34.955C344.9 32.1705 346.298 29.6259 348.376 27.7045C350.454 25.7832 353.1 24.5891 355.916 24.302L434.423 16.702C435.914 16.5601 437.419 16.7631 438.819 17.2952C440.22 17.8273 441.479 18.6743 442.5 19.7708C443.521 20.8673 444.276 22.1839 444.707 23.6187C445.138 25.0536 445.234 26.5684 444.986 28.046L415.286 207.253C414.769 210.411 413.1 213.266 410.602 215.266C408.104 217.266 404.953 218.269 401.758 218.082L401.791 218.084Z" fill="#2CD1EA"/>
<mask id="mask0_243_998" style="mask-type:luminance" maskUnits="userSpaceOnUse" x="314" y="16" width="132" height="203">
<path d="M401.791 218.084L323.621 213.273C322.247 213.196 320.905 212.828 319.684 212.193C318.463 211.557 317.392 210.669 316.54 209.588C315.689 208.507 315.078 207.256 314.747 205.921C314.416 204.585 314.373 203.194 314.621 201.84L344.394 34.955C344.9 32.1705 346.298 29.6259 348.376 27.7045C350.454 25.7832 353.1 24.5891 355.916 24.302L434.423 16.702C435.914 16.5601 437.419 16.7631 438.819 17.2952C440.22 17.8273 441.479 18.6743 442.5 19.7708C443.521 20.8673 444.276 22.1839 444.707 23.6187C445.138 25.0536 445.234 26.5684 444.986 28.046L415.286 207.253C414.769 210.411 413.1 213.266 410.602 215.266C408.104 217.266 404.953 218.269 401.758 218.082L401.791 218.084Z" fill="white"/>
</mask>
<g mask="url(#mask0_243_998)">
<path d="M480.564 123.759L360.212 125.859C359.477 125.871 358.749 125.72 358.079 125.417C357.41 125.114 356.816 124.666 356.34 124.105C355.865 123.545 355.519 122.886 355.329 122.176C355.139 121.466 355.108 120.723 355.24 120L364.064 69.792C364.317 68.4065 365.019 67.1428 366.062 66.1962C367.105 65.2497 368.43 64.6729 369.834 64.555L488.606 56.601C489.555 56.5404 490.505 56.6947 491.386 57.0523C492.267 57.4099 493.056 57.9616 493.694 58.6664C494.332 59.3712 494.803 60.2108 495.072 61.1229C495.341 62.0349 495.4 62.9958 495.246 63.934L486.512 118.509C486.349 119.962 485.652 121.303 484.556 122.271C483.461 123.238 482.044 123.764 480.582 123.746L480.564 123.759Z" fill="#0F464C"/>
</g>
<mask id="mask1_243_998" style="mask-type:luminance" maskUnits="userSpaceOnUse" x="314" y="16" width="132" height="203">
<path d="M401.791 218.084L323.621 213.273C322.247 213.196 320.905 212.828 319.684 212.193C318.463 211.557 317.392 210.669 316.54 209.588C315.689 208.507 315.078 207.256 314.747 205.921C314.416 204.585 314.373 203.194 314.621 201.84L344.394 34.955C344.9 32.1705 346.298 29.6259 348.376 27.7045C350.454 25.7832 353.1 24.5891 355.916 24.302L434.423 16.702C435.914 16.5601 437.419 16.7631 438.819 17.2952C440.22 17.8273 441.479 18.6743 442.5 19.7708C443.521 20.8673 444.276 22.1839 444.707 23.6187C445.138 25.0536 445.234 26.5684 444.986 28.046L415.286 207.253C414.769 210.411 413.1 213.266 410.602 215.266C408.104 217.266 404.953 218.269 401.758 218.082L401.791 218.084Z" fill="white"/>
</mask>
<g mask="url(#mask1_243_998)">
<path d="M467.302 204.716L346.95 199.479C346.241 199.44 345.549 199.253 344.917 198.93C344.285 198.606 343.729 198.154 343.284 197.601C342.838 197.049 342.514 196.409 342.332 195.723C342.15 195.037 342.114 194.321 342.227 193.62L351.317 142.187C351.58 140.729 352.343 139.409 353.475 138.453C354.606 137.497 356.036 136.966 357.517 136.95L476.468 135.991C477.386 135.988 478.294 136.185 479.129 136.567C479.964 136.95 480.706 137.509 481.303 138.206C481.901 138.903 482.34 139.722 482.59 140.605C482.84 141.489 482.895 142.416 482.752 143.323L473.84 199.479C473.572 200.999 472.759 202.37 471.553 203.334C470.347 204.298 468.831 204.789 467.289 204.716H467.302Z" fill="#0F464C"/>
</g>
<path d="M342.581 46.1731C342.275 46.172 341.981 46.0526 341.76 45.84C341.54 45.6273 341.41 45.3377 341.398 45.0316C341.386 44.7256 341.493 44.4268 341.696 44.1975C341.899 43.9682 342.183 43.8262 342.488 43.8011L443.453 35.7761C443.609 35.7613 443.766 35.778 443.916 35.8252C444.065 35.8723 444.204 35.949 444.323 36.0506C444.442 36.1523 444.54 36.2768 444.61 36.4169C444.68 36.557 444.722 36.7097 444.732 36.8661C444.757 37.1804 444.656 37.4916 444.451 37.7315C444.247 37.9713 443.955 38.1201 443.641 38.1451L342.676 46.1681C342.644 46.1681 342.611 46.1731 342.581 46.1731Z" fill="black"/>
<path d="M393.926 32.86L385.28 33.641C384.499 33.73 384.055 33.108 384.144 32.241C384.214 31.8285 384.41 31.4478 384.706 31.152C385.002 30.8561 385.382 30.6597 385.795 30.59L394.441 29.809C394.62 29.7849 394.803 29.8072 394.971 29.874C395.139 29.9407 395.288 30.0496 395.402 30.1902C395.516 30.3308 395.592 30.4983 395.622 30.6767C395.653 30.8551 395.637 31.0384 395.577 31.209C395.493 31.6153 395.292 31.9881 394.998 32.2814C394.705 32.5748 394.332 32.7759 393.926 32.86Z" fill="#0F464C"/>
<path d="M399.696 32.3271C399.517 32.3509 399.334 32.3284 399.166 32.2615C398.998 32.1947 398.85 32.0858 398.736 31.9453C398.622 31.8048 398.546 31.6374 398.515 31.4591C398.484 31.2809 398.5 31.0977 398.56 30.9271C398.63 30.5146 398.826 30.1341 399.122 29.8382C399.418 29.5424 399.798 29.3459 400.211 29.2761C400.39 29.2522 400.573 29.2748 400.741 29.3416C400.909 29.4085 401.057 29.5173 401.171 29.6578C401.285 29.7983 401.361 29.9657 401.392 30.144C401.423 30.3223 401.407 30.5055 401.347 30.6761C401.303 31.0991 401.116 31.4942 400.815 31.7949C400.514 32.0956 400.119 32.2836 399.696 32.3271Z" fill="#0F464C"/>
<path d="M474.102 118.433L353.749 120.528C353.014 120.54 352.286 120.389 351.616 120.086C350.947 119.782 350.353 119.335 349.878 118.774C349.402 118.214 349.057 117.555 348.867 116.845C348.677 116.135 348.646 115.392 348.778 114.669L357.602 64.4611C357.855 63.0756 358.557 61.812 359.6 60.8654C360.643 59.9188 361.968 59.342 363.372 59.2241L482.144 51.2681C483.093 51.2078 484.043 51.3622 484.924 51.7198C485.805 52.0775 486.593 52.6292 487.232 53.334C487.87 54.0387 488.341 54.8783 488.609 55.7902C488.878 56.7021 488.938 57.663 488.784 58.6011L480.049 113.176C479.873 114.623 479.172 115.956 478.079 116.921C476.987 117.886 475.578 118.417 474.12 118.413L474.102 118.433Z" fill="#0F464C"/>
<path d="M384.942 80.4401C384.342 84.0261 381.178 87.0801 377.948 87.2571C374.718 87.4341 372.621 84.6301 373.225 81.0571C373.825 77.4711 376.989 74.4171 380.22 74.2401C383.451 74.0631 385.546 76.8681 384.942 80.4401Z" fill="#2CD1EA"/>
<path d="M382.67 103.413L368.343 103.857C367.886 103.876 367.43 103.793 367.01 103.613C366.589 103.432 366.215 103.16 365.913 102.816C365.612 102.472 365.391 102.065 365.268 101.625C365.145 101.184 365.122 100.722 365.201 100.271L365.467 98.6901C366.603 92.2281 372.195 86.7241 378.036 86.5471C383.895 86.2811 387.819 91.4291 386.683 97.9801L386.328 100.253C386.154 101.112 385.698 101.888 385.032 102.458C384.366 103.027 383.528 103.357 382.653 103.395L382.67 103.413Z" fill="#2CD1EA"/>
<path d="M461.177 94.5841L404.152 97.2111C403.871 97.2319 403.589 97.1873 403.329 97.0807C403.068 96.9742 402.836 96.8086 402.65 96.597C402.464 96.3854 402.33 96.1336 402.258 95.8613C402.186 95.5891 402.178 95.3039 402.235 95.0281L402.835 91.1931C402.949 90.5638 403.269 89.9903 403.745 89.5627C404.221 89.1351 404.825 88.8778 405.463 88.8311L462.577 85.8671C462.859 85.8395 463.144 85.8796 463.408 85.9839C463.672 86.0882 463.908 86.2539 464.095 86.4672C464.282 86.6805 464.416 86.9353 464.486 87.2105C464.555 87.4857 464.558 87.7735 464.494 88.0501L463.802 92.2401C463.716 92.882 463.405 93.4723 462.923 93.9051C462.441 94.3379 461.821 94.5847 461.174 94.6011L461.177 94.5841Z" fill="white"/>
<path d="M460.751 199.39L340.487 194.068C339.778 194.029 339.086 193.842 338.454 193.519C337.823 193.195 337.266 192.743 336.821 192.19C336.376 191.638 336.052 190.998 335.87 190.312C335.688 189.626 335.652 188.91 335.765 188.209L344.855 136.776C345.118 135.318 345.881 133.998 347.012 133.042C348.144 132.086 349.574 131.555 351.055 131.539L470.005 130.58C470.923 130.577 471.831 130.774 472.666 131.156C473.501 131.539 474.243 132.098 474.841 132.795C475.438 133.493 475.877 134.311 476.128 135.195C476.378 136.079 476.433 137.006 476.29 137.913L467.374 194.068C467.108 195.614 466.287 197.009 465.063 197.99C463.84 198.971 462.3 199.47 460.734 199.394L460.751 199.39Z" fill="#0F464C"/>
<path d="M372.107 154.775C371.507 158.45 368.343 161.414 365.041 161.326C361.809 161.237 359.714 158.272 360.318 154.597C360.922 150.922 364.082 148.046 367.313 148.046C370.633 148.135 372.813 151.1 372.124 154.775H372.107Z" fill="#2CD1EA"/>
<path d="M369.564 178.352L355.236 177.908C354.799 177.886 354.371 177.774 353.98 177.577C353.588 177.381 353.242 177.105 352.963 176.768C352.685 176.43 352.479 176.038 352.36 175.617C352.241 175.196 352.211 174.755 352.272 174.321L352.627 172.493C353.763 165.853 359.355 160.616 365.197 160.704C371.055 160.793 374.979 166.297 373.754 173.025L373.399 175.209C373.244 176.106 372.771 176.917 372.066 177.495C371.362 178.072 370.474 178.376 369.564 178.352Z" fill="#2CD1EA"/>
<path d="M448.164 170.968L391.139 170.187C390.869 170.183 390.603 170.12 390.359 170.004C390.115 169.888 389.898 169.721 389.725 169.513C389.551 169.306 389.425 169.064 389.353 168.803C389.281 168.543 389.267 168.27 389.31 168.003L390.002 163.991C390.11 163.331 390.45 162.73 390.961 162.297C391.471 161.865 392.12 161.628 392.789 161.63L449.903 162.073C450.173 162.078 450.439 162.14 450.683 162.256C450.927 162.373 451.143 162.54 451.316 162.747C451.49 162.954 451.617 163.196 451.688 163.457C451.76 163.717 451.775 163.99 451.732 164.257L451.04 168.625C450.896 169.285 450.534 169.877 450.012 170.306C449.49 170.734 448.838 170.974 448.163 170.986L448.164 170.968Z" fill="white"/>
<path d="M125.738 111.722L21.2919 129.191C20.3959 129.334 19.4804 129.298 18.5984 129.085C17.7165 128.872 16.8856 128.486 16.154 127.949C15.4224 127.412 14.8047 126.736 14.3365 125.958C13.8684 125.181 13.5592 124.319 13.4269 123.421L0.0588194 27.8681C-0.0675634 26.9939 0.00866491 26.1023 0.281537 25.2622C0.554409 24.4221 1.01664 23.656 1.63261 23.0229C2.24858 22.3899 3.00179 21.9068 3.83409 21.611C4.66638 21.3152 5.55551 21.2147 6.43284 21.3171L109.653 33.5491C111.097 33.7218 112.45 34.3468 113.518 35.3345C114.586 36.3223 115.315 37.6224 115.6 39.0491L128.88 107.259C129.054 108.267 128.821 109.304 128.232 110.141C127.643 110.978 126.746 111.546 125.738 111.722Z" fill="#0F464C"/>
<path d="M130.106 110.497L25.6638 127.968C24.7678 128.111 23.8523 128.075 22.9704 127.862C22.0885 127.649 21.2576 127.263 20.526 126.726C19.7944 126.189 19.1766 125.513 18.7085 124.735C18.2403 123.958 17.9311 123.096 17.7988 122.198L4.34179 26.6481C4.21541 25.7739 4.29158 24.8823 4.56445 24.0423C4.83732 23.2022 5.29962 22.436 5.91558 21.803C6.53155 21.1699 7.2847 20.6868 8.117 20.391C8.9493 20.0953 9.83848 19.9947 10.7158 20.0971L113.936 32.3291C115.38 32.5019 116.733 33.1268 117.801 34.1146C118.869 35.1024 119.598 36.4024 119.883 37.8291L133.163 106.039C133.266 106.533 133.269 107.043 133.17 107.538C133.071 108.033 132.873 108.503 132.588 108.919C132.303 109.336 131.936 109.69 131.51 109.961C131.084 110.232 130.608 110.413 130.11 110.495L130.106 110.497Z" fill="#2CD1EA"/>
<path d="M63.3869 105.685L37.6259 108.65C36.714 108.768 35.7922 108.523 35.0586 107.969C34.3251 107.415 33.8383 106.595 33.7029 105.685L24.2749 42.6241C24.2085 42.2118 24.2378 41.7898 24.3605 41.3906C24.4833 40.9915 24.6962 40.6259 24.9828 40.3222C25.2695 40.0184 25.622 39.7847 26.0134 39.639C26.4048 39.4934 26.8245 39.4397 27.2399 39.4821L53.0009 41.3991C53.7989 41.4445 54.5566 41.7646 55.1455 42.305C55.7344 42.8455 56.1183 43.5729 56.2319 44.3641L65.8319 102.525C65.9047 103.263 65.691 104.001 65.235 104.586C64.779 105.171 64.1155 105.559 63.3819 105.668L63.3869 105.685Z" fill="#0F464C"/>
<path d="M65.4818 104.549L39.7208 107.514C38.8088 107.632 37.8871 107.387 37.1534 106.833C36.4197 106.278 35.9327 105.458 35.7968 104.549L26.3698 41.488C26.3034 41.0757 26.3328 40.6536 26.4555 40.2544C26.5783 39.8552 26.7911 39.4896 27.0777 39.1858C27.3643 38.882 27.7169 38.6482 28.1083 38.5024C28.4997 38.3566 28.9193 38.3028 29.3348 38.345L55.0948 40.263C55.8929 40.3084 56.6508 40.6285 57.2398 41.1689C57.8289 41.7093 58.2129 42.4368 58.3268 43.228L67.9268 101.389C68.0171 102.13 67.81 102.877 67.351 103.466C66.8921 104.055 66.2185 104.438 65.4778 104.531L65.4818 104.549Z" fill="white"/>
<path d="M44.0717 44.7C44.0447 44.7 44.0187 44.7 43.9917 44.7L39.9797 44.434C39.824 44.4237 39.6719 44.3828 39.532 44.3137C39.3921 44.2446 39.2672 44.1487 39.1644 44.0313C39.0616 43.9139 38.9829 43.7774 38.9329 43.6297C38.8828 43.4819 38.8624 43.3257 38.8727 43.17C38.883 43.0143 38.9239 42.8622 38.993 42.7223C39.0621 42.5824 39.1581 42.4575 39.2754 42.3547C39.3928 42.2519 39.5293 42.1733 39.677 42.1232C39.8248 42.0732 39.981 42.0527 40.1367 42.063L44.1487 42.329C44.4581 42.3468 44.7483 42.4849 44.9573 42.7136C45.1664 42.9424 45.2778 43.2438 45.2677 43.5536C45.2577 43.8633 45.127 44.1569 44.9035 44.3716C44.6801 44.5863 44.3816 44.7053 44.0717 44.703V44.7Z" fill="#22272E"/>
<path d="M46.4319 44.8781H46.1639C45.8488 44.8781 45.5466 44.7529 45.3238 44.5301C45.101 44.3073 44.9758 44.0052 44.9758 43.6901C44.9758 43.375 45.101 43.0728 45.3238 42.85C45.5466 42.6272 45.8488 42.5021 46.1639 42.5021H46.4299C46.7449 42.5021 47.0471 42.6272 47.2699 42.85C47.4927 43.0728 47.6179 43.375 47.6179 43.6901C47.6179 44.0052 47.4927 44.3073 47.2699 44.5301C47.0471 44.7529 46.7449 44.8781 46.4299 44.8781H46.4319Z" fill="#22272E"/>
<path d="M59.0909 49.3161H59.0278L27.0719 47.6681C26.7573 47.6515 26.4623 47.5108 26.2515 47.2768C26.0408 47.0427 25.9315 46.7346 25.9479 46.4201C25.9538 46.2635 25.9911 46.1097 26.0574 45.9678C26.1238 45.8259 26.2179 45.6987 26.3342 45.5937C26.4506 45.4887 26.5868 45.4082 26.7348 45.3567C26.8827 45.3052 27.0395 45.284 27.1959 45.2941L59.1519 46.9451C59.4639 46.9573 59.7586 47.0919 59.9722 47.3198C60.1857 47.5477 60.3009 47.8505 60.2929 48.1627C60.2849 48.4749 60.1543 48.7713 59.9293 48.9879C59.7044 49.2046 59.4032 49.3239 59.0909 49.3201V49.3161Z" fill="#22272E"/>
<path d="M35.0859 100.855C34.7801 100.855 34.486 100.738 34.2648 100.527C34.0435 100.316 33.9122 100.027 33.898 99.722C33.8838 99.4166 33.988 99.1175 34.1887 98.8869C34.3895 98.6563 34.6714 98.512 34.9758 98.484L66.9338 95.501C67.0892 95.4865 67.2459 95.5027 67.395 95.5488C67.544 95.5948 67.6826 95.6698 67.8027 95.7693C67.9228 95.8689 68.0222 95.9912 68.095 96.1292C68.1679 96.2671 68.2128 96.4181 68.2274 96.5735C68.2419 96.7288 68.2256 96.8855 68.1796 97.0346C68.1335 97.1837 68.0586 97.3223 67.959 97.4424C67.8594 97.5625 67.7372 97.6618 67.5992 97.7346C67.4612 97.8075 67.3102 97.8525 67.1548 97.867L35.1979 100.85C35.1607 100.854 35.1233 100.855 35.0859 100.855Z" fill="#22272E"/>
<path d="M100.137 51.11C100.581 53.56 99.4449 55.478 97.5979 55.389C95.6809 55.3 93.764 53.205 93.32 50.755C92.876 48.217 94.0119 46.299 95.9469 46.477C97.7759 46.565 99.6219 48.66 100.137 51.11Z" fill="#0F464C"/>
<path d="M103.546 66.7341H95.6809C95.0099 66.7413 94.3587 66.5066 93.8467 66.0728C93.3346 65.639 92.9961 65.0352 92.893 64.3721L92.6269 62.9721C91.8459 58.3381 94.027 54.7721 97.438 54.8581C100.847 54.9471 104.167 58.6221 104.948 63.0581L105.214 64.6381C105.283 64.8886 105.292 65.1519 105.241 65.4066C105.19 65.6614 105.079 65.9005 104.919 66.1048C104.758 66.3091 104.552 66.4728 104.316 66.5828C104.081 66.6928 103.823 66.746 103.563 66.7381L103.546 66.7341Z" fill="#0F464C"/>
<path d="M94.3848 80.528C94.8288 83.156 93.6038 85.34 91.5968 85.499C89.5908 85.588 87.4968 83.582 87.0518 80.866C86.6068 78.15 87.8328 75.983 89.9288 75.895C91.9348 75.895 93.8518 77.901 94.3848 80.528Z" fill="#0F464C"/>
<path d="M97.8819 97.217L89.5909 98.087C88.8654 98.1656 88.1371 97.9654 87.5537 97.527C86.9703 97.0886 86.5754 96.4448 86.4489 95.7261L86.1829 94.326C85.3129 89.444 87.6739 85.236 91.4199 84.988C95.0059 84.721 98.5749 88.3961 99.4629 93.1011L99.7289 94.681C99.7941 94.9696 99.7973 95.2687 99.7382 95.5586C99.6792 95.8484 99.5592 96.1225 99.3863 96.3625C99.2134 96.6025 98.9915 96.8031 98.7352 96.9509C98.479 97.0988 98.1943 97.1905 97.8999 97.22L97.8819 97.217Z" fill="#0F464C"/>
<path d="M115.689 79.481C116.133 81.931 115.157 83.937 113.417 84.115C111.677 84.203 109.83 82.286 109.404 79.836C108.961 77.386 110.004 75.291 111.766 75.202C113.506 75.202 115.264 77.12 115.689 79.481Z" fill="#0F464C"/>
<path d="M118.832 95.033L112.37 95.726C111.654 95.8025 110.937 95.5994 110.368 95.1592C109.799 94.719 109.422 94.0758 109.316 93.364L109.138 92.228C108.268 87.683 110.274 83.848 113.417 83.582C116.559 83.405 119.702 86.813 120.483 91.182L120.749 92.495C120.83 93.0858 120.674 93.6847 120.314 94.1605C119.955 94.6364 119.421 94.9504 118.831 95.034L118.832 95.033Z" fill="#0F464C"/>
<path d="M70.0969 69.591C69.7818 69.5927 69.4789 69.4692 69.2549 69.2476C69.0309 69.0261 68.9041 68.7246 68.9024 68.4095C68.9006 68.0944 69.0242 67.7916 69.2457 67.5676C69.4673 67.3435 69.7688 67.2167 70.0839 67.215L78.1279 67.126H78.1409C78.2969 67.1251 78.4515 67.155 78.596 67.2139C78.7404 67.2729 78.8719 67.3597 78.9828 67.4694C79.0937 67.5791 79.182 67.7096 79.2424 67.8534C79.3029 67.9972 79.3345 68.1515 79.3353 68.3075C79.3362 68.4635 79.3064 68.6182 79.2475 68.7626C79.1885 68.9071 79.1017 69.0385 78.992 69.1494C78.8823 69.2604 78.7518 69.3486 78.608 69.4091C78.4642 69.4696 78.3099 69.5011 78.1539 69.502L70.1099 69.591H70.0969Z" fill="#22272E"/>
<path d="M77.9638 71.968L82.5088 69.003C82.6341 68.9293 82.7365 68.8223 82.8046 68.6939C82.8728 68.5655 82.9039 68.4207 82.8947 68.2756C82.8855 68.1306 82.8362 67.9909 82.7524 67.8722C82.6685 67.7534 82.5534 67.6602 82.4198 67.603L76.8268 64.727C76.6947 64.6463 76.5412 64.6074 76.3866 64.6156C76.232 64.6237 76.0835 64.6784 75.9606 64.7726C75.8377 64.8667 75.7461 64.9958 75.6979 65.143C75.6498 65.2901 75.6473 65.4484 75.6908 65.597L76.7388 71.455C76.7528 71.5902 76.8025 71.7192 76.8828 71.8289C76.9631 71.9385 77.0711 72.0249 77.1957 72.0791C77.3203 72.1334 77.4571 72.1535 77.592 72.1375C77.727 72.1215 77.8553 72.0699 77.9638 71.988V71.968Z" fill="#0F464C"/>
<path d="M278.473 366.808C278.473 366.808 279.698 378.774 280.746 384.97C281.012 386.798 287.901 388.893 294.203 387.597C301.979 386.017 302.403 381.579 302.403 381.579C302.403 381.579 300.911 360.612 300.752 359.138C300.593 357.664 279.625 361.588 278.488 366.825L278.473 366.808Z" fill="#B28D93"/>
<path d="M300.488 374.584C294.47 377.637 286.605 377.726 281.971 377.46C280.947 377.402 279.975 376.986 279.226 376.286C278.477 375.585 277.997 374.643 277.871 373.625C277.427 369.79 277.09 366.808 277.09 366.808C278.315 360.949 301.803 356.581 301.981 358.25C302.07 359.031 302.513 364.713 302.939 370.394C302.979 371.254 302.769 372.108 302.334 372.851C301.899 373.595 301.259 374.197 300.49 374.584H300.488Z" fill="#0F464C"/>
<path d="M280.569 384.277C280.569 384.277 279.432 385.769 279.969 389.16C280.413 392.568 279.88 407.854 281.797 409.683C283.715 411.423 305.374 410.216 315.068 408.032C325.454 405.671 332.005 401.569 332.715 399.386C333.763 396.243 332.893 395.8 322.152 392.657C311.411 389.603 305.996 385.057 303.723 382.52C303.271 381.995 302.718 381.565 302.096 381.258C301.475 380.95 300.799 380.77 300.107 380.729C299.415 380.687 298.722 380.785 298.068 381.017C297.415 381.248 296.814 381.608 296.303 382.076C294.989 383.212 293.426 387.313 290.533 387.313C283.627 387.224 281.283 383.905 280.573 384.26L280.569 384.277Z" fill="#0F464C"/>
<path d="M304.34 400.592C304.123 400.592 303.91 400.532 303.725 400.42C303.539 400.307 303.388 400.146 303.288 399.953C303.187 399.761 303.141 399.545 303.155 399.329C303.169 399.112 303.241 398.903 303.365 398.725C309.454 389.971 317.772 389.16 318.123 389.125C318.279 389.11 318.436 389.126 318.585 389.172C318.735 389.218 318.874 389.294 318.993 389.395C319.113 389.496 319.212 389.62 319.283 389.759C319.354 389.899 319.396 390.051 319.408 390.207C319.435 390.52 319.337 390.832 319.135 391.073C318.933 391.313 318.643 391.464 318.33 391.492C318.254 391.499 310.742 392.276 305.317 400.076C305.208 400.235 305.062 400.365 304.892 400.455C304.722 400.545 304.532 400.592 304.34 400.592Z" fill="white"/>
<path d="M299.174 396.634C298.959 396.633 298.747 396.574 298.563 396.463C298.379 396.351 298.228 396.192 298.127 396.001C298.026 395.811 297.979 395.597 297.99 395.382C298.001 395.167 298.071 394.959 298.191 394.78C299.668 392.475 301.614 390.507 303.902 389.004C306.19 387.501 308.77 386.497 311.472 386.058C311.786 386.028 312.099 386.124 312.342 386.324C312.585 386.525 312.738 386.814 312.768 387.128C312.799 387.441 312.703 387.754 312.502 387.997C312.302 388.24 312.013 388.394 311.699 388.424C309.352 388.848 307.117 389.748 305.132 391.07C303.147 392.393 301.455 394.108 300.159 396.11C300.05 396.272 299.904 396.404 299.732 396.495C299.56 396.587 299.369 396.634 299.174 396.634Z" fill="white"/>
<path d="M205.47 367.074C205.47 367.074 204.245 383.922 204.07 384.721C203.895 385.52 205.295 389.603 213.587 390.74C221.879 391.877 224.687 386.816 224.687 386.816C224.687 386.816 227.652 371.353 228.187 368.565C228.787 365.865 208.196 364.198 205.48 367.074H205.47Z" fill="#B28D93"/>
<path d="M229.739 368.21C229.473 369.346 228.869 372.489 228.248 375.986C228.084 376.919 227.621 377.773 226.929 378.42C226.238 379.067 225.355 379.472 224.413 379.573C218.375 380.251 212.263 379.471 206.588 377.3C205.68 376.957 204.909 376.328 204.39 375.508C203.871 374.688 203.633 373.722 203.712 372.755C203.978 369.255 204.156 366.382 204.156 366.382C207.121 363.15 230.356 365.068 229.739 368.21Z" fill="#0F464C"/>
<path d="M204.064 384.1C204.064 384.1 201.97 384.632 201.792 388.2C201.614 391.7 197.513 408.12 197.692 409.859C197.869 411.511 198.828 413.783 212.019 413.623C225.21 413.446 232.543 414.156 234.992 412.043C237.531 409.948 234.122 405.137 231.672 400.77C229.134 396.402 225.565 389.851 224.943 386.265C224.055 386.888 223.088 387.39 222.067 387.756C221.286 387.845 220.487 384.081 215.605 384.081C209.924 384.081 207.917 387.223 207.405 387.135C205.959 386.562 204.776 385.474 204.084 384.081L204.064 384.1Z" fill="#0F464C"/>
<path d="M226.081 395.868C225.921 395.868 225.764 395.836 225.617 395.773C217.524 392.334 208.165 395.756 208.07 395.792C207.924 395.847 207.768 395.872 207.612 395.867C207.457 395.862 207.303 395.826 207.161 395.761C207.019 395.696 206.891 395.605 206.785 395.491C206.678 395.376 206.595 395.243 206.54 395.097C206.486 394.95 206.46 394.795 206.466 394.639C206.471 394.483 206.507 394.33 206.571 394.188C206.636 394.046 206.728 393.918 206.842 393.811C206.956 393.705 207.09 393.622 207.236 393.567C207.652 393.41 217.565 389.767 226.546 393.586C226.798 393.693 227.006 393.884 227.134 394.127C227.262 394.369 227.302 394.649 227.247 394.917C227.192 395.186 227.046 395.427 226.834 395.601C226.621 395.774 226.355 395.868 226.081 395.868Z" fill="white"/>
<path d="M228.176 400.84C228.031 400.84 227.887 400.814 227.752 400.762C218.661 397.282 207.432 400.749 207.319 400.785C207.021 400.872 206.7 400.838 206.426 400.692C206.152 400.546 205.947 400.298 205.853 400.002C205.759 399.705 205.786 399.384 205.926 399.107C206.066 398.83 206.309 398.618 206.603 398.518C207.094 398.365 218.723 394.764 228.603 398.542C228.864 398.64 229.082 398.827 229.219 399.07C229.356 399.313 229.404 399.596 229.353 399.87C229.303 400.144 229.157 400.392 228.942 400.57C228.727 400.747 228.457 400.844 228.178 400.842L228.176 400.84Z" fill="white"/>
<path d="M227.645 210.575C227.645 210.575 246.162 215.634 268.336 223.499C289.303 230.92 297.505 235.288 299.778 249.881C302.05 264.457 299.245 316.422 302.05 330.146C304.838 343.852 308.069 353.546 305.37 360.629C304.911 362 304.178 363.264 303.217 364.344C302.256 365.424 301.086 366.299 299.778 366.914C299.778 366.914 288.504 371.725 278.478 369.453C276.567 368.858 274.794 367.887 273.264 366.597C271.733 365.307 270.476 363.725 269.565 361.943C266.245 355.743 269.476 335.743 266.938 320.808C264.399 305.965 261.612 281.252 258.558 264.741C255.504 248.141 205.723 241.59 199.349 228.577C195.494 221.039 194.413 212.385 196.296 204.13C196.296 204.13 222.056 203.597 227.649 210.592L227.645 210.575Z" fill="#0F464C"/>
<path d="M214.72 228.362C214.564 228.362 214.409 228.332 214.265 228.272C214.121 228.213 213.99 228.125 213.879 228.015C213.769 227.905 213.681 227.774 213.622 227.63C213.562 227.486 213.531 227.331 213.531 227.175C213.502 225.05 213.307 222.931 212.947 220.836C212.89 220.526 212.959 220.206 213.139 219.947C213.318 219.688 213.593 219.511 213.903 219.454C214.213 219.398 214.533 219.467 214.792 219.646C215.051 219.825 215.229 220.1 215.285 220.41C215.673 222.645 215.881 224.907 215.908 227.175C215.908 227.331 215.877 227.485 215.818 227.63C215.758 227.774 215.67 227.905 215.56 228.015C215.45 228.125 215.319 228.212 215.175 228.272C215.03 228.332 214.876 228.362 214.72 228.362Z" fill="#63737A"/>
<path d="M297.257 261.119C293.155 261.03 289.241 259.382 286.312 256.508C283.384 253.635 281.66 249.753 281.493 245.654C281.356 242.904 281.975 240.17 283.283 237.747C284.59 235.324 286.536 233.306 288.91 231.911C289.101 231.802 289.319 231.748 289.54 231.756C289.76 231.764 289.974 231.833 290.157 231.955C296.491 236.18 299.726 241.515 300.97 249.794C301.399 252.992 301.664 256.209 301.764 259.434C301.774 259.707 301.691 259.975 301.527 260.194C301.363 260.412 301.129 260.568 300.864 260.634C299.686 260.944 298.475 261.106 297.257 261.119ZM289.457 234.358C287.639 235.588 286.169 237.265 285.19 239.229C284.21 241.193 283.753 243.376 283.864 245.568C284.002 249.055 285.463 252.359 287.95 254.807C290.437 257.255 293.764 258.663 297.253 258.745C297.953 258.741 298.651 258.674 299.339 258.545C299.156 254.865 298.913 252.045 298.618 250.159C297.512 242.776 294.839 238.145 289.464 234.358H289.457Z" fill="#63737A"/>
<path d="M141.45 211.711C141.45 211.711 140.758 218.173 141.361 232.927C141.961 247.343 152.972 266.197 176.549 266.463C200.126 266.729 214.01 266.463 214.01 266.463C214.01 266.463 212.181 274.843 211.31 296.236C210.44 317.536 203.978 332.312 199.788 345.663C196.113 357.363 196.113 365.583 204.599 369.506C212.336 372.206 220.527 373.364 228.709 372.915C228.709 372.915 235.171 372.382 237.089 356.936C239.006 341.473 247.226 311.611 253.937 292.402C260.666 273.281 265.992 248.568 255.588 240.17C245.202 231.79 209.819 226.713 207.988 225.843C206.157 224.973 206.408 213.184 204.224 205.923C202.124 198.502 148.513 197.099 141.429 211.693L141.45 211.711Z" fill="#0F464C"/>
<path d="M254.027 293.501C253.837 293.501 253.65 293.455 253.481 293.368C253.312 293.281 253.167 293.154 253.057 292.999C252.948 292.844 252.877 292.665 252.85 292.477C252.824 292.289 252.843 292.097 252.906 291.918C257.235 279.618 266.1 250.018 254.93 241.005C247.074 234.666 223.454 230.07 213.368 228.105C211.407 227.815 209.469 227.387 207.568 226.824C207.427 226.757 207.301 226.663 207.196 226.547C207.092 226.431 207.011 226.296 206.959 226.149C206.907 226.001 206.884 225.845 206.892 225.69C206.9 225.534 206.939 225.381 207.006 225.24C207.073 225.099 207.167 224.973 207.283 224.868C207.399 224.764 207.534 224.683 207.681 224.631C207.829 224.579 207.984 224.556 208.14 224.564C208.296 224.572 208.449 224.611 208.59 224.678C208.972 224.828 211.328 225.287 213.821 225.772C224.95 227.937 248.107 232.445 256.421 239.154C268.321 248.762 260.731 276.829 255.145 292.704C255.064 292.936 254.913 293.138 254.713 293.28C254.512 293.423 254.273 293.5 254.027 293.501Z" fill="#63737A"/>
<path d="M208.17 226.961C208.095 226.961 208.02 226.953 207.946 226.939C205.473 226.466 198.446 225.339 195.615 225.808C195.46 225.836 195.301 225.833 195.147 225.799C194.993 225.765 194.848 225.701 194.719 225.61C194.59 225.519 194.481 225.404 194.397 225.27C194.314 225.137 194.257 224.988 194.232 224.833C194.206 224.677 194.212 224.518 194.248 224.365C194.284 224.212 194.351 224.067 194.443 223.94C194.536 223.812 194.653 223.705 194.788 223.623C194.923 223.541 195.072 223.487 195.228 223.464C199.05 222.829 208.013 224.532 208.392 224.605C208.682 224.662 208.94 224.824 209.117 225.06C209.293 225.296 209.376 225.59 209.348 225.884C209.32 226.177 209.184 226.45 208.967 226.649C208.749 226.849 208.465 226.96 208.17 226.961Z" fill="#63737A"/>
<path d="M143.03 243.632C142.756 243.632 142.491 243.537 142.279 243.364C142.068 243.191 141.922 242.95 141.867 242.683C141.812 242.415 141.851 242.136 141.977 241.893C142.103 241.651 142.31 241.459 142.561 241.351C145.567 240.058 149.696 236.964 152.294 229.569C152.398 229.272 152.616 229.028 152.9 228.891C153.184 228.755 153.511 228.736 153.808 228.841C154.106 228.945 154.35 229.163 154.486 229.447C154.623 229.731 154.641 230.058 154.537 230.355C151.653 238.564 146.943 242.055 143.499 243.535C143.351 243.599 143.191 243.632 143.03 243.632Z" fill="#63737A"/>
<path d="M214.027 267.652C213.837 267.651 213.651 267.606 213.483 267.519C213.315 267.431 213.17 267.305 213.06 267.151C212.95 266.996 212.879 266.818 212.852 266.631C212.825 266.443 212.844 266.252 212.906 266.073C213.978 263.182 215.619 260.536 217.731 258.29C217.84 258.175 217.971 258.083 218.117 258.02C218.262 257.957 218.419 257.923 218.577 257.921C218.736 257.919 218.893 257.949 219.04 258.009C219.187 258.069 219.32 258.157 219.432 258.269C219.545 258.381 219.633 258.515 219.693 258.662C219.753 258.809 219.783 258.966 219.781 259.125C219.779 259.283 219.745 259.44 219.682 259.585C219.618 259.73 219.527 259.862 219.412 259.971C217.555 261.965 216.107 264.303 215.149 266.854C215.068 267.087 214.916 267.289 214.715 267.432C214.514 267.575 214.273 267.652 214.027 267.652Z" fill="#63737A"/>
<path d="M249.482 268.877C245.38 268.789 241.466 267.14 238.537 264.267C235.608 261.394 233.885 257.512 233.719 253.412C233.607 251.383 233.911 249.352 234.613 247.444C235.314 245.537 236.398 243.793 237.798 242.319C239.161 240.893 240.801 239.76 242.618 238.991C244.435 238.221 246.39 237.832 248.363 237.846C250.432 237.855 252.478 238.278 254.381 239.09C256.284 239.902 258.005 241.087 259.443 242.574C259.502 242.635 259.555 242.702 259.6 242.774C262.123 246.847 263.149 252.722 262.651 260.237C262.637 260.44 262.572 260.636 262.461 260.807C261.269 263.232 259.421 265.273 257.127 266.7C254.832 268.127 252.184 268.881 249.482 268.877ZM248.363 240.223C246.711 240.21 245.074 240.535 243.553 241.178C242.031 241.821 240.657 242.769 239.515 243.962C238.338 245.205 237.427 246.675 236.839 248.282C236.25 249.889 235.997 251.599 236.093 253.308C236.227 256.798 237.687 260.105 240.175 262.556C242.662 265.007 245.991 266.417 249.482 266.5C251.727 266.503 253.928 265.879 255.838 264.7C257.749 263.521 259.292 261.832 260.296 259.824C260.71 253.102 259.796 247.686 257.645 244.136C256.432 242.904 254.988 241.925 253.395 241.253C251.802 240.582 250.091 240.231 248.363 240.223Z" fill="#63737A"/>
<path d="M208.199 379.118C207.952 379.116 207.712 379.039 207.509 378.899C207.306 378.759 207.149 378.561 207.06 378.331C206.782 377.23 206.758 376.079 206.991 374.967C207.011 374.812 207.061 374.663 207.138 374.528C207.215 374.392 207.319 374.273 207.442 374.178C207.565 374.083 207.706 374.012 207.857 373.971C208.007 373.93 208.164 373.919 208.319 373.939C208.474 373.959 208.623 374.009 208.758 374.086C208.894 374.164 209.012 374.267 209.108 374.39C209.203 374.513 209.274 374.654 209.315 374.805C209.356 374.955 209.367 375.112 209.347 375.267C209.206 376.017 209.19 376.784 209.298 377.539C209.352 377.683 209.378 377.836 209.372 377.99C209.367 378.143 209.331 378.294 209.267 378.434C209.202 378.574 209.111 378.699 208.998 378.803C208.884 378.907 208.752 378.987 208.607 379.039C208.477 379.091 208.339 379.118 208.199 379.118Z" fill="#63737A"/>
<path d="M215.764 380.744C215.565 380.743 215.37 380.693 215.196 380.598C215.022 380.503 214.874 380.365 214.766 380.199C214.659 380.032 214.594 379.841 214.58 379.643C214.565 379.445 214.599 379.246 214.681 379.065C215.067 378.255 215.324 377.39 215.445 376.501C215.445 376.186 215.57 375.883 215.793 375.66C216.016 375.437 216.318 375.312 216.634 375.312C216.949 375.312 217.252 375.437 217.475 375.66C217.697 375.883 217.823 376.186 217.823 376.501C217.706 377.731 217.375 378.931 216.845 380.047C216.751 380.255 216.599 380.431 216.407 380.555C216.215 380.678 215.992 380.744 215.764 380.744Z" fill="#63737A"/>
<path d="M223.81 380.743C223.597 380.743 223.387 380.686 223.204 380.577C223.021 380.469 222.87 380.313 222.767 380.126C222.665 379.939 222.615 379.728 222.623 379.515C222.63 379.302 222.695 379.095 222.81 378.915C223.272 378.197 223.631 377.418 223.875 376.599C223.95 376.299 224.14 376.04 224.403 375.878C224.666 375.715 224.982 375.661 225.285 375.728C225.587 375.795 225.851 375.977 226.021 376.235C226.191 376.494 226.254 376.808 226.196 377.112C225.892 378.204 225.425 379.244 224.81 380.197C224.702 380.365 224.555 380.503 224.38 380.598C224.205 380.694 224.009 380.744 223.81 380.743Z" fill="#63737A"/>
<path d="M283.196 378.648C282.967 378.648 282.743 378.582 282.551 378.458C282.358 378.334 282.206 378.157 282.112 377.948C281.573 376.7 281.191 375.39 280.973 374.048C280.947 373.892 280.952 373.732 280.989 373.579C281.025 373.425 281.092 373.28 281.186 373.152C281.279 373.024 281.397 372.917 281.532 372.835C281.668 372.753 281.818 372.7 281.975 372.677C282.131 372.654 282.291 372.663 282.444 372.703C282.597 372.743 282.74 372.813 282.866 372.909C282.992 373.005 283.097 373.125 283.176 373.262C283.254 373.4 283.305 373.551 283.324 373.708C283.512 374.832 283.833 375.93 284.281 376.978C284.362 377.159 284.397 377.357 284.381 377.555C284.366 377.753 284.302 377.944 284.194 378.11C284.086 378.277 283.938 378.413 283.764 378.508C283.59 378.603 283.394 378.652 283.196 378.652V378.648Z" fill="#63737A"/>
<path d="M292.891 378.133C292.806 378.133 292.722 378.124 292.639 378.106C292.333 378.04 292.065 377.856 291.895 377.594C291.724 377.332 291.663 377.013 291.726 376.706C291.826 375.547 291.736 374.378 291.458 373.248C291.425 373.094 291.424 372.935 291.453 372.78C291.482 372.626 291.542 372.479 291.629 372.347C291.716 372.216 291.828 372.103 291.958 372.015C292.089 371.928 292.236 371.867 292.391 371.836C292.545 371.806 292.704 371.807 292.858 371.838C293.012 371.87 293.159 371.932 293.289 372.02C293.419 372.109 293.53 372.223 293.616 372.355C293.702 372.487 293.761 372.634 293.789 372.789C294.15 374.226 294.24 375.719 294.052 377.189C293.995 377.455 293.849 377.694 293.638 377.866C293.427 378.038 293.163 378.132 292.891 378.133Z" fill="#63737A"/>
<path d="M301.448 375.08C301.343 375.081 301.238 375.067 301.137 375.039C300.834 374.957 300.575 374.759 300.418 374.487C300.261 374.215 300.218 373.893 300.298 373.589C300.506 372.539 300.474 371.455 300.205 370.419C300.154 370.264 300.136 370.101 300.152 369.939C300.167 369.777 300.216 369.619 300.294 369.477C300.373 369.334 300.48 369.209 300.609 369.11C300.738 369.01 300.885 368.938 301.043 368.898C301.201 368.858 301.365 368.851 301.526 368.877C301.687 368.903 301.84 368.962 301.977 369.05C302.115 369.138 302.232 369.253 302.323 369.388C302.413 369.524 302.475 369.676 302.505 369.836C302.876 371.264 302.905 372.76 302.589 374.201C302.521 374.452 302.373 374.674 302.167 374.833C301.96 374.992 301.708 375.079 301.448 375.08Z" fill="#63737A"/>
<path d="M209.749 110.585C209.749 110.585 218.395 112.077 232.189 115.308C240.725 117.228 249.353 118.715 258.039 119.764C258.039 119.764 272.277 113.391 289.126 106.147C298.803 101.897 308.686 98.1347 318.739 94.873C318.739 94.873 323.106 95.2281 325.645 101.602C326.622 104.04 327.011 106.673 326.781 109.289C326.726 109.96 326.517 110.609 326.169 111.185C325.821 111.761 325.343 112.249 324.775 112.609C320.94 115.148 310.359 122.209 293.775 133.665C272.648 148.241 263.824 149.306 253.332 148.865C241.721 148.332 212.889 143.627 212.889 143.627C212.889 143.627 205.113 142.136 202.414 128.252C199.875 114.369 207.048 110.09 209.746 110.605L209.749 110.585Z" fill="#2CD1EA"/>
<path d="M257.864 150.015C257.755 150.015 257.647 150 257.543 149.97C256.985 149.804 256.47 149.519 256.033 149.135C255.596 148.75 255.248 148.276 255.012 147.744C254.779 147.019 254.721 146.249 254.841 145.496C254.961 144.744 255.256 144.03 255.703 143.413C258.264 139.072 267.711 135.742 273.87 138.284C275.738 139.057 276.85 140.154 277.178 141.543C277.295 142.208 277.262 142.891 277.083 143.543C276.904 144.194 276.582 144.797 276.141 145.309C276.04 145.431 275.915 145.531 275.775 145.604C275.635 145.677 275.481 145.721 275.324 145.734C275.166 145.747 275.007 145.728 274.857 145.679C274.707 145.63 274.568 145.551 274.448 145.447C274.329 145.344 274.231 145.217 274.161 145.075C274.091 144.933 274.05 144.779 274.041 144.621C274.032 144.463 274.054 144.305 274.106 144.156C274.159 144.007 274.241 143.869 274.347 143.752C274.733 143.285 274.919 142.684 274.864 142.08C274.681 141.333 273.728 140.797 272.964 140.48C268.102 138.471 259.748 141.234 257.753 144.62C257.515 144.937 257.346 145.299 257.254 145.684C257.162 146.069 257.151 146.468 257.22 146.858C257.423 147.248 257.77 147.544 258.187 147.683C258.463 147.761 258.702 147.935 258.86 148.176C259.017 148.416 259.083 148.705 259.043 148.989C259.004 149.274 258.863 149.534 258.647 149.723C258.43 149.911 258.153 150.015 257.866 150.015H257.864Z" fill="black"/>
<path d="M322.326 115.431C322.196 115.431 322.067 115.41 321.944 115.368C321.472 115.208 317.234 113.612 313.844 106.915C312.252 103.682 311.664 100.046 312.155 96.4761C312.182 96.3224 312.239 96.1756 312.323 96.044C312.407 95.9125 312.516 95.7988 312.644 95.7094C312.772 95.6199 312.916 95.5566 313.068 95.5229C313.221 95.4892 313.378 95.4859 313.532 95.513C313.685 95.5402 313.832 95.5974 313.964 95.6813C314.095 95.7652 314.209 95.8742 314.298 96.0021C314.388 96.1299 314.451 96.2742 314.485 96.4266C314.519 96.5789 314.522 96.7364 314.495 96.89C314.105 99.9522 314.615 103.062 315.962 105.839C318.979 111.798 322.556 113.066 322.707 113.117C322.974 113.207 323.201 113.389 323.346 113.631C323.491 113.872 323.546 114.158 323.5 114.436C323.454 114.714 323.311 114.967 323.096 115.149C322.881 115.332 322.608 115.432 322.326 115.431Z" fill="black"/>
<path d="M318.739 94.8561C318.386 98.1908 318.9 101.56 320.231 104.638C321.045 106.447 322.202 108.081 323.639 109.449C324.068 109.841 324.598 110.105 325.169 110.211C325.74 110.317 326.329 110.261 326.87 110.049C327.893 109.568 328.982 109.245 330.102 109.09C332.019 108.913 337.257 110.049 340.328 107.865C343.399 105.681 344.092 105.415 344.518 105.326C344.944 105.237 349.578 105.238 350.377 104.883C351.957 104.19 352.294 101.563 351.513 100.515C350.821 99.6451 346.276 99.5561 345.406 98.2431C344.536 97.0181 345.317 95.5431 350.217 94.3191C355.099 93.0941 363.745 90.3951 363.497 88.3011C363.319 86.2941 358.614 87.7681 352.667 88.3891C346.808 88.9891 343.932 89.1701 341.482 88.2121C339.12 87.3421 335.712 87.3421 331.966 89.1701C329.516 90.3951 326.906 91.4431 322.272 93.4491C321.149 94.0185 319.978 94.487 318.772 94.8491L318.739 94.8561Z" fill="#B28D93"/>
<path d="M350.964 94.163C351.457 95.5712 351.749 97.0416 351.834 98.5311C351.923 100.448 349.134 105.685 347.112 106.644C345.106 107.603 343.791 106.555 342.921 105.153C342.051 103.751 339.779 95.4591 344.146 94.5011C348.513 93.5431 350.094 93.364 350.964 94.146V94.163Z" fill="#B28D93"/>
<path d="M351.407 101.725C351.243 101.725 351.082 101.692 350.932 101.627C350.782 101.562 350.647 101.467 350.536 101.348C349.91 101.116 349.265 100.941 348.608 100.825C346.862 100.445 345.057 100.052 344.308 98.925C344.058 98.594 343.894 98.2058 343.832 97.7957C343.77 97.3855 343.811 96.9663 343.952 96.576C344.486 95.136 346.352 94.0611 349.822 93.1941C356.822 91.4351 361.649 89.3321 362.202 88.3501C362.197 88.0461 362.31 87.7521 362.516 87.5284C362.721 87.3048 363.005 87.1686 363.309 87.1478C363.612 87.127 363.912 87.2233 364.146 87.4168C364.38 87.6103 364.532 87.8863 364.569 88.188C364.857 90.607 360.089 93.0671 350.398 95.4991C346.518 96.4691 346.181 97.3991 346.179 97.4111C346.196 97.4736 346.226 97.5316 346.268 97.5811C347.153 98.0574 348.117 98.3713 349.113 98.5081C350.652 98.8421 351.765 99.0851 352.336 99.8081C352.474 99.9831 352.561 100.193 352.585 100.415C352.61 100.637 352.571 100.861 352.475 101.062C352.378 101.263 352.226 101.433 352.037 101.552C351.848 101.671 351.63 101.734 351.407 101.735V101.725Z" fill="#896068"/>
<path d="M338.57 90.4681C338.296 90.468 338.03 90.3731 337.818 90.1994C337.605 90.0258 337.46 89.7841 337.405 89.5153C337.351 89.2465 337.391 88.9671 337.519 88.7245C337.647 88.4819 337.854 88.2909 338.107 88.1841C339.943 87.6991 341.848 87.5301 343.741 87.6841C344.044 87.7565 344.306 87.945 344.471 88.2088C344.636 88.4727 344.692 88.7909 344.625 89.095C344.558 89.399 344.374 89.6647 344.113 89.8347C343.852 90.0047 343.535 90.0655 343.23 90.0041C341.82 89.9558 340.41 90.08 339.03 90.3741C338.884 90.4357 338.728 90.4676 338.57 90.4681Z" fill="#896068"/>
<path d="M340.223 109.057C339.973 109.057 339.729 108.979 339.527 108.833C339.324 108.687 339.172 108.481 339.094 108.244C339.015 108.006 339.013 107.75 339.088 107.512C339.163 107.274 339.312 107.065 339.512 106.916C342.575 104.636 343.462 104.316 344.169 104.168C344.719 104.097 345.273 104.064 345.828 104.068C347.162 104.058 348.495 103.964 349.818 103.786C349.96 103.724 350.112 103.69 350.267 103.686C350.422 103.683 350.577 103.711 350.721 103.767C350.865 103.824 350.997 103.909 351.108 104.016C351.22 104.124 351.308 104.253 351.37 104.395C351.496 104.686 351.502 105.015 351.386 105.31C351.27 105.605 351.043 105.842 350.753 105.97C350.11 106.256 348.738 106.347 345.908 106.442C345.285 106.464 344.789 106.477 344.608 106.5C344.427 106.523 343.827 106.664 340.93 108.82C340.726 108.974 340.478 109.057 340.223 109.057Z" fill="#896068"/>
<path d="M177.615 101.318C177.615 101.318 178.573 97.7321 185.124 98.0871C191.675 98.4421 201.192 101.851 201.813 106.733C202.505 111.615 180.686 114.333 177.613 101.318H177.615Z" fill="#0F464C"/>
<path d="M224.324 140.891C223.454 113.302 209.824 110.585 209.824 110.585C198.636 108.932 187.331 108.202 176.024 108.402C157.507 108.757 143.024 111.902 135.51 122.552C128.87 131.979 114.383 173.824 118.129 185.435C121.272 195.218 130.539 197.579 147.121 194.685C146.074 200.792 144.849 205.604 144.849 205.604C151.844 210.663 167.289 215.652 190.44 215.652C211.053 215.652 221.44 208.924 221.44 208.924C220.659 202.724 225.115 168.481 224.317 140.891H224.324Z" fill="#2CD1EA"/>
<path d="M201.973 117.048C202.931 122.907 203.373 135.654 204.937 147.709C206.517 159.763 206.766 177.482 206.855 194.436C206.899 204.583 207.922 214.702 209.909 224.653C221.697 220.73 230.077 211.462 230.077 211.462C230.077 211.462 231.213 210.062 228.159 198.804C225.106 187.53 224.325 147.704 224.325 147.704C224.788 141.076 224.436 134.416 223.277 127.873C221.36 118.357 214.897 111.628 209.909 110.048C207.204 109.172 204.371 108.758 201.529 108.823C201.529 108.823 201.707 113.279 201.973 117.023" fill="white"/>
<path d="M178.999 91.3581C178.999 91.3581 178.466 101.318 178.466 106.2C178.466 114.758 190.166 123.581 194.534 123.581C201.599 123.581 202.824 115.29 202.487 111.615C202.132 107.94 202.043 97.2881 202.132 97.0391C202.221 96.7731 183.349 86.6531 178.981 91.3581H178.999Z" fill="#B28D93"/>
<path d="M183.207 96.613C184.521 107.443 193.167 113.124 202.507 112.769C202.525 112.418 202.495 112.065 202.418 111.722C202.218 109.515 202.13 107.298 202.152 105.082C195.424 108.582 187.133 102.898 183.209 96.613H183.207Z" fill="#896068"/>
<path d="M189.403 121.668C188.803 132.054 192.634 157.903 192.634 187.25C192.634 216.597 188.356 228.65 188.356 228.65C152.28 232.929 133.941 217.731 133.941 217.731C133.941 217.731 135.341 214.678 138.397 206.209C141.45 197.829 141.45 187.337 141.45 187.337C141.45 187.337 145.64 149.007 144.15 140.437C142.659 131.791 137.155 120.517 137.155 120.517C137.155 120.517 141.522 114.143 153.222 110.912C162.312 108.373 172.165 108.125 176.107 108.125L176.018 108.569C180.03 117.569 189.387 121.669 189.387 121.669L189.403 121.668Z" fill="white"/>
<path d="M158.227 200.1C164.1 201.766 170.198 202.503 176.3 202.284C177.436 202.195 178.306 202.884 178.218 203.775V203.864C178.112 204.251 177.887 204.594 177.574 204.846C177.262 205.097 176.878 205.243 176.478 205.264C172.555 205.531 162.417 204.909 157.178 202.814C156.8 202.698 156.476 202.449 156.267 202.113C156.058 201.777 155.978 201.377 156.041 200.986C156.219 200.204 157.266 199.849 158.225 200.116L158.227 200.1Z" fill="#EAF9F3"/>
<path d="M215.43 199.834C217.17 199.39 221.111 198.52 225.39 197.046C225.99 196.869 226.704 197.401 226.881 198.271V198.36C226.982 198.631 226.984 198.93 226.887 199.203C226.789 199.475 226.599 199.705 226.349 199.851C224.343 200.633 219.283 202.479 216.049 202.639C215.742 202.601 215.453 202.473 215.219 202.271C214.985 202.068 214.816 201.801 214.735 201.502C214.558 200.721 214.824 200.011 215.428 199.851L215.43 199.834Z" fill="#EAF9F3"/>
<path d="M216.3 156.603H215.856C209.216 160.189 205.381 160.012 204.937 156.692C205.63 156.248 206.251 155.822 206.855 155.378C208.311 154.436 209.951 153.813 211.666 153.55C212.935 153.333 214.215 153.185 215.501 153.106C215.501 153.106 217.418 152.662 217.773 153.372C218.128 153.905 218.039 155.201 216.282 156.603H216.3Z" fill="#B28D93"/>
<path d="M260.311 187.268L210.711 187.179C210.345 187.177 209.984 187.099 209.649 186.951C209.315 186.802 209.015 186.586 208.768 186.316C208.522 186.046 208.333 185.727 208.216 185.381C208.098 185.035 208.053 184.668 208.084 184.303L211.848 145.884C211.93 145.056 212.332 144.292 212.968 143.755C213.605 143.218 214.425 142.95 215.256 143.008L265.038 146.328C265.591 146.382 266.1 146.65 266.458 147.075C266.817 147.499 266.995 148.046 266.956 148.6L262.943 184.924C262.885 185.577 262.582 186.184 262.095 186.622C261.607 187.061 260.971 187.298 260.316 187.286L260.311 187.268Z" fill="#0F464C"/>
<path d="M243.374 150.585C243.406 150.456 243.407 150.322 243.378 150.193C243.348 150.063 243.289 149.943 243.204 149.841C243.119 149.739 243.012 149.658 242.89 149.605C242.769 149.553 242.636 149.529 242.504 149.537C242.213 149.553 241.936 149.665 241.714 149.854C241.493 150.043 241.34 150.3 241.279 150.585C241.254 150.713 241.258 150.845 241.29 150.971C241.322 151.097 241.382 151.215 241.465 151.315C241.548 151.415 241.653 151.496 241.771 151.551C241.89 151.605 242.019 151.633 242.149 151.632C242.435 151.602 242.706 151.486 242.924 151.299C243.143 151.112 243.3 150.863 243.374 150.585Z" fill="#63737A"/>
<path d="M198.564 177.73C198.474 178.108 198.29 178.458 198.029 178.746C197.768 179.035 197.439 179.253 197.072 179.381C184.214 184.864 170.924 189.274 157.339 192.568C153.664 193.438 150.185 194.219 147.039 194.752C130.351 197.539 121.19 195.285 118.047 185.502C114.283 173.891 128.788 132.135 135.428 122.619C135.964 121.857 136.545 121.128 137.168 120.435C146.347 113.28 155.868 120.257 157.958 131.957C159.005 138.157 156.378 144.97 154.194 152.747C152.598 157.704 150.731 162.57 148.601 167.322L194.371 162.6C194.779 162.538 195.197 162.586 195.581 162.739C195.964 162.892 196.3 163.144 196.554 163.47C200.744 168.104 199.342 174.992 198.56 177.708L198.564 177.73Z" fill="#2CD1EA"/>
<path d="M136.303 171.768C136.048 171.768 135.799 171.687 135.594 171.535C135.389 171.383 135.238 171.169 135.164 170.925C135.09 170.68 135.097 170.419 135.183 170.179C135.269 169.938 135.43 169.732 135.643 169.591C139.243 167.191 148.108 166.125 148.483 166.08C148.792 166.05 149.101 166.143 149.343 166.338C149.585 166.533 149.741 166.815 149.777 167.124C149.814 167.433 149.728 167.743 149.538 167.99C149.348 168.236 149.07 168.398 148.762 168.441C146.362 168.723 139.562 169.836 136.962 171.569C136.767 171.699 136.537 171.769 136.303 171.768Z" fill="black"/>
<path d="M192.455 182.415C192.218 182.416 191.985 182.347 191.788 182.215L191.641 182.115C189.641 180.761 186.617 178.715 185.515 171.997C184.476 165.656 187.171 162.505 187.286 162.374C187.493 162.136 187.786 161.991 188.1 161.969C188.415 161.947 188.725 162.052 188.962 162.259C189.2 162.466 189.346 162.759 189.367 163.073C189.389 163.387 189.285 163.697 189.078 163.935C188.978 164.056 187.019 166.48 187.859 171.613C188.797 177.319 191.113 178.887 192.974 180.147L193.124 180.247C193.334 180.39 193.493 180.596 193.578 180.836C193.662 181.076 193.667 181.337 193.592 181.58C193.517 181.823 193.366 182.036 193.162 182.186C192.957 182.337 192.709 182.418 192.455 182.418V182.415Z" fill="black"/>
<path d="M135.52 197.08C135.277 197.08 135.04 197.006 134.84 196.867C134.641 196.728 134.489 196.532 134.405 196.304C134.32 196.076 134.308 195.827 134.37 195.592C134.432 195.357 134.564 195.147 134.749 194.989C136.398 193.581 136.103 191.578 135.565 190.145C134.141 186.351 129.244 182.145 124.787 182.145H124.705C122.41 182.172 120.748 182.72 119.905 183.728C119.64 184.055 119.443 184.431 119.327 184.836C119.21 185.24 119.176 185.663 119.227 186.081C119.272 186.387 119.196 186.698 119.015 186.949C118.834 187.199 118.563 187.37 118.259 187.424C117.955 187.478 117.642 187.412 117.385 187.239C117.129 187.066 116.951 186.8 116.887 186.498C116.781 185.747 116.83 184.981 117.03 184.25C117.23 183.518 117.578 182.834 118.051 182.241C119.372 180.641 121.603 179.805 124.682 179.769H124.795C130.435 179.769 136.058 184.678 137.795 189.306C138.916 192.294 138.37 195.023 136.295 196.792C136.08 196.978 135.805 197.08 135.52 197.08Z" fill="black"/>
<path d="M233.414 169.705C232.882 171.357 228.869 169.794 225.814 168.924C221.89 167.788 219.263 166.918 218.996 166.824C221.538 168.194 223.961 169.773 226.24 171.547C229.382 173.908 231.74 176.429 230.696 177.654C229.652 178.879 223.364 175.204 223.364 175.204C223.364 175.204 225.637 176.784 226.151 178.613C226.684 180.353 223.613 179.838 217.861 176.34C215.672 176.619 213.547 177.268 211.576 178.258C207.476 180.086 201.35 179.216 199.432 178.613C198.666 178.383 197.871 178.263 197.071 178.258C196.631 178.251 196.199 178.145 195.805 177.948C195.412 177.752 195.068 177.469 194.798 177.122C193.168 175.151 192.139 172.754 191.833 170.215C191.478 166.984 192.277 165.156 192.881 164.268C193.16 163.812 193.595 163.471 194.106 163.309C195.157 162.953 196.178 162.513 197.159 161.995C197.941 161.552 200.835 159.457 203.71 157.539C204.133 157.271 204.542 156.98 204.935 156.669C208.573 156.859 212.219 156.83 215.854 156.58H216.298C220.062 156.314 230.092 157.18 231.14 158.32C232.276 159.457 230.696 160.948 225.992 160.859C223.449 160.853 220.909 161.031 218.392 161.392C220.997 162.045 223.54 162.924 225.992 164.019C229.667 165.67 234.034 168.032 233.412 169.7L233.414 169.705Z" fill="#B28D93"/>
<path d="M219.087 168.018C218.943 168.018 218.8 167.992 218.666 167.94C217.912 167.656 217.144 167.41 216.366 167.204C215.827 167.067 215.275 166.988 214.719 166.97C214.404 166.97 214.101 166.845 213.879 166.622C213.656 166.399 213.531 166.097 213.531 165.782C213.531 165.467 213.656 165.165 213.879 164.942C214.101 164.719 214.404 164.594 214.719 164.594C215.465 164.61 216.206 164.711 216.93 164.894C217.803 165.122 218.664 165.397 219.508 165.716C219.768 165.814 219.986 166.001 220.124 166.243C220.261 166.485 220.308 166.768 220.258 167.042C220.208 167.316 220.063 167.564 219.849 167.742C219.634 167.92 219.364 168.017 219.086 168.016L219.087 168.018Z" fill="#896068"/>
<path d="M223.364 176.397C223.205 176.397 223.048 176.366 222.901 176.304C222.755 176.242 222.623 176.152 222.512 176.038C220.953 174.478 219.031 173.329 216.919 172.695C215.545 172.451 214.619 172.363 214.609 172.362C214.295 172.333 214.006 172.181 213.804 171.939C213.603 171.696 213.506 171.384 213.535 171.07C213.564 170.756 213.716 170.467 213.958 170.266C214.201 170.064 214.513 169.967 214.827 169.996C214.868 169.996 215.854 170.096 217.377 170.365C219.965 171.091 222.322 172.475 224.217 174.382C224.379 174.55 224.489 174.761 224.532 174.991C224.575 175.22 224.549 175.457 224.458 175.672C224.367 175.887 224.215 176.071 224.02 176.199C223.825 176.328 223.597 176.397 223.364 176.397Z" fill="#896068"/>
<path d="M214.72 162.958C214.436 162.959 214.161 162.857 213.946 162.673C213.73 162.488 213.588 162.232 213.544 161.952C213.501 161.671 213.559 161.384 213.709 161.143C213.859 160.902 214.09 160.722 214.361 160.637C215.724 160.304 217.127 160.166 218.528 160.227C218.843 160.239 219.14 160.375 219.355 160.606C219.569 160.837 219.683 161.144 219.671 161.459C219.659 161.774 219.523 162.071 219.292 162.286C219.061 162.5 218.754 162.614 218.439 162.602C217.31 162.55 216.18 162.651 215.078 162.902C214.962 162.939 214.841 162.958 214.72 162.958Z" fill="#896068"/>
<path d="M210.885 157.968C210.051 157.991 209.218 157.91 208.404 157.726C208.256 157.675 208.12 157.596 208.003 157.493C207.887 157.389 207.791 157.264 207.723 157.124C207.654 156.983 207.614 156.831 207.605 156.675C207.595 156.52 207.616 156.364 207.667 156.216C207.718 156.069 207.797 155.932 207.9 155.815C208.004 155.699 208.129 155.603 208.269 155.535C208.409 155.466 208.562 155.426 208.718 155.417C208.873 155.407 209.029 155.428 209.177 155.479C209.742 155.564 210.313 155.602 210.885 155.592C211.2 155.592 211.502 155.717 211.725 155.94C211.948 156.163 212.073 156.465 212.073 156.78C212.073 157.095 211.948 157.397 211.725 157.62C211.502 157.843 211.2 157.968 210.885 157.968Z" fill="#896068"/>
<path d="M201.706 112.68C201.617 111.515 201.617 110.345 201.706 109.18C201.82 108.369 201.85 107.548 201.795 106.73V104.724C201.795 104.724 202.328 105.86 203.375 107.689C204.422 109.428 202.842 117.56 202.061 118.518L201.706 112.66V112.68Z" fill="#0F464C"/>
<path d="M211.24 73.8171C210.897 79.1379 210.897 84.4752 211.24 89.7961C211.472 93.7904 210.372 97.7488 208.114 101.051C205.855 104.354 202.565 106.814 198.759 108.047C192.918 109.875 181.911 105.347 179.283 92.3351C176.583 79.3211 170.992 64.6571 186.189 59.3351C201.298 54.0091 211.435 61.4351 211.258 73.8351L211.24 73.8171Z" fill="#B28D93"/>
<path d="M178.396 82.9781C178.396 82.9781 180.224 81.8421 180.845 78.0071C180.88 77.5774 181.017 77.1623 181.246 76.7969C181.475 76.4314 181.788 76.1263 182.159 75.9071C183.032 75.525 183.799 74.9356 184.393 74.1902C184.987 73.4447 185.39 72.5656 185.568 71.6291C185.745 69.9781 186.438 68.7531 188.195 69.7111C201.901 77.6651 210.995 70.4041 210.995 70.4041L211.084 75.3751C216.41 73.8841 219.642 66.9061 218.594 61.7581C217.28 55.2951 214.83 56.5201 211.776 51.6201C208.812 46.7381 203.13 43.3291 195.976 45.8501C188.822 48.3711 186.193 49.5251 180.601 49.4371C175.101 49.3481 169.683 51.7091 169.257 56.9461C168.902 62.1841 164.019 63.7641 163.149 68.6461C162.755 70.3042 162.814 72.0379 163.32 73.6653C163.826 75.2928 164.761 76.7541 166.026 77.8961C167.854 79.8131 164.375 85.2281 168.99 89.7731C173.713 94.3181 176.678 95.7211 178.595 98.6861C178.861 98.6861 179.554 90.6431 178.417 82.9731L178.396 82.9781Z" fill="#0F464C"/>
<path d="M179.976 84.468C179.976 84.468 176.655 78.875 172.2 81.414C167.745 83.953 172.466 92.688 179.354 92.244" fill="#B28D93"/>
<path d="M203.801 80.191C204.115 81.0682 204.558 81.8938 205.115 82.641C205.358 82.9462 205.618 83.2367 205.896 83.511C206.36 83.8312 206.747 84.2494 207.032 84.736C207.303 85.2445 207.453 85.8093 207.468 86.3855C207.484 86.9618 207.365 87.5337 207.121 88.056C206.931 88.5525 206.634 89.0011 206.251 89.37C205.908 89.7649 205.447 90.0388 204.937 90.151C205.477 89.4389 205.809 88.5907 205.896 87.701C205.999 86.9623 205.908 86.2093 205.63 85.517C205.452 85.162 205.275 85.073 204.849 84.647C204.478 84.2359 204.183 83.7618 203.979 83.247C203.614 82.2701 203.552 81.2058 203.801 80.193V80.191Z" fill="#0F464C"/>
<path d="M198.573 98.6111C197.303 98.6119 196.055 98.2875 194.946 97.6689C193.838 97.0502 192.906 96.1579 192.241 95.0771C192.156 94.9462 192.097 94.7999 192.069 94.6465C192.04 94.493 192.042 94.3355 192.075 94.1828C192.107 94.0301 192.169 93.8854 192.258 93.7567C192.346 93.6281 192.459 93.5181 192.59 93.4331C192.721 93.3481 192.867 93.2896 193.02 93.2612C193.174 93.2327 193.331 93.2347 193.484 93.2671C193.637 93.2995 193.781 93.3617 193.91 93.45C194.039 93.5384 194.149 93.6512 194.234 93.7821C194.715 94.5831 195.409 95.2348 196.239 95.6648C197.069 96.0949 198.002 96.2864 198.934 96.2181C199.245 96.1788 199.558 96.2627 199.808 96.4518C200.058 96.6409 200.224 96.9203 200.271 97.2301C200.315 97.5403 200.235 97.8554 200.047 98.1065C199.86 98.3577 199.581 98.5243 199.271 98.5701C199.039 98.5997 198.806 98.6133 198.573 98.6111Z" fill="#22272E"/>
<path d="M194.107 83.8481C193.945 83.8514 193.784 83.8219 193.634 83.7615C193.484 83.7011 193.348 83.6109 193.234 83.4965C193.119 83.3821 193.029 83.2457 192.969 83.0956C192.909 82.9455 192.879 82.7848 192.883 82.6231V81.3981C192.879 81.2364 192.909 81.0756 192.969 80.9255C193.029 80.7754 193.119 80.6391 193.234 80.5247C193.348 80.4102 193.484 80.3201 193.634 80.2597C193.784 80.1993 193.945 80.1698 194.107 80.1731C194.268 80.1704 194.429 80.2002 194.579 80.2608C194.729 80.3214 194.865 80.4116 194.979 80.5258C195.093 80.6401 195.183 80.7763 195.244 80.9261C195.305 81.076 195.335 81.2365 195.332 81.3981V82.6231C195.325 82.946 195.194 83.2538 194.966 83.4822C194.738 83.7106 194.43 83.8417 194.107 83.8481Z" fill="#0F464C"/>
<path d="M207.654 83.848C207.492 83.8507 207.332 83.8209 207.182 83.7603C207.032 83.6996 206.896 83.6095 206.782 83.4952C206.667 83.3809 206.577 83.2448 206.517 83.095C206.456 82.9451 206.426 82.7846 206.429 82.623V81.398C206.426 81.2364 206.456 81.076 206.517 80.9262C206.578 80.7764 206.668 80.6403 206.782 80.5261C206.896 80.4118 207.032 80.3217 207.182 80.261C207.332 80.2004 207.492 80.1704 207.654 80.173C207.815 80.1704 207.976 80.2004 208.126 80.261C208.276 80.3217 208.412 80.4118 208.526 80.5261C208.64 80.6403 208.73 80.7764 208.791 80.9262C208.852 81.076 208.881 81.2364 208.879 81.398V82.623C208.872 82.9458 208.741 83.2535 208.513 83.4818C208.284 83.7101 207.977 83.8413 207.654 83.848Z" fill="#0F464C"/>
<path d="M195.864 77.4751C194.994 77.8301 194.373 76.782 193.077 77.12C191.071 77.72 190.112 78.433 189.756 77.564C189.49 76.964 190.715 75.3801 192.633 74.8641C195.42 74.2641 197.444 76.8701 195.864 77.4921V77.4751Z" fill="#0F464C"/>
<path d="M205.985 77.4751C206.677 77.7411 207.21 76.7821 208.169 77.0311C209.482 77.4751 210.175 77.9901 210.352 77.2971C210.53 76.7651 209.82 75.3801 208.524 74.9361C206.424 74.2441 204.6 76.9421 205.985 77.4751Z" fill="#0F464C"/>
<path d="M172.892 85.068C172.942 84.8837 173.03 84.7116 173.149 84.562C173.268 84.4125 173.416 84.2886 173.584 84.198C173.765 84.0494 173.976 83.941 174.203 83.8798C174.429 83.8186 174.666 83.806 174.898 83.843C175.388 83.946 175.823 84.224 176.123 84.625C176.366 84.9476 176.567 85.2994 176.723 85.672C176.96 86.2929 177.139 86.9347 177.256 87.589C177.345 87.856 177.345 88.033 177.522 88.189C177.773 88.4029 178.071 88.5549 178.392 88.633C178.057 88.8549 177.654 88.9493 177.256 88.899C176.801 88.7716 176.402 88.4969 176.12 88.118C175.756 87.5463 175.464 86.932 175.25 86.289C175.148 86.0214 175.03 85.7605 174.895 85.508C174.828 85.3254 174.703 85.1695 174.54 85.064C174.274 84.709 173.581 84.798 172.889 85.064L172.892 85.068Z" fill="#0F464C"/>
<path d="M180.757 138.956C181.112 142.276 178.928 145.862 175.785 146.111C174.245 146.185 172.736 145.666 171.568 144.661C170.4 143.656 169.661 142.241 169.504 140.708C169.348 139.175 169.784 137.64 170.725 136.419C171.666 135.198 173.038 134.384 174.561 134.145C177.792 133.79 180.508 135.636 180.757 138.956Z" fill="#2CD1EA"/>
<path d="M189.403 121.668C189.403 121.668 180.064 117.568 175.945 108.477L177.596 101.322C179.521 104.994 182.501 108.006 186.154 109.968C187.142 110.475 187.978 111.236 188.576 112.171C189.175 113.107 189.515 114.184 189.562 115.294C189.631 117.42 189.572 119.549 189.385 121.668H189.403Z" fill="#0F464C"/>
<path d="M74.9089 172.759C74.9089 173.711 74.6268 174.641 74.0981 175.432C73.5695 176.223 72.8181 176.84 71.939 177.204C71.0599 177.568 70.0926 177.663 69.1593 177.478C68.2261 177.292 67.3688 176.834 66.696 176.161C66.0232 175.488 65.5649 174.631 65.3793 173.698C65.1937 172.764 65.289 171.797 65.6531 170.918C66.0172 170.039 66.6339 169.287 67.425 168.759C68.2162 168.23 69.1463 167.948 70.0979 167.948C70.7301 167.947 71.3564 168.07 71.9407 168.311C72.5251 168.553 73.056 168.907 73.503 169.354C73.9501 169.801 74.3044 170.332 74.5456 170.916C74.7869 171.501 74.9104 172.127 74.9089 172.759Z" fill="#0F464C"/>
<path d="M74.9089 189.607H65.3039C64.7879 189.61 64.2764 189.511 63.7991 189.315C63.3217 189.119 62.888 188.83 62.5231 188.465C62.1582 188.1 61.8694 187.666 61.6733 187.189C61.4773 186.712 61.3779 186.2 61.3809 185.684C61.3852 183.369 62.3068 181.149 63.944 179.512C65.5813 177.875 67.8005 176.953 70.1159 176.949C72.4311 176.954 74.6502 177.875 76.2872 179.513C77.9242 181.15 78.8457 183.369 78.8499 185.684C78.853 186.2 78.7536 186.712 78.5575 187.189C78.3614 187.666 78.0726 188.1 77.7077 188.465C77.3428 188.83 76.9091 189.119 76.4318 189.315C75.9544 189.511 75.443 189.61 74.9269 189.607H74.9089Z" fill="#0F464C"/>
<path d="M70.0969 204.413C63.3007 204.405 56.7851 201.702 51.9797 196.896C47.1742 192.09 44.4713 185.574 44.4639 178.778C44.4728 178.469 44.602 178.175 44.8239 177.96C45.0458 177.744 45.343 177.624 45.6523 177.624C45.9617 177.624 46.2589 177.744 46.4808 177.96C46.7027 178.175 46.8319 178.469 46.8409 178.778C46.8446 183.671 48.3901 188.438 51.2577 192.402C54.1253 196.366 58.1693 199.326 62.815 200.861C67.4607 202.396 72.472 202.428 77.1369 200.952C81.8018 199.477 85.883 196.569 88.8008 192.641C88.9959 192.407 89.2735 192.256 89.5765 192.22C89.8794 192.185 90.1844 192.267 90.4284 192.45C90.6724 192.633 90.8368 192.903 90.8875 193.204C90.9382 193.504 90.8714 193.813 90.7009 194.066C88.2993 197.265 85.189 199.864 81.6142 201.66C78.0394 203.455 74.0971 204.397 70.0969 204.413Z" fill="#6DAFA7"/>
<path d="M92.3789 196.247L92.5559 188.4L85.6499 192.146L92.3789 196.247Z" fill="white"/>
<path d="M94.4738 179.968C94.1587 179.968 93.8564 179.843 93.6335 179.62C93.4105 179.397 93.2851 179.095 93.2848 178.78C93.2876 173.812 91.6989 168.974 88.7516 164.975C85.8044 160.976 81.6536 158.026 76.9076 156.558C72.1617 155.089 67.0703 155.18 62.3796 156.816C57.689 158.453 53.6458 161.548 50.8428 165.65C50.6634 165.904 50.3915 166.078 50.0855 166.134C49.7795 166.19 49.4637 166.124 49.206 165.949C48.9482 165.775 48.769 165.507 48.7067 165.202C48.6444 164.897 48.7041 164.58 48.8728 164.319C51.961 159.796 56.4169 156.382 61.5872 154.576C66.7576 152.77 72.3704 152.668 77.6029 154.285C82.8353 155.902 87.4122 159.153 90.6625 163.561C93.9128 167.968 95.6656 173.301 95.6638 178.778C95.664 178.934 95.6333 179.089 95.5735 179.234C95.5138 179.378 95.4261 179.509 95.3156 179.62C95.2051 179.73 95.0738 179.818 94.9294 179.878C94.7849 179.937 94.6302 179.968 94.4738 179.968Z" fill="#6DAFA7"/>
<path d="M47.1418 162.196L47.3019 169.972L54.0309 165.942L47.1418 162.196Z" fill="white"/>
<path d="M249.978 64.994L249.478 71.261C249.452 71.7483 249.603 72.2286 249.903 72.6135C250.203 72.9984 250.632 73.262 251.111 73.356C251.543 73.4172 251.983 73.3381 252.367 73.1304C252.75 72.9226 253.057 72.5972 253.242 72.202L255.342 66.716L249.998 65.016L249.978 64.994Z" fill="#0F464C"/>
<path d="M287.403 50.1521L292.161 54.3421C292.509 54.6681 292.733 55.1048 292.794 55.5776C292.856 56.0503 292.752 56.5298 292.499 56.9341C292.237 57.3146 291.841 57.5824 291.39 57.6843C290.939 57.7862 290.466 57.7147 290.066 57.4841L284.722 54.9281L287.385 50.1701L287.403 50.1521Z" fill="#0F464C"/>
<path d="M279.662 63.3001C292.249 53.5151 294.521 35.3787 284.736 22.7912C274.951 10.2037 256.815 7.93182 244.227 17.7168C231.64 27.5018 229.368 45.6383 239.153 58.2257C248.938 70.8132 267.075 73.0851 279.662 63.3001Z" fill="white"/>
<path d="M278.854 47.7405C282.909 38.3416 278.578 27.4345 269.179 23.3789C259.78 19.3233 248.873 23.6549 244.817 33.0539C240.762 42.4528 245.093 53.3599 254.492 57.4155C263.891 61.4711 274.798 57.1394 278.854 47.7405Z" fill="#2CD1EA"/>
<path d="M269.988 43.6001C269.889 43.5999 269.791 43.5875 269.696 43.5631L261.547 41.504C261.363 41.4573 261.193 41.3674 261.051 41.2416C260.909 41.1158 260.799 40.9579 260.73 40.7811L257.23 31.762C257.124 31.4701 257.137 31.1486 257.266 30.8662C257.395 30.5837 257.629 30.3628 257.918 30.2507C258.208 30.1386 258.529 30.1442 258.815 30.2663C259.1 30.3884 259.326 30.6173 259.445 30.904L262.721 39.3501L270.275 41.2591C270.557 41.329 270.803 41.4998 270.968 41.7392C271.132 41.9785 271.203 42.2699 271.168 42.5581C271.132 42.8463 270.992 43.1115 270.774 43.3035C270.556 43.4955 270.275 43.601 269.985 43.6001H269.988Z" fill="#63737A"/>
<path d="M230.164 29.593C230.048 29.7694 229.897 29.9203 229.721 30.0362C229.545 30.1522 229.346 30.2309 229.139 30.2674C228.931 30.3039 228.718 30.2976 228.512 30.2486C228.307 30.1997 228.114 30.1094 227.945 29.983C226.522 28.6819 225.601 26.9228 225.341 25.0122C225.082 23.1016 225.5 21.1606 226.525 19.527C227.517 17.8683 229.054 16.6056 230.874 15.9546C232.694 15.3037 234.684 15.3049 236.503 15.958C236.709 16.0332 236.895 16.155 237.047 16.3139C237.198 16.4728 237.311 16.6645 237.376 16.8742C237.441 17.0838 237.457 17.3056 237.423 17.5224C237.388 17.7392 237.304 17.9451 237.177 18.124L230.164 29.611V29.593Z" fill="white"/>
<path d="M277.515 10.898C277.722 10.9445 277.936 10.9477 278.144 10.9077C278.353 10.8676 278.55 10.785 278.725 10.6651C278.9 10.5452 279.049 10.3905 279.161 10.2107C279.273 10.0309 279.348 9.82978 279.379 9.62002C279.53 7.68645 278.993 5.76166 277.862 4.18589C276.732 2.61013 275.08 1.48486 273.2 1.00903C271.354 0.472419 269.378 0.607914 267.623 1.39143C265.867 2.17495 264.447 3.55567 263.614 5.28802C263.523 5.4758 263.473 5.68124 263.469 5.89001C263.466 6.09879 263.507 6.30588 263.592 6.49685C263.676 6.68783 263.801 6.85809 263.958 6.99577C264.115 7.13345 264.301 7.23524 264.501 7.29403L277.533 10.916L277.515 10.898Z" fill="white"/>
<path d="M253.174 7.84503L245.913 10.809C245.626 10.9242 245.32 10.981 245.011 10.9762C244.703 10.9714 244.398 10.9051 244.115 10.7812C243.833 10.6572 243.577 10.4781 243.365 10.2544C243.152 10.0306 242.986 9.76668 242.877 9.47802C242.762 9.19159 242.705 8.88511 242.71 8.57649C242.715 8.26787 242.781 7.96333 242.905 7.68065C243.029 7.39797 243.208 7.14283 243.432 6.93016C243.655 6.71748 243.919 6.55154 244.208 6.44203L251.47 3.47703C251.756 3.36221 252.063 3.30562 252.372 3.31061C252.68 3.31559 252.985 3.38203 253.267 3.50604C253.55 3.63005 253.805 3.80914 254.018 4.03286C254.23 4.25659 254.396 4.52046 254.506 4.80903C254.722 5.38892 254.704 6.03039 254.456 6.59726C254.207 7.16412 253.747 7.61173 253.174 7.84503Z" fill="white"/>
<path d="M251.644 7.08657L246.347 9.19006L249.086 16.0871L254.383 13.9836L251.644 7.08657Z" fill="white"/>
<path d="M480.427 271.942L407.118 262.912C405.979 262.773 404.94 262.192 404.226 261.294C403.512 260.396 403.181 259.253 403.303 258.112L411.092 185.384C411.248 184.015 411.853 182.735 412.814 181.747C413.774 180.758 415.035 180.115 416.399 179.919L492.264 169.643C492.93 169.552 493.608 169.615 494.247 169.827C494.885 170.039 495.466 170.394 495.945 170.866C496.425 171.338 496.789 171.913 497.012 172.548C497.234 173.182 497.308 173.859 497.228 174.527L485.967 267.718C485.787 269.011 485.104 270.181 484.065 270.972C483.027 271.763 481.718 272.112 480.423 271.942H480.427Z" fill="#63737A"/>
<path d="M477.945 271.691L404.636 262.582C403.497 262.444 402.458 261.862 401.744 260.964C401.031 260.066 400.699 258.923 400.821 257.782L408.61 185.054C408.766 183.685 409.371 182.405 410.332 181.417C411.292 180.428 412.553 179.785 413.917 179.589L489.787 169.318C490.453 169.227 491.131 169.29 491.769 169.502C492.407 169.714 492.988 170.07 493.468 170.542C493.947 171.013 494.312 171.588 494.534 172.223C494.756 172.857 494.83 173.534 494.75 174.202L483.489 267.393C483.313 268.693 482.634 269.873 481.597 270.677C480.56 271.481 479.248 271.846 477.945 271.693V271.691Z" fill="#1B929E"/>
<path d="M475.212 204.112L417.812 207.012C417.582 207.03 417.352 206.996 417.138 206.913C416.923 206.83 416.73 206.701 416.571 206.534C416.413 206.367 416.295 206.167 416.224 205.948C416.153 205.729 416.132 205.497 416.162 205.269L417.575 192.424C417.615 192.063 417.777 191.727 418.033 191.47C418.29 191.213 418.626 191.052 418.987 191.011L476.887 185.295C477.129 185.271 477.373 185.302 477.6 185.387C477.828 185.471 478.034 185.606 478.202 185.782C478.37 185.957 478.496 186.169 478.569 186.4C478.643 186.631 478.664 186.877 478.629 187.117L476.729 202.853C476.729 203.434 476.069 204.015 475.237 204.094L475.212 204.112Z" fill="white"/>
<path d="M432.464 196.679C432.157 196.678 431.863 196.559 431.643 196.346C431.422 196.134 431.292 195.844 431.28 195.538C431.268 195.232 431.375 194.933 431.578 194.704C431.781 194.474 432.064 194.332 432.37 194.307L470.39 191.245C470.547 191.23 470.705 191.246 470.856 191.293C471.006 191.339 471.146 191.415 471.267 191.516C471.388 191.618 471.487 191.742 471.56 191.882C471.632 192.022 471.676 192.175 471.689 192.332C471.701 192.489 471.683 192.647 471.633 192.797C471.584 192.947 471.506 193.085 471.403 193.205C471.3 193.324 471.174 193.421 471.033 193.491C470.892 193.562 470.738 193.603 470.581 193.613L432.56 196.676C432.528 196.678 432.496 196.679 432.464 196.679Z" fill="#22272E"/>
<path d="M431.975 201.568C431.667 201.567 431.372 201.447 431.152 201.233C430.931 201.019 430.802 200.727 430.792 200.42C430.781 200.113 430.89 199.813 431.096 199.585C431.302 199.357 431.588 199.217 431.895 199.195L452.358 197.795C452.514 197.782 452.671 197.801 452.82 197.85C452.969 197.898 453.106 197.977 453.224 198.08C453.342 198.183 453.439 198.309 453.507 198.449C453.576 198.59 453.615 198.744 453.624 198.9C453.645 199.214 453.542 199.523 453.336 199.761C453.129 199.998 452.837 200.144 452.524 200.166L432.062 201.566L431.975 201.568Z" fill="#22272E"/>
<path d="M425.876 199.506C426.613 198.139 426.295 196.537 425.166 195.928C424.037 195.319 422.524 195.933 421.787 197.3C421.05 198.667 421.367 200.269 422.496 200.878C423.626 201.487 425.139 200.872 425.876 199.506Z" fill="#0F464C"/>
<path d="M471.978 230.368L415.237 229.378C415.017 229.373 414.801 229.323 414.602 229.231C414.403 229.139 414.224 229.008 414.077 228.845C413.93 228.682 413.818 228.491 413.747 228.283C413.676 228.075 413.649 227.855 413.666 227.636L415.079 214.883C415.11 214.491 415.291 214.127 415.583 213.864C415.875 213.601 416.257 213.46 416.65 213.47L473.799 211.649C474.031 211.647 474.261 211.695 474.473 211.788C474.686 211.881 474.876 212.018 475.032 212.19C475.188 212.362 475.305 212.565 475.378 212.785C475.45 213.006 475.474 213.239 475.45 213.47L473.628 229.048C473.542 229.422 473.332 229.756 473.033 229.996C472.733 230.235 472.361 230.367 471.978 230.368Z" fill="#F4C2C9"/>
<path d="M429.905 220.034C429.589 220.036 429.286 219.913 429.062 219.691C428.837 219.47 428.71 219.168 428.708 218.853C428.706 218.538 428.829 218.234 429.05 218.01C429.272 217.786 429.573 217.658 429.889 217.656L467.489 217.168C467.802 217.171 468.101 217.294 468.325 217.513C468.549 217.732 468.679 218.028 468.689 218.341C468.692 218.656 468.57 218.958 468.35 219.183C468.13 219.408 467.83 219.537 467.516 219.541L429.916 220.03L429.905 220.034Z" fill="#22272E"/>
<path d="M449.614 224.84H429.323C429.008 224.84 428.705 224.715 428.482 224.492C428.26 224.269 428.134 223.967 428.134 223.652C428.134 223.336 428.26 223.034 428.482 222.811C428.705 222.588 429.008 222.463 429.323 222.463H449.614C449.929 222.463 450.231 222.588 450.454 222.811C450.677 223.034 450.802 223.336 450.802 223.652C450.802 223.967 450.677 224.269 450.454 224.492C450.231 224.715 449.929 224.84 449.614 224.84Z" fill="#22272E"/>
<path d="M423.432 222.516C424.108 221.118 423.756 219.55 422.647 219.014C421.537 218.478 420.09 219.177 419.414 220.575C418.739 221.973 419.09 223.542 420.2 224.078C421.309 224.614 422.756 223.915 423.432 222.516Z" fill="#0F464C"/>
<path d="M468.836 256.377L412.755 251.572C412.328 251.533 411.933 251.329 411.655 251.004C411.376 250.678 411.236 250.257 411.263 249.829L412.676 237.156C412.714 236.752 412.907 236.379 413.215 236.115C413.523 235.852 413.921 235.718 414.326 235.743L470.816 237.816C471.041 237.825 471.263 237.879 471.466 237.977C471.67 238.075 471.851 238.214 471.998 238.385C472.146 238.556 472.256 238.755 472.323 238.971C472.39 239.187 472.412 239.414 472.387 239.638L470.565 255.044C470.473 255.432 470.249 255.776 469.93 256.017C469.612 256.258 469.22 256.381 468.822 256.364L468.836 256.377Z" fill="#2CD1EA"/>
<path d="M464.44 245.222H464.376L427.264 243.227C427.105 243.222 426.95 243.186 426.806 243.12C426.662 243.055 426.532 242.961 426.425 242.844C426.318 242.728 426.235 242.591 426.181 242.442C426.127 242.293 426.104 242.135 426.113 241.977C426.121 241.818 426.161 241.664 426.23 241.521C426.299 241.379 426.396 241.251 426.515 241.147C426.634 241.042 426.773 240.963 426.923 240.913C427.073 240.862 427.232 240.843 427.39 240.855L464.499 242.848C464.807 242.866 465.096 243.003 465.305 243.23C465.514 243.457 465.626 243.757 465.618 244.065C465.61 244.374 465.482 244.667 465.262 244.883C465.041 245.099 464.745 245.22 464.437 245.222H464.44Z" fill="#22272E"/>
<path d="M446.804 249.368C446.775 249.368 446.747 249.368 446.719 249.368L426.665 247.955C426.353 247.93 426.064 247.783 425.86 247.545C425.656 247.308 425.553 247 425.575 246.687C425.597 246.375 425.742 246.084 425.977 245.878C426.212 245.671 426.52 245.566 426.832 245.585L446.886 246.998C447.191 247.023 447.474 247.164 447.678 247.392C447.881 247.621 447.988 247.919 447.978 248.224C447.967 248.53 447.839 248.819 447.621 249.033C447.402 249.247 447.11 249.368 446.804 249.372V249.368Z" fill="#22272E"/>
</g>
<defs>
<clipPath id="clip0_243_998">
<rect width="497.264" height="413.632" fill="white"/>
</clipPath>
</defs>
</svg>
