<svg width="211" height="44" viewBox="0 0 211 44" fill="none" xmlns="http://www.w3.org/2000/svg">
<path d="M32.5408 19.1701H22.3248C22.096 19.1701 21.9105 19.3556 21.9105 19.5844V23.3859C21.9105 23.6146 22.096 23.8001 22.3248 23.8001H32.5408C32.7696 23.8001 32.955 23.6146 32.955 23.3859V19.5844C32.955 19.3556 32.7696 19.1701 32.5408 19.1701Z" fill="#2CD1EA"/>
<path d="M32.5376 34.6661H11.2803C11.0515 34.6661 10.866 34.8516 10.866 35.0804V38.8819C10.866 39.1107 11.0515 39.2962 11.2803 39.2962H32.5376C32.7663 39.2962 32.9517 39.1107 32.9517 38.8819V35.0804C32.9517 34.8516 32.7663 34.6661 32.5376 34.6661Z" fill="#2CD1EA"/>
<path d="M32.5376 4.63002H11.2803C11.0515 4.63002 10.866 4.8155 10.866 5.04428V8.84578C10.866 9.07456 11.0515 9.26004 11.2803 9.26004H32.5376C32.7663 9.26004 32.9517 9.07456 32.9517 8.84578V5.04428C32.9517 4.8155 32.7663 4.63002 32.5376 4.63002Z" fill="#2CD1EA"/>
<path d="M6.94663 13.8933C10.7831 13.8933 13.8932 10.7831 13.8932 6.94663C13.8932 3.11012 10.7831 0 6.94663 0C3.11012 0 0 3.11012 0 6.94663C0 10.7831 3.11012 13.8933 6.94663 13.8933Z" fill="#6B6B6B"/>
<path d="M16.0314 28.4333C19.8679 28.4333 22.978 25.3232 22.978 21.4867C22.978 17.6502 19.8679 14.5401 16.0314 14.5401C12.1949 14.5401 9.08475 17.6502 9.08475 21.4867C9.08475 25.3232 12.1949 28.4333 16.0314 28.4333Z" fill="#6B6B6B"/>
<path d="M6.94663 43.9294C10.7831 43.9294 13.8932 40.8193 13.8932 36.9828C13.8932 33.1462 10.7831 30.0361 6.94663 30.0361C3.11012 30.0361 0 33.1462 0 36.9828C0 40.8193 3.11012 43.9294 6.94663 43.9294Z" fill="#6B6B6B"/>
<path fill-rule="evenodd" clip-rule="evenodd" d="M16.0314 16.2927C16.4713 16.2927 16.828 16.6493 16.828 17.0893V21.4867C16.828 21.9267 16.4713 22.2833 16.0314 22.2833C15.5914 22.2833 15.2347 21.9267 15.2347 21.4867V17.0893C15.2347 16.6493 15.5914 16.2927 16.0314 16.2927Z" fill="white"/>
<path fill-rule="evenodd" clip-rule="evenodd" d="M15.2347 21.4867C15.2347 21.0467 15.5914 20.6901 16.0314 20.6901H20.4287C20.8687 20.6901 21.2254 21.0467 21.2254 21.4867C21.2254 21.9267 20.8687 22.2833 20.4287 22.2833H16.0314C15.5914 22.2833 15.2347 21.9267 15.2347 21.4867Z" fill="white"/>
<path d="M52.8006 33.5732C51.8956 33.5732 51.201 33.3215 50.7198 32.818C50.2386 32.3145 49.9964 31.623 49.9964 30.7372V16.5253H45.2581C44.5125 16.5253 43.9453 16.3246 43.5533 15.9231C43.1614 15.5216 42.9639 14.9575 42.9639 14.2342C42.9639 13.5109 43.1614 12.9564 43.5533 12.574C43.9453 12.1916 44.5125 12.0004 45.2581 12.0004H60.2857C61.0505 12.0004 61.6241 12.1916 62.0065 12.574C62.3889 12.9564 62.5801 13.5109 62.5801 14.2342C62.5801 14.9575 62.3889 15.547 62.0065 15.939C61.6241 16.3309 61.0505 16.5285 60.2857 16.5285H55.5474V30.7404C55.5474 31.6262 55.3148 32.3209 54.8528 32.8211C54.3907 33.3246 53.7056 33.5763 52.8006 33.5763V33.5732Z" fill="#6B6B6B"/>
<path d="M66.8308 33.6337C65.6837 33.6337 64.6672 33.417 63.7845 32.9837C62.8987 32.5503 62.2104 31.9672 61.7165 31.2343C61.2226 30.5014 60.9772 29.6601 60.9772 28.7138C60.9772 27.6271 61.2576 26.7731 61.8216 26.1486C62.3857 25.524 63.2938 25.0779 64.5525 24.8071C65.808 24.5362 67.4745 24.3992 69.5458 24.3992H71.2059V26.9038H69.5458C68.7619 26.9038 68.1182 26.9643 67.6147 27.0854C67.1112 27.2065 66.7384 27.3786 66.4994 27.5985C66.2573 27.8215 66.1362 28.121 66.1362 28.5034C66.1362 28.9655 66.2955 29.3479 66.6174 29.6506C66.9392 29.9533 67.4204 30.1031 68.0673 30.1031C68.5484 30.1031 68.9881 29.9915 69.3801 29.7717C69.772 29.5518 70.0906 29.2427 70.3296 28.8508C70.5718 28.4588 70.6929 28 70.6929 27.4774V23.9754C70.6929 23.2329 70.5081 22.7135 70.1353 22.4204C69.7625 22.1304 69.1347 21.9838 68.2488 21.9838C67.7454 21.9838 67.1973 22.038 66.6046 22.1495C66.0119 22.261 65.3332 22.4554 64.5685 22.739C64.0268 22.9398 63.5583 22.9716 63.1663 22.8282C62.7744 22.688 62.4812 22.4522 62.2901 22.1176C62.0989 21.7862 62.0033 21.4198 62.0033 21.0151C62.0033 20.6104 62.1276 20.2216 62.3793 19.8393C62.631 19.4569 63.0166 19.1765 63.5423 18.9949C64.5078 18.6539 65.4033 18.4117 66.2286 18.2715C67.0539 18.1313 67.7964 18.0612 68.4624 18.0612C70.113 18.0612 71.4736 18.3034 72.5506 18.7845C73.6277 19.2657 74.4307 19.9954 74.966 20.9737C75.4982 21.9488 75.7659 23.2011 75.7659 24.7306V30.8551C75.7659 31.7218 75.5492 32.391 75.1158 32.8626C74.6824 33.3342 74.0738 33.5732 73.2899 33.5732C72.4646 33.5732 71.8369 33.3374 71.4035 32.8626C70.9702 32.391 70.7535 31.7218 70.7535 30.8551V30.0393L70.9351 30.4631C70.8332 31.0877 70.6037 31.6358 70.2404 32.1074C69.8771 32.579 69.4055 32.9518 68.8224 33.2226C68.2393 33.4935 67.5733 33.6305 66.8308 33.6305V33.6337Z" fill="#6B6B6B"/>
<path d="M84.755 33.6337C83.85 33.6337 82.9387 33.5636 82.0241 33.4234C81.1096 33.2832 80.2684 33.0506 79.5036 32.7288C79.0193 32.528 78.6751 32.2508 78.4616 31.9003C78.2513 31.5498 78.1494 31.1801 78.1589 30.7977C78.1685 30.4153 78.28 30.068 78.4904 29.7557C78.7007 29.4434 78.9842 29.2236 79.3347 29.0929C79.6853 28.9623 80.0836 28.9782 80.5265 29.1375C81.3709 29.4594 82.1294 29.6792 82.8049 29.8003C83.4773 29.9214 84.1273 29.982 84.7518 29.982C85.4943 29.982 86.0296 29.8768 86.3515 29.6665C86.6733 29.4562 86.8326 29.1789 86.8326 28.838C86.8326 28.5353 86.7275 28.3059 86.5172 28.1434C86.3069 27.984 86.0105 27.8725 85.6281 27.8119L82.2791 27.2989C81.03 27.079 80.0645 26.6138 79.3826 25.9096C78.6975 25.2054 78.3565 24.2813 78.3565 23.1342C78.3565 22.1081 78.6528 21.2191 79.2455 20.4638C79.8382 19.7086 80.654 19.1223 81.6896 18.6985C82.7252 18.2747 83.917 18.0644 85.2649 18.0644C86.1699 18.0644 86.9952 18.1345 87.7408 18.2747C88.4833 18.4149 89.2193 18.6475 89.9427 18.9694C90.3665 19.1701 90.666 19.441 90.8477 19.7851C91.0293 20.1261 91.0994 20.483 91.058 20.8558C91.0165 21.2286 90.8859 21.5696 90.666 21.8818C90.443 22.1941 90.153 22.4108 89.7897 22.5319C89.4265 22.653 89.025 22.6211 88.582 22.4427C87.9192 22.1814 87.3233 21.9902 86.8007 21.8691C86.2781 21.748 85.7939 21.6875 85.3541 21.6875C84.5097 21.6875 83.9202 21.799 83.5888 22.0189C83.2574 22.2419 83.0917 22.5319 83.0917 22.8952C83.0917 23.1373 83.1872 23.3476 83.3784 23.5293C83.5696 23.7109 83.8469 23.832 84.2069 23.8925L87.556 24.4374C88.8625 24.6605 89.8598 25.1002 90.5449 25.7662C91.23 26.429 91.571 27.334 91.571 28.4811C91.571 30.1094 90.9464 31.3777 89.7005 32.2826C88.4514 33.1876 86.8039 33.6401 84.7518 33.6401L84.755 33.6337Z" fill="#6B6B6B"/>
<path d="M96.4655 33.5732C95.5796 33.5732 94.9104 33.3374 94.4579 32.8626C94.0055 32.391 93.7793 31.7218 93.7793 30.8551V14.4095C93.7793 13.5459 94.0055 12.8767 94.4579 12.4019C94.9104 11.9303 95.5796 11.6914 96.4655 11.6914C97.3513 11.6914 97.9695 11.9271 98.4411 12.4019C98.9127 12.8735 99.1517 13.5427 99.1517 14.4095V24.3673H99.2123L102.893 19.9317C103.396 19.3294 103.865 18.8769 104.295 18.5742C104.728 18.2715 105.314 18.1217 106.06 18.1217C106.806 18.1217 107.376 18.3065 107.781 18.6794C108.182 19.0522 108.393 19.5079 108.415 20.0528C108.434 20.5945 108.224 21.1489 107.781 21.7129L103.798 26.4194V24.5171L108.233 30.1285C108.676 30.6926 108.858 31.2407 108.775 31.7728C108.695 32.3049 108.437 32.7383 108.004 33.0697C107.57 33.4011 107.022 33.5668 106.36 33.5668C105.553 33.5668 104.913 33.4202 104.429 33.1303C103.947 32.8371 103.473 32.3719 103.011 31.7282L99.2091 27.0823H99.1485V30.8551C99.1485 32.665 98.2531 33.57 96.4623 33.57L96.4655 33.5732Z" fill="#6B6B6B"/>
<path d="M119.278 33.6337C117.649 33.6337 116.231 33.3756 115.024 32.8626C113.816 32.3495 112.886 31.6294 112.232 30.7053C111.579 29.7812 111.251 28.7042 111.251 27.4774C111.251 26.7732 111.347 26.1295 111.538 25.5463C111.729 24.9632 112.009 24.431 112.382 23.9467C112.755 23.4655 113.192 23.0162 113.695 22.6052C114.198 22.1941 114.762 21.8245 115.384 21.5027L116.499 20.9609L115.683 21.987C114.899 21.2828 114.31 20.518 113.918 19.6927C113.526 18.8674 113.328 18.0325 113.328 17.1881C113.328 16.1015 113.599 15.136 114.144 14.2916C114.689 13.4471 115.46 12.7939 116.467 12.3287C117.474 11.8666 118.65 11.634 119.998 11.634C121.808 11.634 123.235 12.096 124.284 13.0233C125.329 13.9474 125.852 15.187 125.852 16.7356C125.852 17.5195 125.695 18.2747 125.383 18.998C125.071 19.7214 124.602 20.3778 123.981 20.9609C123.357 21.5441 122.563 22.0667 121.598 22.5287V21.474L126.094 25.9096H124.978C125.221 25.5272 125.431 25.1257 125.613 24.7019C125.794 24.2781 125.944 23.832 126.065 23.3604C126.186 22.8888 126.298 22.4204 126.396 21.9583C126.556 21.2541 126.82 20.7251 127.18 20.3746C127.544 20.0241 128.057 19.8456 128.719 19.8456C129.462 19.8456 130.026 20.056 130.408 20.4798C130.791 20.9036 130.912 21.4771 130.772 22.2005C130.65 23.064 130.459 23.8957 130.198 24.6892C129.937 25.4858 129.628 26.2283 129.277 26.9229C128.923 27.6176 128.519 28.2549 128.057 28.838L128.028 27.6622L130.593 30.1063C131.157 30.6097 131.444 31.1323 131.453 31.674C131.463 32.2189 131.262 32.6714 130.851 33.0315C130.44 33.3947 129.87 33.5763 129.146 33.5763C128.503 33.5763 127.983 33.4457 127.591 33.1844C127.199 32.9231 126.763 32.5726 126.279 32.1297L125.042 30.922H126.218C125.253 31.7473 124.175 32.4069 122.99 32.8977C121.801 33.3916 120.565 33.6369 119.278 33.6369V33.6337ZM119.641 29.5295C120.364 29.5295 121.024 29.3924 121.617 29.1216C122.209 28.8507 122.78 28.462 123.321 27.9585L123.172 29.1662L117.197 23.4337L119.491 23.4942L118.675 23.918C118.213 24.1411 117.825 24.4056 117.512 24.7178C117.2 25.0301 116.964 25.3806 116.802 25.7726C116.639 26.1645 116.56 26.6011 116.56 27.0854C116.56 27.8311 116.831 28.4238 117.375 28.8667C117.92 29.3096 118.672 29.5295 119.638 29.5295H119.641ZM120.004 15.1647C119.44 15.1647 118.994 15.3367 118.663 15.6777C118.331 16.0186 118.166 16.4839 118.166 17.067C118.166 17.3697 118.22 17.6597 118.331 17.9433C118.443 18.2237 118.634 18.5264 118.905 18.8483C119.176 19.1701 119.523 19.5334 119.947 19.9349L118.832 19.9062C119.536 19.5844 120.1 19.2785 120.52 18.9853C120.944 18.6953 121.25 18.3767 121.441 18.0357C121.633 17.6948 121.728 17.3124 121.728 16.8885C121.728 16.3245 121.572 15.8976 121.26 15.6044C120.948 15.3144 120.53 15.1679 120.008 15.1679L120.004 15.1647Z" fill="#6B6B6B"/>
<path d="M137.565 33.5732C136.66 33.5732 135.966 33.3215 135.484 32.818C135 32.3145 134.761 31.623 134.761 30.7372V14.8333C134.761 13.9092 135.006 13.2049 135.5 12.7206C135.994 12.2394 136.692 11.9972 137.597 11.9972H145.022C147.415 11.9972 149.266 12.6155 150.573 13.8518C151.879 15.0882 152.535 16.793 152.535 18.9662C152.535 21.1394 151.882 22.8442 150.573 24.0805C149.266 25.3169 147.415 25.9351 145.022 25.9351H140.315V30.734C140.315 31.6198 140.079 32.3145 139.605 32.8148C139.133 33.3183 138.454 33.57 137.568 33.57L137.565 33.5732ZM140.312 21.6843H144.024C145.092 21.6843 145.895 21.458 146.44 21.0055C146.981 20.5531 147.255 19.8743 147.255 18.9693C147.255 18.0644 146.985 17.3856 146.44 16.9332C145.895 16.4807 145.092 16.2544 144.024 16.2544H140.312V21.6875V21.6843Z" fill="#2CD1EA"/>
<path d="M161.464 33.6337C159.813 33.6337 158.376 33.3215 157.15 32.6969C155.923 32.0723 154.967 31.1737 154.282 29.9947C153.597 28.8189 153.256 27.436 153.256 25.8459C153.256 24.6382 153.447 23.5579 153.829 22.602C154.212 21.646 154.766 20.8271 155.489 20.142C156.213 19.4569 157.079 18.9407 158.083 18.587C159.09 18.2365 160.215 18.058 161.464 18.058C163.115 18.058 164.552 18.3703 165.779 18.9949C167.005 19.6194 167.955 20.5148 168.631 21.6811C169.303 22.8473 169.641 24.2367 169.641 25.8459C169.641 27.0536 169.45 28.1306 169.067 29.0738C168.685 30.0202 168.13 30.8392 167.407 31.5338C166.684 32.2285 165.817 32.751 164.813 33.1016C163.806 33.4521 162.691 33.6305 161.464 33.6305V33.6337ZM161.464 29.6187C162.006 29.6187 162.484 29.4944 162.898 29.2427C163.309 28.991 163.637 28.5831 163.879 28.0223C164.122 27.4582 164.243 26.7349 164.243 25.849C164.243 24.5011 163.981 23.5293 163.459 22.9366C162.936 22.3439 162.27 22.0475 161.467 22.0475C160.922 22.0475 160.441 22.1782 160.017 22.4395C159.594 22.7008 159.262 23.1086 159.023 23.6599C158.781 24.2144 158.66 24.9409 158.66 25.849C158.66 27.1778 158.921 28.137 159.444 28.7297C159.966 29.3224 160.639 29.6187 161.464 29.6187Z" fill="#2CD1EA"/>
<path d="M174.8 16.0123C173.834 16.0123 173.089 15.7924 172.566 15.3495C172.043 14.9065 171.782 14.2724 171.782 13.4471C171.782 12.6218 172.043 11.959 172.566 11.5161C173.089 11.0732 173.834 10.8533 174.8 10.8533C175.765 10.8533 176.479 11.0763 177.002 11.5161C177.524 11.959 177.785 12.6027 177.785 13.4471C177.785 14.2916 177.524 14.9065 177.002 15.3495C176.479 15.7924 175.743 16.0123 174.8 16.0123ZM174.8 33.5158C173.914 33.5158 173.245 33.2705 172.792 32.7766C172.34 32.2827 172.113 31.5657 172.113 30.6193V21.0534C172.113 20.107 172.34 19.39 172.792 18.8961C173.245 18.4022 173.914 18.1568 174.8 18.1568C175.686 18.1568 176.304 18.4022 176.775 18.8961C177.247 19.39 177.486 20.107 177.486 21.0534V30.6193C177.486 31.5657 177.253 32.2858 176.791 32.7766C176.329 33.2705 175.663 33.5158 174.8 33.5158Z" fill="#2CD1EA"/>
<path d="M183.279 33.5732C182.393 33.5732 181.724 33.3374 181.272 32.8626C180.819 32.391 180.593 31.7218 180.593 30.8551V20.8366C180.593 19.9731 180.819 19.304 181.272 18.8292C181.724 18.3576 182.374 18.1217 183.218 18.1217C184.063 18.1217 184.681 18.3576 185.134 18.8292C185.586 19.3008 185.812 19.9699 185.812 20.8366V22.2547L185.481 21.0183C185.965 20.0719 186.654 19.3422 187.549 18.8292C188.444 18.3161 189.464 18.0612 190.611 18.0612C191.758 18.0612 192.775 18.297 193.54 18.7686C194.304 19.2402 194.878 19.9444 195.26 20.8813C195.643 21.8181 195.834 23.0194 195.834 24.4884V30.8551C195.834 31.7218 195.601 32.391 195.139 32.8626C194.677 33.3342 194.011 33.5732 193.148 33.5732C192.284 33.5732 191.618 33.3374 191.156 32.8626C190.694 32.391 190.461 31.7218 190.461 30.8551V24.6987C190.461 23.8129 190.305 23.1755 189.993 22.7836C189.681 22.3917 189.222 22.1941 188.62 22.1941C187.813 22.1941 187.173 22.449 186.689 22.9653C186.207 23.4783 185.965 24.1666 185.965 25.0333V30.8583C185.965 32.6682 185.07 33.5732 183.279 33.5732Z" fill="#2CD1EA"/>
<path d="M206.668 33.6337C205.18 33.6337 203.94 33.3979 202.956 32.9231C201.971 32.4515 201.235 31.7473 200.754 30.8105C200.273 29.8736 200.03 28.7042 200.03 27.2957V22.3758H199.033C198.389 22.3758 197.883 22.2037 197.51 21.8627C197.137 21.5218 196.952 21.0374 196.952 20.4129C196.952 19.7501 197.137 19.2498 197.51 18.9184C197.883 18.587 198.389 18.4213 199.033 18.4213H200.03V16.5189C200.03 15.6554 200.26 14.9862 200.725 14.5114C201.187 14.0398 201.853 13.8008 202.717 13.8008C203.58 13.8008 204.246 14.0366 204.708 14.5114C205.17 14.983 205.403 15.6522 205.403 16.5189V18.4213H207.879C208.523 18.4213 209.026 18.587 209.386 18.9184C209.749 19.2498 209.931 19.7469 209.931 20.4129C209.931 21.0374 209.749 21.5186 209.386 21.8627C209.023 22.2037 208.523 22.3758 207.879 22.3758H205.403V27.1141C205.403 27.8598 205.575 28.4078 205.916 28.7583C206.257 29.1089 206.811 29.2873 207.576 29.2873C207.879 29.2873 208.159 29.2586 208.421 29.1981C208.682 29.1375 208.924 29.0961 209.144 29.077C209.466 29.077 209.733 29.1822 209.944 29.3925C210.154 29.6028 210.259 30.0808 210.259 30.8264C210.259 31.4287 210.164 31.9385 209.972 32.3495C209.781 32.7606 209.453 33.0602 208.991 33.2386C208.688 33.3597 208.303 33.4553 207.828 33.5254C207.356 33.5955 206.968 33.6305 206.665 33.6305L206.668 33.6337Z" fill="#2CD1EA"/>
</svg>
