<svg width="774" height="437" viewBox="0 0 774 437" fill="none" xmlns="http://www.w3.org/2000/svg">
<path d="M145.12 60.16H113.06C112.342 60.16 111.76 60.7421 111.76 61.4601V73.39C111.76 74.108 112.342 74.6901 113.06 74.6901H145.12C145.838 74.6901 146.42 74.108 146.42 73.39V61.4601C146.42 60.7421 145.838 60.16 145.12 60.16Z" fill="#2CD1EA"/>
<path d="M145.11 108.79H78.4C77.6821 108.79 77.1 109.372 77.1 110.09V122.02C77.1 122.738 77.6821 123.32 78.4 123.32H145.11C145.828 123.32 146.41 122.738 146.41 122.02V110.09C146.41 109.372 145.828 108.79 145.11 108.79Z" fill="#2CD1EA"/>
<path d="M145.11 14.53H78.4C77.6821 14.53 77.1 15.1121 77.1 15.8301V27.76C77.1 28.478 77.6821 29.0601 78.4 29.0601H145.11C145.828 29.0601 146.41 28.478 146.41 27.76V15.8301C146.41 15.1121 145.828 14.53 145.11 14.53Z" fill="#2CD1EA"/>
<path d="M64.8 43.6001C76.8399 43.6001 86.6 33.8399 86.6 21.8C86.6 9.76024 76.8399 0 64.8 0C52.7602 0 43 9.76024 43 21.8C43 33.8399 52.7602 43.6001 64.8 43.6001Z" fill="#6B6B6B"/>
<path d="M93.3101 89.2301C105.35 89.2301 115.11 79.4699 115.11 67.4301C115.11 55.3902 105.35 45.63 93.3101 45.63C81.2703 45.63 71.51 55.3902 71.51 67.4301C71.51 79.4699 81.2703 89.2301 93.3101 89.2301Z" fill="#6B6B6B"/>
<path d="M64.8 137.86C76.8399 137.86 86.6 128.1 86.6 116.06C86.6 104.02 76.8399 94.26 64.8 94.26C52.7602 94.26 43 104.02 43 116.06C43 128.1 52.7602 137.86 64.8 137.86Z" fill="#6B6B6B"/>
<path fill-rule="evenodd" clip-rule="evenodd" d="M93.3101 51.13C94.6908 51.13 95.8101 52.2493 95.8101 53.63V67.4301C95.8101 68.8108 94.6908 69.9301 93.3101 69.9301C91.9293 69.9301 90.8101 68.8108 90.8101 67.4301V53.63C90.8101 52.2493 91.9293 51.13 93.3101 51.13Z" fill="white"/>
<path fill-rule="evenodd" clip-rule="evenodd" d="M90.8101 67.4301C90.8101 66.0493 91.9293 64.9301 93.3101 64.9301H107.11C108.491 64.9301 109.61 66.0493 109.61 67.4301C109.61 68.8108 108.491 69.9301 107.11 69.9301H93.3101C91.9293 69.9301 90.8101 68.8108 90.8101 67.4301Z" fill="white"/>
<path d="M208.7 105.36C205.86 105.36 203.68 104.57 202.17 102.99C200.66 101.41 199.9 99.2401 199.9 96.4601V51.8601H185.03C182.69 51.8601 180.91 51.2301 179.68 49.9701C178.45 48.7101 177.83 46.94 177.83 44.67C177.83 42.4 178.45 40.6601 179.68 39.4601C180.91 38.2601 182.69 37.66 185.03 37.66H232.19C234.59 37.66 236.39 38.2601 237.59 39.4601C238.79 40.6601 239.39 42.4 239.39 44.67C239.39 46.94 238.79 48.79 237.59 50.02C236.39 51.25 234.59 51.87 232.19 51.87H217.32V96.4701C217.32 99.2501 216.59 101.43 215.14 103C213.69 104.58 211.54 105.37 208.7 105.37V105.36Z" fill="#6B6B6B"/>
<path d="M252.73 105.55C249.13 105.55 245.94 104.87 243.17 103.51C240.39 102.15 238.23 100.32 236.68 98.02C235.13 95.72 234.36 93.0801 234.36 90.1101C234.36 86.7001 235.24 84.0201 237.01 82.0601C238.78 80.1001 241.63 78.7001 245.58 77.8501C249.52 77.0001 254.75 76.5701 261.25 76.5701H266.46V84.4301H261.25C258.79 84.4301 256.77 84.62 255.19 85C253.61 85.38 252.44 85.9201 251.69 86.6101C250.93 87.3101 250.55 88.2501 250.55 89.4501C250.55 90.9001 251.05 92.1 252.06 93.05C253.07 94 254.58 94.4701 256.61 94.4701C258.12 94.4701 259.5 94.1201 260.73 93.4301C261.96 92.7401 262.96 91.77 263.71 90.54C264.47 89.31 264.85 87.8701 264.85 86.2301V75.2401C264.85 72.9101 264.27 71.2801 263.1 70.3601C261.93 69.4501 259.96 68.9901 257.18 68.9901C255.6 68.9901 253.88 69.16 252.02 69.51C250.16 69.86 248.03 70.4701 245.63 71.3601C243.93 71.9901 242.46 72.09 241.23 71.64C240 71.2 239.08 70.46 238.48 69.41C237.88 68.37 237.58 67.2201 237.58 65.9501C237.58 64.6801 237.97 63.46 238.76 62.26C239.55 61.06 240.76 60.1801 242.41 59.6101C245.44 58.5401 248.25 57.7801 250.84 57.3401C253.43 56.9001 255.76 56.6801 257.85 56.6801C263.03 56.6801 267.3 57.4401 270.68 58.9501C274.06 60.4601 276.58 62.7501 278.26 65.8201C279.93 68.8801 280.77 72.8101 280.77 77.6101V96.8301C280.77 99.5501 280.09 101.65 278.73 103.13C277.37 104.61 275.46 105.36 273 105.36C270.41 105.36 268.44 104.62 267.08 103.13C265.72 101.65 265.04 99.5501 265.04 96.8301V94.27L265.61 95.6001C265.29 97.5601 264.57 99.28 263.43 100.76C262.29 102.24 260.81 103.41 258.98 104.26C257.15 105.11 255.06 105.54 252.73 105.54V105.55Z" fill="#6B6B6B"/>
<path d="M308.98 105.55C306.14 105.55 303.28 105.33 300.41 104.89C297.54 104.45 294.9 103.72 292.5 102.71C290.98 102.08 289.9 101.21 289.23 100.11C288.57 99.0101 288.25 97.85 288.28 96.65C288.31 95.45 288.66 94.36 289.32 93.38C289.98 92.4 290.87 91.71 291.97 91.3C293.07 90.89 294.32 90.9401 295.71 91.4401C298.36 92.4501 300.74 93.14 302.86 93.52C304.97 93.9 307.01 94.0901 308.97 94.0901C311.3 94.0901 312.98 93.7601 313.99 93.1001C315 92.4401 315.5 91.57 315.5 90.5C315.5 89.55 315.17 88.8301 314.51 88.3201C313.85 87.8201 312.92 87.47 311.72 87.28L301.21 85.67C297.29 84.98 294.26 83.5201 292.12 81.3101C289.97 79.1001 288.9 76.2001 288.9 72.6001C288.9 69.3801 289.83 66.5901 291.69 64.2201C293.55 61.8501 296.11 60.0101 299.36 58.6801C302.61 57.3501 306.35 56.6901 310.58 56.6901C313.42 56.6901 316.01 56.9101 318.35 57.3501C320.68 57.7901 322.99 58.52 325.26 59.53C326.59 60.16 327.53 61.0101 328.1 62.0901C328.67 63.1601 328.89 64.2801 328.76 65.4501C328.63 66.6201 328.22 67.69 327.53 68.67C326.83 69.65 325.92 70.3301 324.78 70.7101C323.64 71.0901 322.38 70.9901 320.99 70.4301C318.91 69.6101 317.04 69.01 315.4 68.63C313.76 68.25 312.24 68.0601 310.86 68.0601C308.21 68.0601 306.36 68.4101 305.32 69.1001C304.28 69.8001 303.76 70.7101 303.76 71.8501C303.76 72.6101 304.06 73.2701 304.66 73.8401C305.26 74.4101 306.13 74.7901 307.26 74.9801L317.77 76.6901C321.87 77.3901 325 78.7701 327.15 80.8601C329.3 82.9401 330.37 85.78 330.37 89.38C330.37 94.49 328.41 98.4701 324.5 101.31C320.58 104.15 315.41 105.57 308.97 105.57L308.98 105.55Z" fill="#6B6B6B"/>
<path d="M345.73 105.36C342.95 105.36 340.85 104.62 339.43 103.13C338.01 101.65 337.3 99.5501 337.3 96.8301V45.2201C337.3 42.5101 338.01 40.41 339.43 38.92C340.85 37.44 342.95 36.6901 345.73 36.6901C348.51 36.6901 350.45 37.43 351.93 38.92C353.41 40.4 354.16 42.5001 354.16 45.2201V76.4701H354.35L365.9 62.55C367.48 60.66 368.95 59.24 370.3 58.29C371.66 57.34 373.5 56.87 375.84 56.87C378.18 56.87 379.97 57.45 381.24 58.62C382.5 59.79 383.16 61.2201 383.23 62.9301C383.29 64.6301 382.63 66.37 381.24 68.14L368.74 82.91V76.9401L382.66 94.55C384.05 96.32 384.62 98.0401 384.36 99.7101C384.11 101.38 383.3 102.74 381.94 103.78C380.58 104.82 378.86 105.34 376.78 105.34C374.25 105.34 372.24 104.88 370.72 103.97C369.21 103.05 367.72 101.59 366.27 99.5701L354.34 84.9901H354.15V96.8301C354.15 102.51 351.34 105.35 345.72 105.35L345.73 105.36Z" fill="#6B6B6B"/>
<path d="M417.32 105.55C412.21 105.55 407.76 104.74 403.97 103.13C400.18 101.52 397.26 99.2601 395.21 96.3601C393.16 93.4601 392.13 90.0801 392.13 86.2301C392.13 84.0201 392.43 82 393.03 80.17C393.63 78.34 394.51 76.67 395.68 75.15C396.85 73.64 398.22 72.2301 399.8 70.9401C401.38 69.6501 403.15 68.4901 405.1 67.4801L408.6 65.78L406.04 69C403.58 66.79 401.73 64.39 400.5 61.8C399.27 59.21 398.65 56.5901 398.65 53.9401C398.65 50.5301 399.5 47.5001 401.21 44.8501C402.92 42.2001 405.34 40.1501 408.5 38.6901C411.66 37.2401 415.35 36.51 419.58 36.51C425.26 36.51 429.74 37.96 433.03 40.87C436.31 43.77 437.95 47.66 437.95 52.52C437.95 54.98 437.46 57.35 436.48 59.62C435.5 61.89 434.03 63.95 432.08 65.78C430.12 67.61 427.63 69.2501 424.6 70.7001V67.39L438.71 81.3101H435.21C435.97 80.1101 436.63 78.85 437.2 77.52C437.77 76.19 438.24 74.7901 438.62 73.3101C439 71.8301 439.35 70.36 439.66 68.91C440.16 66.7 440.99 65.0401 442.12 63.9401C443.26 62.8401 444.87 62.28 446.95 62.28C449.28 62.28 451.05 62.94 452.25 64.27C453.45 65.6 453.83 67.4 453.39 69.67C453.01 72.38 452.41 74.9901 451.59 77.4801C450.77 79.9801 449.8 82.3101 448.7 84.4901C447.59 86.6701 446.32 88.67 444.87 90.5L444.78 86.8101L452.83 94.4801C454.6 96.0601 455.5 97.7 455.53 99.4C455.56 101.11 454.93 102.53 453.64 103.66C452.35 104.8 450.56 105.37 448.29 105.37C446.27 105.37 444.64 104.96 443.41 104.14C442.18 103.32 440.81 102.22 439.29 100.83L435.41 97.04H439.1C436.07 99.63 432.69 101.7 428.97 103.24C425.24 104.79 421.36 105.56 417.32 105.56V105.55ZM418.46 92.67C420.73 92.67 422.8 92.24 424.66 91.39C426.52 90.54 428.31 89.3201 430.01 87.7401L429.54 91.53L410.79 73.54L417.99 73.7301L415.43 75.0601C413.98 75.7601 412.76 76.5901 411.78 77.5701C410.8 78.5501 410.06 79.65 409.55 80.88C409.04 82.11 408.79 83.48 408.79 85C408.79 87.34 409.64 89.2001 411.35 90.5901C413.06 91.9801 415.42 92.67 418.45 92.67H418.46ZM419.6 47.5901C417.83 47.5901 416.43 48.1301 415.39 49.2001C414.35 50.2701 413.83 51.7301 413.83 53.5601C413.83 54.5101 414 55.4201 414.35 56.3101C414.7 57.1901 415.3 58.14 416.15 59.15C417 60.16 418.09 61.3001 419.42 62.5601L415.92 62.4701C418.13 61.4601 419.9 60.5001 421.22 59.5801C422.55 58.6701 423.51 57.6701 424.11 56.6001C424.71 55.5301 425.01 54.33 425.01 53C425.01 51.23 424.52 49.8901 423.54 48.9701C422.56 48.0601 421.25 47.6001 419.61 47.6001L419.6 47.5901Z" fill="#6B6B6B"/>
<path d="M474.71 105.36C471.87 105.36 469.69 104.57 468.18 102.99C466.66 101.41 465.91 99.2401 465.91 96.4601V46.55C465.91 43.65 466.68 41.44 468.23 39.92C469.78 38.41 471.97 37.65 474.81 37.65H498.11C505.62 37.65 511.43 39.5901 515.53 43.4701C519.63 47.3501 521.69 52.7 521.69 59.52C521.69 66.34 519.64 71.6901 515.53 75.5701C511.43 79.4501 505.62 81.39 498.11 81.39H483.34V96.4501C483.34 99.2301 482.6 101.41 481.11 102.98C479.63 104.56 477.5 105.35 474.72 105.35L474.71 105.36ZM483.33 68.05H494.98C498.33 68.05 500.85 67.34 502.56 65.92C504.26 64.5 505.12 62.37 505.12 59.53C505.12 56.69 504.27 54.56 502.56 53.14C500.85 51.72 498.33 51.01 494.98 51.01H483.33V68.0601V68.05Z" fill="#2CD1EA"/>
<path d="M549.71 105.55C544.53 105.55 540.02 104.57 536.17 102.61C532.32 100.65 529.32 97.83 527.17 94.13C525.02 90.44 523.95 86.1001 523.95 81.1101C523.95 77.3201 524.55 73.9301 525.75 70.9301C526.95 67.9301 528.69 65.3601 530.96 63.2101C533.23 61.0601 535.95 59.4401 539.1 58.3301C542.26 57.2301 545.79 56.67 549.71 56.67C554.89 56.67 559.4 57.6501 563.25 59.6101C567.1 61.5701 570.08 64.38 572.2 68.04C574.31 71.7 575.37 76.0601 575.37 81.1101C575.37 84.9001 574.77 88.2801 573.57 91.2401C572.37 94.2101 570.63 96.7801 568.36 98.9601C566.09 101.14 563.37 102.78 560.22 103.88C557.06 104.98 553.56 105.54 549.71 105.54V105.55ZM549.71 92.9501C551.41 92.9501 552.91 92.56 554.21 91.77C555.5 90.98 556.53 89.7001 557.29 87.9401C558.05 86.1701 558.43 83.9 558.43 81.12C558.43 76.89 557.61 73.8401 555.97 71.9801C554.33 70.1201 552.24 69.1901 549.72 69.1901C548.01 69.1901 546.5 69.6 545.17 70.42C543.84 71.24 542.8 72.52 542.05 74.25C541.29 75.99 540.91 78.27 540.91 81.12C540.91 85.29 541.73 88.3 543.37 90.16C545.01 92.02 547.12 92.9501 549.71 92.9501Z" fill="#2CD1EA"/>
<path d="M591.56 50.25C588.53 50.25 586.19 49.56 584.55 48.17C582.91 46.78 582.09 44.7901 582.09 42.2001C582.09 39.6101 582.91 37.53 584.55 36.14C586.19 34.75 588.53 34.0601 591.56 34.0601C594.59 34.0601 596.83 34.76 598.47 36.14C600.11 37.53 600.93 39.5501 600.93 42.2001C600.93 44.8501 600.11 46.78 598.47 48.17C596.83 49.56 594.52 50.25 591.56 50.25ZM591.56 105.18C588.78 105.18 586.68 104.41 585.26 102.86C583.84 101.31 583.13 99.0601 583.13 96.0901V66.0701C583.13 63.1001 583.84 60.85 585.26 59.3C586.68 57.75 588.78 56.9801 591.56 56.9801C594.34 56.9801 596.28 57.75 597.76 59.3C599.24 60.85 599.99 63.1001 599.99 66.0701V96.0901C599.99 99.0601 599.26 101.32 597.81 102.86C596.36 104.41 594.27 105.18 591.56 105.18Z" fill="#2CD1EA"/>
<path d="M618.17 105.36C615.39 105.36 613.29 104.62 611.87 103.13C610.45 101.65 609.74 99.5501 609.74 96.8301V65.39C609.74 62.68 610.45 60.5801 611.87 59.0901C613.29 57.6101 615.33 56.87 617.98 56.87C620.63 56.87 622.57 57.6101 623.99 59.0901C625.41 60.5701 626.12 62.67 626.12 65.39V69.8401L625.08 65.9601C626.6 62.9901 628.76 60.7001 631.57 59.0901C634.38 57.4801 637.58 56.6801 641.18 56.6801C644.78 56.6801 647.97 57.42 650.37 58.9C652.77 60.38 654.57 62.59 655.77 65.53C656.97 68.47 657.57 72.2401 657.57 76.8501V96.8301C657.57 99.5501 656.84 101.65 655.39 103.13C653.94 104.61 651.85 105.36 649.14 105.36C646.43 105.36 644.34 104.62 642.89 103.13C641.44 101.65 640.71 99.5501 640.71 96.8301V77.51C640.71 74.73 640.22 72.73 639.24 71.5C638.26 70.27 636.82 69.65 634.93 69.65C632.4 69.65 630.39 70.4501 628.87 72.0701C627.36 73.6801 626.6 75.8401 626.6 78.5601V96.8401C626.6 102.52 623.79 105.36 618.17 105.36Z" fill="#2CD1EA"/>
<path d="M691.57 105.55C686.9 105.55 683.01 104.81 679.92 103.32C676.83 101.84 674.52 99.6301 673.01 96.6901C671.5 93.7501 670.74 90.08 670.74 85.66V70.2201H667.61C665.59 70.2201 664 69.6801 662.83 68.6101C661.66 67.5401 661.08 66.0201 661.08 64.0601C661.08 61.9801 661.66 60.41 662.83 59.37C664 58.33 665.59 57.8101 667.61 57.8101H670.74V51.8401C670.74 49.1301 671.46 47.03 672.92 45.54C674.37 44.06 676.46 43.3101 679.17 43.3101C681.88 43.3101 683.97 44.05 685.42 45.54C686.87 47.02 687.6 49.1201 687.6 51.8401V57.8101H695.37C697.39 57.8101 698.97 58.33 700.1 59.37C701.24 60.41 701.81 61.9701 701.81 64.0601C701.81 66.0201 701.24 67.5301 700.1 68.6101C698.96 69.6801 697.39 70.2201 695.37 70.2201H687.6V85.0901C687.6 87.4301 688.14 89.15 689.21 90.25C690.28 91.35 692.02 91.91 694.42 91.91C695.37 91.91 696.25 91.82 697.07 91.63C697.89 91.44 698.65 91.31 699.34 91.25C700.35 91.25 701.19 91.5801 701.85 92.2401C702.51 92.9001 702.84 94.4001 702.84 96.7401C702.84 98.6301 702.54 100.23 701.94 101.52C701.34 102.81 700.31 103.75 698.86 104.31C697.91 104.69 696.7 104.99 695.21 105.21C693.73 105.43 692.51 105.54 691.56 105.54L691.57 105.55Z" fill="#2CD1EA"/>
<path d="M774 188H0V437H774V188Z" fill="#19191F"/>
<path d="M221.18 355.86C218.34 355.86 216.16 355.07 214.65 353.49C213.14 351.91 212.38 349.74 212.38 346.96V302.36H197.51C195.17 302.36 193.39 301.73 192.16 300.47C190.93 299.21 190.31 297.44 190.31 295.17C190.31 292.9 190.93 291.16 192.16 289.96C193.39 288.76 195.17 288.16 197.51 288.16H244.67C247.07 288.16 248.87 288.76 250.07 289.96C251.27 291.16 251.87 292.9 251.87 295.17C251.87 297.44 251.27 299.29 250.07 300.52C248.87 301.75 247.07 302.37 244.67 302.37H229.8V346.97C229.8 349.75 229.07 351.93 227.62 353.5C226.17 355.08 224.02 355.87 221.18 355.87V355.86Z" fill="white"/>
<path d="M265.21 356.05C261.61 356.05 258.42 355.37 255.65 354.01C252.87 352.65 250.71 350.82 249.16 348.52C247.61 346.22 246.84 343.58 246.84 340.61C246.84 337.2 247.72 334.52 249.49 332.56C251.26 330.6 254.11 329.2 258.06 328.35C262 327.5 267.23 327.07 273.73 327.07H278.94V334.93H273.73C271.27 334.93 269.25 335.12 267.67 335.5C266.09 335.88 264.92 336.42 264.17 337.11C263.41 337.81 263.03 338.75 263.03 339.95C263.03 341.4 263.53 342.6 264.54 343.55C265.55 344.5 267.06 344.97 269.09 344.97C270.6 344.97 271.98 344.62 273.21 343.93C274.44 343.24 275.44 342.27 276.19 341.04C276.95 339.81 277.33 338.37 277.33 336.73V325.74C277.33 323.41 276.75 321.78 275.58 320.86C274.41 319.95 272.44 319.49 269.66 319.49C268.08 319.49 266.36 319.66 264.5 320.01C262.64 320.36 260.51 320.97 258.11 321.86C256.41 322.49 254.94 322.59 253.71 322.14C252.48 321.7 251.56 320.96 250.96 319.91C250.36 318.87 250.06 317.72 250.06 316.45C250.06 315.18 250.45 313.96 251.24 312.76C252.03 311.56 253.24 310.68 254.89 310.11C257.92 309.04 260.73 308.28 263.32 307.84C265.91 307.4 268.24 307.18 270.33 307.18C275.51 307.18 279.78 307.94 283.16 309.45C286.54 310.96 289.06 313.25 290.74 316.32C292.41 319.38 293.25 323.31 293.25 328.11V347.33C293.25 350.05 292.57 352.15 291.21 353.63C289.85 355.11 287.94 355.86 285.48 355.86C282.89 355.86 280.92 355.12 279.56 353.63C278.2 352.15 277.52 350.05 277.52 347.33V344.77L278.09 346.1C277.77 348.06 277.05 349.78 275.91 351.26C274.77 352.74 273.29 353.91 271.46 354.76C269.63 355.61 267.54 356.04 265.21 356.04V356.05Z" fill="white"/>
<path d="M321.46 356.05C318.62 356.05 315.76 355.83 312.89 355.39C310.02 354.95 307.38 354.22 304.98 353.21C303.46 352.58 302.38 351.71 301.71 350.61C301.05 349.51 300.73 348.35 300.76 347.15C300.79 345.95 301.14 344.86 301.8 343.88C302.46 342.9 303.35 342.21 304.45 341.8C305.55 341.39 306.8 341.44 308.19 341.94C310.84 342.95 313.22 343.64 315.34 344.02C317.45 344.4 319.49 344.59 321.45 344.59C323.78 344.59 325.46 344.26 326.47 343.6C327.48 342.94 327.98 342.07 327.98 341C327.98 340.05 327.65 339.33 326.99 338.82C326.33 338.32 325.4 337.97 324.2 337.78L313.69 336.17C309.77 335.48 306.74 334.02 304.6 331.81C302.45 329.6 301.38 326.7 301.38 323.1C301.38 319.88 302.31 317.09 304.17 314.72C306.03 312.35 308.59 310.51 311.84 309.18C315.09 307.85 318.83 307.19 323.06 307.19C325.9 307.19 328.49 307.41 330.83 307.85C333.16 308.29 335.47 309.02 337.74 310.03C339.07 310.66 340.01 311.51 340.58 312.59C341.15 313.66 341.37 314.78 341.24 315.95C341.11 317.12 340.7 318.19 340.01 319.17C339.31 320.15 338.4 320.83 337.26 321.21C336.12 321.59 334.86 321.49 333.47 320.93C331.39 320.11 329.52 319.51 327.88 319.13C326.24 318.75 324.72 318.56 323.34 318.56C320.69 318.56 318.84 318.91 317.8 319.6C316.76 320.3 316.24 321.21 316.24 322.35C316.24 323.11 316.54 323.77 317.14 324.34C317.74 324.91 318.61 325.29 319.74 325.48L330.25 327.19C334.35 327.89 337.48 329.27 339.63 331.36C341.78 333.44 342.85 336.28 342.85 339.88C342.85 344.99 340.89 348.97 336.98 351.81C333.06 354.65 327.89 356.07 321.45 356.07L321.46 356.05Z" fill="white"/>
<path d="M358.21 355.86C355.43 355.86 353.33 355.12 351.91 353.63C350.49 352.15 349.78 350.05 349.78 347.33V295.72C349.78 293.01 350.49 290.91 351.91 289.42C353.33 287.94 355.43 287.19 358.21 287.19C360.99 287.19 362.93 287.93 364.41 289.42C365.89 290.9 366.64 293 366.64 295.72V326.97H366.83L378.38 313.05C379.96 311.16 381.43 309.74 382.78 308.79C384.14 307.84 385.98 307.37 388.32 307.37C390.66 307.37 392.45 307.95 393.72 309.12C394.98 310.29 395.64 311.72 395.71 313.43C395.77 315.13 395.11 316.87 393.72 318.64L381.22 333.41V327.44L395.14 345.05C396.53 346.82 397.1 348.54 396.84 350.21C396.59 351.88 395.78 353.24 394.42 354.28C393.06 355.32 391.34 355.84 389.26 355.84C386.73 355.84 384.72 355.38 383.2 354.47C381.69 353.55 380.2 352.09 378.75 350.07L366.82 335.49H366.63V347.33C366.63 353.01 363.82 355.85 358.2 355.85L358.21 355.86Z" fill="white"/>
<path d="M429.8 356.05C424.69 356.05 420.24 355.24 416.45 353.63C412.66 352.02 409.74 349.76 407.69 346.86C405.64 343.96 404.61 340.58 404.61 336.73C404.61 334.52 404.91 332.5 405.51 330.67C406.11 328.84 406.99 327.17 408.16 325.65C409.33 324.14 410.7 322.73 412.28 321.44C413.86 320.15 415.63 318.99 417.58 317.98L421.08 316.28L418.52 319.5C416.06 317.29 414.21 314.89 412.98 312.3C411.75 309.71 411.13 307.09 411.13 304.44C411.13 301.03 411.98 298 413.69 295.35C415.4 292.7 417.82 290.65 420.98 289.19C424.14 287.74 427.83 287.01 432.06 287.01C437.74 287.01 442.22 288.46 445.51 291.37C448.79 294.27 450.43 298.16 450.43 303.02C450.43 305.48 449.94 307.85 448.96 310.12C447.98 312.39 446.51 314.45 444.56 316.28C442.6 318.11 440.11 319.75 437.08 321.2V317.89L451.19 331.81H447.69C448.45 330.61 449.11 329.35 449.68 328.02C450.25 326.69 450.72 325.29 451.1 323.81C451.48 322.33 451.83 320.86 452.14 319.41C452.64 317.2 453.47 315.54 454.6 314.44C455.74 313.34 457.35 312.78 459.43 312.78C461.76 312.78 463.53 313.44 464.73 314.77C465.93 316.1 466.31 317.9 465.87 320.17C465.49 322.88 464.89 325.49 464.07 327.98C463.25 330.48 462.28 332.81 461.18 334.99C460.07 337.17 458.8 339.17 457.35 341L457.26 337.31L465.31 344.98C467.08 346.56 467.98 348.2 468.01 349.9C468.04 351.61 467.41 353.03 466.12 354.16C464.83 355.3 463.04 355.87 460.77 355.87C458.75 355.87 457.12 355.46 455.89 354.64C454.66 353.82 453.29 352.72 451.77 351.33L447.89 347.54H451.58C448.55 350.13 445.17 352.2 441.45 353.74C437.72 355.29 433.84 356.06 429.8 356.06V356.05ZM430.94 343.17C433.21 343.17 435.28 342.74 437.14 341.89C439 341.04 440.79 339.82 442.49 338.24L442.02 342.03L423.27 324.04L430.47 324.23L427.91 325.56C426.46 326.26 425.24 327.09 424.26 328.07C423.28 329.05 422.54 330.15 422.03 331.38C421.52 332.61 421.27 333.98 421.27 335.5C421.27 337.84 422.12 339.7 423.83 341.09C425.54 342.48 427.9 343.17 430.93 343.17H430.94ZM432.08 298.09C430.31 298.09 428.91 298.63 427.87 299.7C426.83 300.77 426.31 302.23 426.31 304.06C426.31 305.01 426.48 305.92 426.83 306.81C427.18 307.69 427.78 308.64 428.63 309.65C429.48 310.66 430.57 311.8 431.9 313.06L428.4 312.97C430.61 311.96 432.38 311 433.7 310.08C435.03 309.17 435.99 308.17 436.59 307.1C437.19 306.03 437.49 304.83 437.49 303.5C437.49 301.73 437 300.39 436.02 299.47C435.04 298.56 433.73 298.1 432.09 298.1L432.08 298.09Z" fill="white"/>
<path d="M487.19 355.86C484.35 355.86 482.17 355.07 480.66 353.49C479.14 351.91 478.39 349.74 478.39 346.96V297.05C478.39 294.15 479.16 291.94 480.71 290.42C482.26 288.91 484.45 288.15 487.29 288.15H510.59C518.1 288.15 523.91 290.09 528.01 293.97C532.11 297.85 534.17 303.2 534.17 310.02C534.17 316.84 532.12 322.19 528.01 326.07C523.91 329.95 518.1 331.89 510.59 331.89H495.82V346.95C495.82 349.73 495.08 351.91 493.59 353.48C492.11 355.06 489.98 355.85 487.2 355.85L487.19 355.86ZM495.81 318.55H507.46C510.81 318.55 513.33 317.84 515.04 316.42C516.74 315 517.6 312.87 517.6 310.03C517.6 307.19 516.75 305.06 515.04 303.64C513.33 302.22 510.81 301.51 507.46 301.51H495.81V318.56V318.55Z" fill="#2CD1EA"/>
<path d="M562.19 356.05C557.01 356.05 552.5 355.07 548.65 353.11C544.8 351.15 541.8 348.33 539.65 344.63C537.5 340.94 536.43 336.6 536.43 331.61C536.43 327.82 537.03 324.43 538.23 321.43C539.43 318.43 541.17 315.86 543.44 313.71C545.71 311.56 548.43 309.94 551.58 308.83C554.74 307.73 558.27 307.17 562.19 307.17C567.37 307.17 571.88 308.15 575.73 310.11C579.58 312.07 582.56 314.88 584.68 318.54C586.79 322.2 587.85 326.56 587.85 331.61C587.85 335.4 587.25 338.78 586.05 341.74C584.85 344.71 583.11 347.28 580.84 349.46C578.57 351.64 575.85 353.28 572.7 354.38C569.54 355.48 566.04 356.04 562.19 356.04V356.05ZM562.19 343.45C563.89 343.45 565.39 343.06 566.69 342.27C567.98 341.48 569.01 340.2 569.77 338.44C570.53 336.67 570.91 334.4 570.91 331.62C570.91 327.39 570.09 324.34 568.45 322.48C566.81 320.62 564.72 319.69 562.2 319.69C560.49 319.69 558.98 320.1 557.65 320.92C556.32 321.74 555.28 323.02 554.53 324.75C553.77 326.49 553.39 328.77 553.39 331.62C553.39 335.79 554.21 338.8 555.85 340.66C557.49 342.52 559.6 343.45 562.19 343.45Z" fill="#2CD1EA"/>
<path d="M604.04 300.74C601.01 300.74 598.67 300.05 597.03 298.66C595.39 297.27 594.57 295.28 594.57 292.69C594.57 290.1 595.39 288.02 597.03 286.63C598.67 285.24 601.01 284.55 604.04 284.55C607.07 284.55 609.31 285.25 610.95 286.63C612.59 288.02 613.41 290.04 613.41 292.69C613.41 295.34 612.59 297.27 610.95 298.66C609.31 300.05 607 300.74 604.04 300.74ZM604.04 355.67C601.26 355.67 599.16 354.9 597.74 353.35C596.32 351.8 595.61 349.55 595.61 346.58V316.56C595.61 313.59 596.32 311.34 597.74 309.79C599.16 308.24 601.26 307.47 604.04 307.47C606.82 307.47 608.76 308.24 610.24 309.79C611.72 311.34 612.47 313.59 612.47 316.56V346.58C612.47 349.55 611.74 351.81 610.29 353.35C608.84 354.9 606.75 355.67 604.04 355.67Z" fill="#2CD1EA"/>
<path d="M630.65 355.86C627.87 355.86 625.77 355.12 624.35 353.63C622.93 352.15 622.22 350.05 622.22 347.33V315.89C622.22 313.18 622.93 311.08 624.35 309.59C625.77 308.11 627.81 307.37 630.46 307.37C633.11 307.37 635.05 308.11 636.47 309.59C637.89 311.07 638.6 313.17 638.6 315.89V320.34L637.56 316.46C639.08 313.49 641.24 311.2 644.05 309.59C646.86 307.98 650.06 307.18 653.66 307.18C657.26 307.18 660.45 307.92 662.85 309.4C665.25 310.88 667.05 313.09 668.25 316.03C669.45 318.97 670.05 322.74 670.05 327.35V347.33C670.05 350.05 669.32 352.15 667.87 353.63C666.42 355.11 664.33 355.86 661.62 355.86C658.91 355.86 656.82 355.12 655.37 353.63C653.92 352.15 653.19 350.05 653.19 347.33V328.01C653.19 325.23 652.7 323.23 651.72 322C650.74 320.77 649.3 320.15 647.41 320.15C644.88 320.15 642.87 320.95 641.35 322.57C639.84 324.18 639.08 326.34 639.08 329.06V347.34C639.08 353.02 636.27 355.86 630.65 355.86Z" fill="#2CD1EA"/>
<path d="M704.05 356.05C699.38 356.05 695.49 355.31 692.4 353.82C689.31 352.34 687 350.13 685.49 347.19C683.98 344.25 683.22 340.58 683.22 336.16V320.72H680.09C678.07 320.72 676.48 320.18 675.31 319.11C674.14 318.04 673.56 316.52 673.56 314.56C673.56 312.48 674.14 310.91 675.31 309.87C676.48 308.83 678.07 308.31 680.09 308.31H683.22V302.34C683.22 299.63 683.94 297.53 685.4 296.04C686.85 294.56 688.94 293.81 691.65 293.81C694.36 293.81 696.45 294.55 697.9 296.04C699.35 297.52 700.08 299.62 700.08 302.34V308.31H707.85C709.87 308.31 711.45 308.83 712.58 309.87C713.72 310.91 714.29 312.47 714.29 314.56C714.29 316.52 713.72 318.03 712.58 319.11C711.44 320.18 709.87 320.72 707.85 320.72H700.08V335.59C700.08 337.93 700.62 339.65 701.69 340.75C702.76 341.85 704.5 342.41 706.9 342.41C707.85 342.41 708.73 342.32 709.55 342.13C710.37 341.94 711.13 341.81 711.82 341.75C712.83 341.75 713.67 342.08 714.33 342.74C714.99 343.4 715.32 344.9 715.32 347.24C715.32 349.13 715.02 350.73 714.42 352.02C713.82 353.31 712.79 354.25 711.34 354.81C710.39 355.19 709.18 355.49 707.69 355.71C706.21 355.93 704.99 356.04 704.04 356.04L704.05 356.05Z" fill="#2CD1EA"/>
<path d="M157.6 310.66H125.54C124.822 310.66 124.24 311.242 124.24 311.96V323.89C124.24 324.608 124.822 325.19 125.54 325.19H157.6C158.318 325.19 158.9 324.608 158.9 323.89V311.96C158.9 311.242 158.318 310.66 157.6 310.66Z" fill="#2CD1EA"/>
<path d="M157.59 359.29H90.88C90.162 359.29 89.58 359.872 89.58 360.59V372.52C89.58 373.238 90.162 373.82 90.88 373.82H157.59C158.308 373.82 158.89 373.238 158.89 372.52V360.59C158.89 359.872 158.308 359.29 157.59 359.29Z" fill="#2CD1EA"/>
<path d="M157.59 265.03H90.88C90.162 265.03 89.58 265.612 89.58 266.33V278.26C89.58 278.978 90.162 279.56 90.88 279.56H157.59C158.308 279.56 158.89 278.978 158.89 278.26V266.33C158.89 265.612 158.308 265.03 157.59 265.03Z" fill="#2CD1EA"/>
<path d="M77.28 294.09C89.3198 294.09 99.08 284.33 99.08 272.29C99.08 260.25 89.3198 250.49 77.28 250.49C65.2402 250.49 55.48 260.25 55.48 272.29C55.48 284.33 65.2402 294.09 77.28 294.09Z" fill="white"/>
<path d="M105.79 339.73C117.83 339.73 127.59 329.97 127.59 317.93C127.59 305.89 117.83 296.13 105.79 296.13C93.7502 296.13 83.99 305.89 83.99 317.93C83.99 329.97 93.7502 339.73 105.79 339.73Z" fill="white"/>
<path d="M77.28 388.36C89.3198 388.36 99.08 378.6 99.08 366.56C99.08 354.52 89.3198 344.76 77.28 344.76C65.2402 344.76 55.48 354.52 55.48 366.56C55.48 378.6 65.2402 388.36 77.28 388.36Z" fill="white"/>
<path d="M105.79 320.43C104.41 320.43 103.29 319.31 103.29 317.93V304.13C103.29 302.75 104.41 301.63 105.79 301.63C107.17 301.63 108.29 302.75 108.29 304.13V317.93C108.29 319.31 107.17 320.43 105.79 320.43Z" fill="#353535"/>
<path d="M119.59 320.43H105.79C104.41 320.43 103.29 319.31 103.29 317.93C103.29 316.55 104.41 315.43 105.79 315.43H119.59C120.97 315.43 122.09 316.55 122.09 317.93C122.09 319.31 120.97 320.43 119.59 320.43Z" fill="#353535"/>
</svg>
