<svg width="273" height="58" viewBox="0 0 273 58" fill="none" xmlns="http://www.w3.org/2000/svg">
<path d="M68.5172 43.5663C68.0238 43.5994 67.5289 43.5293 67.064 43.3605C66.5991 43.1918 66.1745 42.9282 65.8171 42.5863C65.1594 41.8459 64.8218 40.875 64.8784 39.8862V21.4441H58.7297C58.3271 21.472 57.9231 21.4171 57.5426 21.2826C57.1621 21.1482 56.8132 20.9372 56.5175 20.6626C56.2511 20.3662 56.0463 20.0198 55.9149 19.6436C55.7835 19.2674 55.7282 18.8689 55.7521 18.4711C55.7257 18.0787 55.78 17.6851 55.9117 17.3146C56.0433 16.9441 56.2495 16.6045 56.5175 16.3167C56.819 16.053 57.1696 15.8514 57.5493 15.7237C57.9289 15.596 58.3301 15.5446 58.7297 15.5724H78.2303C78.6333 15.5414 79.0385 15.5912 79.422 15.7191C79.8054 15.8469 80.1595 16.0501 80.4632 16.3167C80.7254 16.6075 80.9264 16.9481 81.0543 17.3182C81.1822 17.6884 81.2343 18.0804 81.2076 18.4711C81.2586 19.2775 80.9914 20.0718 80.4632 20.6833C80.1625 20.9558 79.8094 21.1641 79.4255 21.2957C79.0416 21.4272 78.635 21.4791 78.2303 21.4482H72.0812V39.8903C72.1386 40.8727 71.8159 41.8395 71.1802 42.5905C70.5806 43.2438 69.6929 43.5705 68.5172 43.5705V43.5663Z" fill="#6B6B6B"/>
<path d="M86.7236 43.645C85.3585 43.672 84.0056 43.3833 82.7705 42.8014C81.6898 42.2971 80.7634 41.5134 80.0869 40.5313C79.442 39.564 79.1073 38.423 79.1276 37.2605C79.1276 35.8505 79.4928 34.741 80.2234 33.9319C80.9539 33.1228 82.1351 32.5425 83.767 32.191C85.9032 31.7945 88.0744 31.6171 90.2466 31.6617H92.4009V34.9119H90.2466C89.4051 34.8943 88.5643 34.9734 87.7408 35.1476C87.2107 35.2463 86.7134 35.475 86.2935 35.8133C86.1349 35.9634 86.0106 36.1461 85.9293 36.3488C85.8479 36.5515 85.8113 36.7695 85.8221 36.9876C85.8142 37.2659 85.8658 37.5427 85.9735 37.7994C86.0812 38.0561 86.2424 38.2869 86.4465 38.4762C86.9749 38.9064 87.6487 39.1166 88.3279 39.0634C88.9235 39.0703 89.5106 38.9221 90.0316 38.6334C90.5594 38.3389 90.9969 37.9061 91.297 37.3815C91.5972 36.8569 91.7487 36.2604 91.7352 35.6562V31.1118C91.7352 30.1483 91.494 29.4757 91.0116 29.0939C90.5278 28.7176 89.7118 28.5288 88.5636 28.5274C87.8473 28.5329 87.133 28.6049 86.43 28.7425C85.5295 28.9234 84.6456 29.1793 83.7877 29.5074C83.2147 29.7628 82.5691 29.8039 81.9683 29.6232C81.4888 29.4662 81.0839 29.1379 80.8312 28.7011C80.5816 28.266 80.4531 27.7719 80.459 27.2704C80.4654 26.7244 80.6354 26.1929 80.947 25.7446C81.312 25.2195 81.8439 24.8333 82.4563 24.6488C83.5895 24.2376 84.7556 23.9236 85.942 23.7101C86.899 23.5386 87.8686 23.4473 88.8407 23.4373C90.6551 23.3774 92.4621 23.6971 94.1459 24.3759C95.48 24.9439 96.5842 25.9445 97.2802 27.2166C97.9694 28.4819 98.3154 30.107 98.3181 32.0918V40.0392C98.3792 40.9834 98.0775 41.9152 97.4746 42.6443C97.1688 42.9589 96.799 43.204 96.3902 43.3631C95.9814 43.5222 95.5432 43.5915 95.1052 43.5664C94.6549 43.5975 94.2031 43.5313 93.7807 43.3722C93.3583 43.2131 92.9751 42.9648 92.6573 42.6443C92.0544 41.9152 91.7526 40.9834 91.8137 40.0392V38.9807L92.0494 39.5306C91.9332 40.3064 91.6232 41.0402 91.148 41.6643C90.6616 42.2894 90.03 42.7862 89.3079 43.1116C88.4956 43.4751 87.6134 43.6557 86.7236 43.6409V43.645Z" fill="#6B6B6B"/>
<path d="M109.983 43.6449C108.797 43.644 107.612 43.5527 106.439 43.3719C105.316 43.2071 104.218 42.9043 103.169 42.4705C102.614 42.2673 102.139 41.8902 101.816 41.3954C101.55 40.9664 101.414 40.4695 101.424 39.9647C101.432 39.4818 101.582 39.0119 101.854 38.6125C102.128 38.1877 102.544 37.874 103.028 37.7271C103.512 37.5802 104.032 37.6097 104.496 37.8103C105.453 38.1875 106.442 38.4755 107.452 38.6704C108.286 38.8239 109.131 38.9028 109.979 38.9061C110.695 38.9608 111.413 38.8193 112.055 38.4968C112.244 38.3886 112.402 38.2322 112.512 38.0434C112.621 37.8545 112.679 37.64 112.679 37.4217C112.689 37.2495 112.656 37.0777 112.585 36.9207C112.514 36.7637 112.406 36.6263 112.27 36.5202C111.926 36.2853 111.53 36.1377 111.116 36.0902L106.77 35.4245C105.357 35.2398 104.04 34.6081 103.011 33.6216C102.56 33.1405 102.21 32.574 101.982 31.9554C101.753 31.3369 101.65 30.6788 101.68 30.02C101.654 28.7666 102.062 27.5426 102.834 26.5549C103.672 25.5263 104.765 24.7363 106.005 24.2641C107.483 23.6903 109.059 23.4107 110.645 23.4412C111.722 23.4328 112.797 23.5241 113.858 23.7141C114.842 23.9029 115.801 24.2054 116.715 24.6156C117.213 24.8289 117.625 25.2011 117.889 25.6741C118.121 26.098 118.217 26.5833 118.162 27.0635C118.109 27.5436 117.934 28.0021 117.653 28.395C117.365 28.8205 116.933 29.1281 116.437 29.2617C115.94 29.3953 115.412 29.346 114.949 29.1227C114.198 28.8188 113.425 28.57 112.638 28.3784C112.023 28.2293 111.393 28.1502 110.76 28.1428C109.665 28.1428 108.901 28.2861 108.469 28.5728C108.272 28.6895 108.108 28.8559 107.995 29.0554C107.882 29.2549 107.823 29.4805 107.824 29.7099C107.824 29.8656 107.858 30.0194 107.922 30.1613C107.986 30.3031 108.08 30.4297 108.196 30.5327C108.5 30.7934 108.874 30.9575 109.271 31.0041L113.617 31.7112C115.313 32.0007 116.607 32.5713 117.496 33.4355C117.95 33.8982 118.303 34.4504 118.532 35.057C118.762 35.6635 118.862 36.3111 118.827 36.9585C118.867 37.9181 118.665 38.8722 118.241 39.7339C117.817 40.5956 117.184 41.3374 116.4 41.8916C114.779 43.066 112.639 43.6531 109.978 43.6531L109.983 43.6449Z" fill="#6B6B6B"/>
<path d="M125.179 43.5663C124.03 43.5663 123.161 43.2589 122.574 42.6442C121.949 41.9259 121.632 40.9896 121.693 40.0391V18.6984C121.633 17.7481 121.95 16.8124 122.574 16.0934C123.161 15.4814 124.03 15.1713 125.179 15.1713C125.647 15.1381 126.117 15.203 126.558 15.3618C127 15.5206 127.403 15.7698 127.743 16.0934C128.064 16.4431 128.311 16.8542 128.47 17.3018C128.628 17.7495 128.695 18.2245 128.665 18.6984V31.6203H128.743L133.519 25.8644C134.049 25.2023 134.66 24.6103 135.339 24.1029C136.024 23.6768 136.824 23.4718 137.63 23.5157C138.439 23.4621 139.238 23.7211 139.862 24.2393C140.114 24.4647 140.316 24.739 140.458 25.0455C140.599 25.3519 140.677 25.6841 140.685 26.0215C140.678 26.8151 140.386 27.5797 139.862 28.1759L134.694 34.2833V31.8146L140.45 39.0964C140.71 39.3826 140.908 39.7205 141.029 40.0882C141.15 40.4559 141.192 40.8449 141.153 41.23C141.106 41.5631 140.994 41.8835 140.822 42.1726C140.65 42.4616 140.422 42.7133 140.152 42.913C139.533 43.3608 138.782 43.5879 138.018 43.558C137.147 43.5985 136.281 43.4027 135.512 42.9915C134.784 42.5132 134.159 41.8947 133.672 41.1721L128.739 35.1433H128.661V40.0391C128.661 42.3878 127.499 43.5622 125.175 43.5622L125.179 43.5663Z" fill="#6B6B6B"/>
<path d="M154.782 43.6449C152.893 43.686 151.015 43.3457 149.261 42.6442C147.814 42.0713 146.558 41.1008 145.639 39.8448C144.782 38.6183 144.337 37.1518 144.366 35.656C144.356 34.8063 144.482 33.9605 144.738 33.1503C144.982 32.4008 145.352 31.6987 145.833 31.0745C146.333 30.4313 146.905 29.8473 147.537 29.3336C148.216 28.7824 148.951 28.3029 149.729 27.9029L151.176 27.2L150.117 28.5314C149.163 27.7012 148.385 26.6891 147.827 25.5543C147.331 24.542 147.07 23.4311 147.062 22.3041C147.038 20.9745 147.406 19.6673 148.12 18.5454C148.857 17.4226 149.905 16.5378 151.135 15.9982C152.579 15.3699 154.142 15.0624 155.716 15.0968C158.065 15.0968 159.919 15.6978 161.278 16.8997C161.952 17.5022 162.484 18.2468 162.836 19.0799C163.188 19.9129 163.35 20.8135 163.312 21.717C163.314 22.727 163.107 23.7265 162.704 24.6528C162.28 25.6184 161.661 26.4857 160.885 27.2C159.963 28.0311 158.92 28.7171 157.792 29.2344V27.8657L163.626 33.6216H162.179C162.495 33.1221 162.77 32.598 163.002 32.0545C163.242 31.4901 163.438 30.9081 163.589 30.3136C163.746 29.7017 163.891 29.0938 164.019 28.4942C164.154 27.7256 164.507 27.012 165.036 26.4391C165.585 25.9547 166.303 25.7078 167.034 25.7527C167.437 25.7238 167.841 25.7823 168.219 25.9244C168.598 26.0664 168.941 26.2885 169.225 26.5756C169.478 26.8821 169.653 27.2452 169.735 27.6341C169.817 28.0229 169.804 28.4259 169.697 28.8085C169.545 29.905 169.296 30.9858 168.952 32.0379C168.627 33.0328 168.228 34.0017 167.757 34.9365C167.313 35.8156 166.783 36.6481 166.174 37.4217L166.136 35.8959L169.465 39.0674C170.197 39.7207 170.569 40.399 170.581 41.1022C170.594 41.436 170.53 41.7683 170.395 42.0736C170.26 42.3789 170.056 42.6492 169.8 42.8638C169.176 43.3655 168.387 43.6175 167.588 43.5708C166.88 43.6043 166.177 43.4274 165.57 43.0622C164.969 42.6491 164.399 42.1915 163.866 41.6931L162.262 40.126H163.788C162.536 41.1966 161.122 42.0619 159.599 42.6897C158.073 43.3268 156.435 43.653 154.782 43.649V43.6449ZM155.253 38.319C156.136 38.3301 157.011 38.1495 157.817 37.7897C158.63 37.4084 159.377 36.8988 160.029 36.2804L159.835 37.8476L152.081 30.4087L155.059 30.4873L154 31.0373C153.442 31.296 152.932 31.6468 152.491 32.0751C152.096 32.4657 151.782 32.9309 151.569 33.4438C151.352 33.9853 151.245 34.5644 151.254 35.1474C151.238 35.5887 151.325 36.0277 151.509 36.4291C151.693 36.8306 151.968 37.1833 152.313 37.4589C153.162 38.0778 154.2 38.3819 155.249 38.319H155.253ZM155.724 19.6784C155.404 19.6627 155.084 19.7138 154.784 19.8284C154.484 19.943 154.212 20.1186 153.984 20.3441C153.762 20.5869 153.591 20.8713 153.48 21.1808C153.369 21.4903 153.321 21.8188 153.339 22.147C153.337 22.5363 153.41 22.9222 153.554 23.2842C153.738 23.7125 153.989 24.1088 154.298 24.4585C154.722 24.9531 155.174 25.4239 155.65 25.8685L154.203 25.8313C154.967 25.4974 155.7 25.0975 156.394 24.6363C156.882 24.3229 157.291 23.9012 157.589 23.404C157.841 22.9486 157.969 22.4356 157.961 21.9154C157.983 21.6106 157.94 21.3046 157.835 21.0174C157.73 20.7303 157.566 20.4685 157.354 20.249C156.906 19.8565 156.323 19.6534 155.729 19.6825L155.724 19.6784Z" fill="#6B6B6B"/>
<path d="M178.512 43.5663C178.019 43.5993 177.524 43.5292 177.059 43.3605C176.594 43.1918 176.169 42.9281 175.812 42.5863C175.486 42.2202 175.235 41.7932 175.074 41.3298C174.912 40.8665 174.844 40.3758 174.873 39.8861V19.2484C174.873 18.0493 175.193 17.1354 175.833 16.5069C176.202 16.1783 176.632 15.9262 177.099 15.7651C177.566 15.6039 178.061 15.537 178.554 15.5683H188.188C191.294 15.5683 193.695 16.3704 195.391 17.9748C197.088 19.5792 197.937 21.7914 197.938 24.6115C197.938 27.4316 197.089 29.6438 195.391 31.2481C193.693 32.8525 191.292 33.6547 188.188 33.6547H182.081V39.882C182.139 40.8682 181.808 41.8379 181.159 42.5822C180.812 42.9226 180.398 43.1859 179.942 43.3548C179.487 43.5237 179.001 43.5943 178.516 43.5622L178.512 43.5663ZM182.077 28.1387H186.894C188.279 28.1387 189.321 27.8451 190.028 27.2579C190.735 26.6707 191.087 25.79 191.087 24.6156C191.087 23.4413 190.735 22.5605 190.028 21.9734C189.321 21.3862 188.279 21.0926 186.894 21.0926H182.077V28.1387Z" fill="#2CD1EA"/>
<path d="M209.525 43.6449C207.588 43.6904 205.669 43.2737 203.926 42.4292C202.368 41.6518 201.073 40.4321 200.205 38.9227C199.286 37.2799 198.827 35.4204 198.873 33.539C198.85 32.1011 199.102 30.6722 199.617 29.3296C200.093 28.1207 200.829 27.031 201.772 26.1373C202.738 25.2338 203.885 24.546 205.138 24.1194C206.551 23.6459 208.034 23.4139 209.525 23.4331C211.461 23.3875 213.381 23.8043 215.124 24.6487C216.674 25.4205 217.961 26.6332 218.824 28.1345C219.733 29.788 220.185 31.6532 220.135 33.539C220.16 34.9702 219.907 36.3927 219.391 37.7277C218.905 38.9472 218.16 40.0463 217.206 40.9488C216.253 41.8513 215.115 42.5357 213.871 42.9544C212.471 43.4257 211.002 43.6578 209.525 43.6408V43.6449ZM209.525 38.4348C210.178 38.4486 210.823 38.2796 211.386 37.9469C211.965 37.5647 212.41 37.011 212.659 36.3631C213.003 35.4641 213.163 34.5052 213.131 33.5431C213.131 31.794 212.791 30.5342 212.113 29.7637C211.795 29.3917 211.398 29.0951 210.951 28.8956C210.504 28.696 210.018 28.5985 209.529 28.61C208.866 28.5983 208.214 28.7747 207.648 29.1187C207.063 29.4996 206.612 30.0532 206.357 30.7024C206.01 31.6077 205.85 32.5741 205.886 33.5431C205.886 35.2674 206.225 36.5134 206.903 37.2812C207.227 37.6562 207.63 37.9544 208.084 38.1539C208.537 38.3535 209.03 38.4494 209.525 38.4348Z" fill="#2CD1EA"/>
<path d="M226.83 20.7783C225.577 20.7783 224.611 20.4916 223.931 19.9182C223.586 19.6105 223.315 19.2284 223.139 18.8008C222.963 18.3732 222.886 17.9112 222.914 17.4496C222.886 16.9825 222.962 16.515 223.138 16.0814C223.314 15.6478 223.585 15.2591 223.931 14.9438C224.609 14.369 225.575 14.0824 226.83 14.0837C228.083 14.0837 229.009 14.3732 229.687 14.9438C230.035 15.2576 230.307 15.646 230.483 16.08C230.659 16.514 230.735 16.9822 230.704 17.4496C230.735 17.9115 230.659 18.3743 230.483 18.8023C230.307 19.2303 230.034 19.6121 229.687 19.9182C228.868 20.5372 227.854 20.8423 226.83 20.7783ZM226.83 43.4918C225.68 43.4918 224.812 43.172 224.225 42.5325C223.638 41.8916 223.344 40.9612 223.344 39.7331V27.3198C223.344 26.0917 223.638 25.1614 224.225 24.5205C224.812 23.8795 225.68 23.5611 226.83 23.5611C227.301 23.5282 227.774 23.5968 228.216 23.7623C228.658 23.9278 229.06 24.1863 229.393 24.5205C230.005 25.1614 230.316 26.0917 230.316 27.3198V39.7331C230.316 40.9612 230.015 41.8943 229.414 42.5325C229.075 42.8656 228.67 43.1232 228.225 43.2885C227.779 43.4539 227.304 43.5232 226.83 43.4918Z" fill="#2CD1EA"/>
<path d="M237.833 43.5663C236.684 43.5663 235.815 43.2589 235.228 42.6442C234.603 41.9259 234.286 40.9896 234.347 40.0391V27.0387C234.287 26.0884 234.604 25.1527 235.228 24.4337C235.563 24.114 235.96 23.8673 236.395 23.7093C236.83 23.5513 237.293 23.4853 237.755 23.5157C238.21 23.4851 238.667 23.5511 239.095 23.7093C239.523 23.8675 239.913 24.1143 240.24 24.4337C240.865 25.1519 241.182 26.0882 241.12 27.0387V28.8788L240.69 27.2744C241.284 26.0826 242.218 25.0939 243.374 24.4337C244.587 23.7554 245.958 23.4115 247.348 23.4372C248.675 23.3902 249.989 23.7077 251.148 24.3551C252.17 25.0027 252.953 25.9648 253.381 27.0966C253.925 28.5952 254.177 30.184 254.125 31.7774V40.0391C254.155 40.5114 254.091 40.985 253.936 41.4323C253.781 41.8795 253.539 42.2915 253.224 42.6442C252.494 43.2406 251.581 43.5663 250.639 43.5663C249.697 43.5663 248.784 43.2406 248.055 42.6442C247.739 42.2915 247.497 41.8795 247.342 41.4323C247.188 40.985 247.123 40.5114 247.153 40.0391V32.0503C247.153 30.9008 246.951 30.0724 246.546 29.5652C246.329 29.3067 246.055 29.1028 245.746 28.9699C245.436 28.837 245.1 28.7789 244.763 28.8002C244.299 28.7789 243.835 28.8572 243.402 29.0298C242.97 29.2023 242.58 29.4652 242.258 29.8009C241.606 30.5382 241.269 31.5017 241.319 32.4845V40.0433C241.319 42.3919 240.157 43.5663 237.833 43.5663Z" fill="#2CD1EA"/>
<path d="M268.184 43.645C266.529 43.7013 264.883 43.3861 263.367 42.7228C262.134 42.1552 261.127 41.1897 260.509 39.9813C259.839 38.5571 259.517 36.9937 259.571 35.4204V29.036H258.276C257.557 29.0753 256.849 28.837 256.3 28.3703C256.051 28.127 255.858 27.8331 255.733 27.5084C255.608 27.1838 255.555 26.836 255.576 26.4889C255.549 26.1325 255.6 25.7744 255.725 25.4395C255.85 25.1046 256.046 24.8009 256.3 24.5495C256.855 24.0947 257.56 23.8645 258.276 23.9045H259.571V21.4359C259.54 20.9635 259.605 20.4899 259.759 20.0427C259.914 19.5954 260.156 19.1834 260.472 18.8308C261.201 18.2345 262.114 17.9087 263.056 17.9087C263.999 17.9087 264.912 18.2345 265.641 18.8308C265.956 19.1836 266.199 19.5955 266.353 20.0428C266.508 20.49 266.572 20.9636 266.542 21.4359V23.9045H269.755C270.466 23.8614 271.166 24.0923 271.711 24.5495C271.96 24.8036 272.153 25.1081 272.275 25.4426C272.397 25.7771 272.445 26.1339 272.418 26.4889C272.439 26.8346 272.387 27.1808 272.265 27.5049C272.143 27.8291 271.955 28.124 271.711 28.3703C271.171 28.8388 270.469 29.0777 269.755 29.036H266.542V35.1847C266.542 36.1523 266.764 36.8635 267.208 37.3184C267.65 37.7732 268.37 38.0048 269.362 38.0048C269.731 38.008 270.098 37.9692 270.458 37.889C270.767 37.8149 271.081 37.7624 271.397 37.7319C271.589 37.7258 271.779 37.759 271.958 37.8294C272.136 37.8998 272.299 38.0059 272.435 38.1413C272.708 38.4142 272.844 39.0344 272.844 40.002C272.865 40.68 272.738 41.3544 272.472 41.9785C272.347 42.2456 272.17 42.4851 271.951 42.6832C271.732 42.8812 271.476 43.0339 271.198 43.1322C270.711 43.3135 270.205 43.4383 269.689 43.5043C269.19 43.5855 268.685 43.6311 268.18 43.6408L268.184 43.645Z" fill="#2CD1EA"/>
<path d="M42.2267 24.8762H28.9699C28.673 24.8762 28.4324 25.1169 28.4324 25.4138V30.3468C28.4324 30.6437 28.673 30.8844 28.9699 30.8844H42.2267C42.5236 30.8844 42.7643 30.6437 42.7643 30.3468V25.4138C42.7643 25.1169 42.5236 24.8762 42.2267 24.8762Z" fill="#2CD1EA"/>
<path d="M42.2225 44.9846H14.6379C14.341 44.9846 14.1003 45.2253 14.1003 45.5222V50.4552C14.1003 50.7521 14.341 50.9928 14.6379 50.9928H42.2225C42.5193 50.9928 42.76 50.7521 42.76 50.4552V45.5222C42.76 45.2253 42.5193 44.9846 42.2225 44.9846Z" fill="#2CD1EA"/>
<path d="M42.2225 6.00806H14.6379C14.341 6.00806 14.1003 6.24873 14.1003 6.54561V11.4787C14.1003 11.7755 14.341 12.0162 14.6379 12.0162H42.2225C42.5193 12.0162 42.76 11.7755 42.76 11.4787V6.54561C42.76 6.24873 42.5193 6.00806 42.2225 6.00806Z" fill="#2CD1EA"/>
<path d="M9.01429 18.0286C13.9927 18.0286 18.0286 13.9927 18.0286 9.01429C18.0286 4.03584 13.9927 0 9.01429 0C4.03584 0 0 4.03584 0 9.01429C0 13.9927 4.03584 18.0286 9.01429 18.0286Z" fill="#6B6B6B"/>
<path d="M20.8031 36.8965C25.7816 36.8965 29.8174 32.8607 29.8174 27.8822C29.8174 22.9038 25.7816 18.8679 20.8031 18.8679C15.8247 18.8679 11.7888 22.9038 11.7888 27.8822C11.7888 32.8607 15.8247 36.8965 20.8031 36.8965Z" fill="#6B6B6B"/>
<path d="M9.01429 57.0051C13.9927 57.0051 18.0286 52.9693 18.0286 47.9909C18.0286 43.0124 13.9927 38.9766 9.01429 38.9766C4.03584 38.9766 0 43.0124 0 47.9909C0 52.9693 4.03584 57.0051 9.01429 57.0051Z" fill="#6B6B6B"/>
<path d="M20.8037 22.1758V27.8821" stroke="white" stroke-width="5" stroke-linecap="round" stroke-linejoin="round"/>
<path d="M26.51 27.8823H20.8037" stroke="white" stroke-width="5" stroke-linecap="round" stroke-linejoin="round"/>
</svg>
