<svg width="320" height="67" viewBox="0 0 320 67" fill="none" xmlns="http://www.w3.org/2000/svg">
<g clip-path="url(#clip0_243_1272)">
<path d="M80.2321 51.0201C79.6544 51.0589 79.075 50.9769 78.5308 50.7794C77.9866 50.582 77.4894 50.2733 77.0711 49.8731C76.3003 49.0063 75.9047 47.8691 75.9711 46.7111V25.1111H68.7711C68.2997 25.1438 67.8267 25.0795 67.3812 24.9221C66.9357 24.7648 66.5272 24.5176 66.1811 24.1961C65.8684 23.8494 65.6279 23.444 65.4734 23.0035C65.3188 22.563 65.2535 22.0961 65.2811 21.6301C65.2506 21.1704 65.3147 20.7093 65.4695 20.2753C65.6243 19.8413 65.8665 19.4437 66.1811 19.1071C66.534 18.7983 66.9446 18.5624 67.3891 18.413C67.8336 18.2635 68.3032 18.2034 68.7711 18.2361H91.606C92.078 18.1997 92.5524 18.258 93.0015 18.4076C93.4506 18.5572 93.8652 18.795 94.2211 19.1071C94.5281 19.4477 94.7636 19.8466 94.9134 20.28C95.0632 20.7134 95.1243 21.1726 95.093 21.6301C95.1528 22.5743 94.8397 23.5043 94.2211 24.2201C93.8692 24.5399 93.4558 24.7846 93.0062 24.9393C92.5566 25.0941 92.0802 25.1556 91.606 25.1201H84.4061V46.7201C84.4733 47.8704 84.0955 49.0026 83.3511 49.8821C82.9427 50.2842 82.4532 50.5944 81.9154 50.7922C81.3775 50.99 80.8036 51.0708 80.2321 51.0291V51.0201Z" fill="white"/>
<path d="M101.552 51.112C99.9536 51.1437 98.3694 50.8059 96.923 50.125C95.6574 49.534 94.5725 48.6161 93.78 47.466C93.0252 46.3331 92.6335 44.9971 92.657 43.636C92.5755 42.2205 93.034 40.8267 93.94 39.736C95.0781 38.6422 96.5285 37.9299 98.09 37.698C100.591 37.2334 103.133 37.0256 105.677 37.078H108.2V40.884H105.677C104.692 40.8635 103.707 40.9561 102.743 41.16C102.12 41.2747 101.536 41.5424 101.043 41.939C100.857 42.115 100.712 42.3291 100.616 42.5666C100.521 42.8041 100.478 43.0594 100.491 43.315C100.482 43.6408 100.542 43.9649 100.668 44.2655C100.794 44.5661 100.983 44.8363 101.222 45.058C101.84 45.5606 102.628 45.8065 103.422 45.745C104.119 45.7542 104.807 45.5818 105.417 45.245C106.034 44.8994 106.546 44.3922 106.897 43.778C107.249 43.1637 107.426 42.4655 107.411 41.758V36.437C107.46 36.0046 107.409 35.5668 107.262 35.1572C107.115 34.7476 106.876 34.377 106.564 34.074C105.703 33.5553 104.699 33.3231 103.698 33.411C102.859 33.4173 102.022 33.5016 101.198 33.663C100.143 33.8761 99.1083 34.1771 98.104 34.563C97.4332 34.8622 96.6773 34.9104 95.974 34.699C95.4121 34.5153 94.9378 34.1308 94.642 33.619C94.3497 33.1096 94.1992 32.5313 94.2059 31.944C94.2138 31.3046 94.413 30.6822 94.778 30.157C95.2052 29.5421 95.828 29.0899 96.545 28.874C97.872 28.3923 99.2376 28.0243 100.627 27.774C101.747 27.573 102.883 27.4659 104.021 27.454C106.146 27.3843 108.261 27.7589 110.233 28.554C111.795 29.2195 113.088 30.3914 113.904 31.881C114.778 33.6531 115.196 35.6155 115.119 37.59V46.896C115.191 48.0015 114.837 49.0926 114.131 49.946C113.773 50.3146 113.34 50.6017 112.862 50.7881C112.383 50.9745 111.87 51.0556 111.357 51.026C110.831 51.0603 110.303 50.9811 109.811 50.7939C109.318 50.6067 108.871 50.3159 108.5 49.941C107.794 49.0873 107.441 47.9963 107.513 46.891V45.651L107.789 46.295C107.653 47.2039 107.29 48.0638 106.733 48.795C106.164 49.5286 105.424 50.1121 104.578 50.495C103.627 50.9202 102.594 51.1315 101.552 51.114V51.112Z" fill="white"/>
<path d="M128.788 51.1119C127.399 51.1111 126.012 51.0045 124.639 50.7929C123.324 50.5999 122.037 50.2452 120.809 49.7369C120.159 49.4989 119.604 49.0573 119.225 48.4779C118.914 47.9755 118.754 47.3939 118.765 46.8029C118.774 46.2379 118.948 45.6878 119.265 45.2199C119.586 44.7222 120.073 44.3545 120.64 44.1824C121.206 44.0102 121.816 44.0448 122.359 44.2799C123.48 44.7215 124.639 45.0586 125.821 45.287C126.797 45.4667 127.787 45.5591 128.78 45.563C129.619 45.6273 130.459 45.4617 131.21 45.0839C131.432 44.9572 131.617 44.774 131.745 44.5529C131.874 44.3318 131.941 44.0806 131.941 43.8249C131.952 43.6233 131.915 43.422 131.831 43.2381C131.748 43.0542 131.621 42.8932 131.462 42.7689C131.059 42.495 130.595 42.3234 130.111 42.2689L125.022 41.4889C123.368 41.2726 121.826 40.5329 120.622 39.3779C120.094 38.8146 119.684 38.1513 119.416 37.4271C119.148 36.7028 119.028 35.9323 119.063 35.1609C119.033 33.6932 119.51 32.26 120.413 31.1029C121.395 29.8991 122.676 28.9742 124.127 28.4209C125.858 27.7489 127.704 27.4215 129.56 27.4569C130.821 27.4472 132.081 27.5543 133.322 27.7769C134.475 27.9976 135.597 28.3516 136.668 28.8319C137.251 29.0819 137.734 29.518 138.043 30.0719C138.315 30.5683 138.427 31.1366 138.363 31.6989C138.3 32.2615 138.093 32.7983 137.763 33.2579C137.425 33.7562 136.92 34.1165 136.339 34.2729C135.757 34.4293 135.139 34.3715 134.597 34.1099C133.717 33.7544 132.812 33.4633 131.89 33.2389C131.17 33.0641 130.431 32.9715 129.69 32.9629C128.767 32.8859 127.841 33.0586 127.008 33.4629C126.777 33.5997 126.585 33.7946 126.453 34.0283C126.321 34.262 126.252 34.5263 126.253 34.7949C126.253 34.9771 126.292 35.1571 126.367 35.3231C126.442 35.4891 126.552 35.6373 126.688 35.7579C127.043 36.063 127.482 36.2552 127.947 36.3099L133.036 37.1379C134.72 37.3355 136.303 38.0396 137.578 39.1569C138.11 39.6989 138.523 40.3457 138.791 41.056C139.06 41.7663 139.178 42.5247 139.137 43.283C139.183 44.4065 138.947 45.5236 138.451 46.5326C137.955 47.5415 137.213 48.4101 136.295 49.059C134.072 50.5293 131.437 51.252 128.775 51.1219L128.788 51.1119Z" fill="white"/>
<path d="M146.583 51.02C146.027 51.0611 145.469 50.9864 144.944 50.8007C144.419 50.615 143.938 50.3222 143.532 49.941C142.8 49.0995 142.429 48.0031 142.501 46.89V21.9C142.431 20.7874 142.801 19.6919 143.532 18.85C143.939 18.4693 144.419 18.1769 144.945 17.991C145.47 17.8052 146.027 17.7299 146.583 17.77C147.131 17.7314 147.68 17.8075 148.197 17.9935C148.713 18.1795 149.186 18.4712 149.583 18.85C149.959 19.2595 150.249 19.7407 150.434 20.2648C150.62 20.7889 150.698 21.3451 150.663 21.9V37.032H150.755L156.347 30.292C156.966 29.5163 157.683 28.823 158.478 28.229C159.28 27.7297 160.216 27.4894 161.16 27.541C162.108 27.4783 163.044 27.7818 163.775 28.389C164.069 28.6529 164.306 28.9741 164.472 29.333C164.638 29.6919 164.728 30.0809 164.738 30.476C164.73 31.405 164.388 32.3 163.775 32.998L157.722 40.15V37.259L164.462 45.786C164.767 46.1213 164.999 46.5173 165.14 46.9481C165.282 47.3789 165.331 47.8348 165.285 48.286C165.231 48.6759 165.1 49.051 164.898 49.3893C164.697 49.7276 164.431 50.0223 164.114 50.256C163.389 50.7806 162.508 51.0468 161.614 51.012C160.594 51.0594 159.58 50.83 158.68 50.348C157.827 49.7882 157.095 49.0641 156.525 48.218L150.749 41.158H150.657V46.891C150.657 49.641 149.296 51.016 146.575 51.016L146.583 51.02Z" fill="white"/>
<path d="M181.247 51.1121C179.036 51.1602 176.837 50.7619 174.783 49.9411C173.088 49.2699 171.618 48.1331 170.541 46.6621C169.539 45.2272 169.017 43.5119 169.05 41.7621C169.038 40.7668 169.186 39.776 169.486 38.8271C169.771 37.9492 170.205 37.1269 170.769 36.3961C171.355 35.6432 172.024 34.9595 172.764 34.3581C173.559 33.7126 174.419 33.1512 175.33 32.6831L177.03 31.8601L175.79 33.4191C174.673 32.447 173.761 31.2614 173.108 29.9321C172.527 28.7489 172.219 27.4502 172.208 26.1321C172.181 24.5756 172.611 23.0455 173.447 21.7321C174.311 20.4176 175.537 19.3818 176.977 18.7501C178.668 18.0137 180.498 17.6534 182.342 17.6941C184.7 17.5618 187.023 18.3146 188.855 19.8051C189.645 20.5107 190.268 21.3826 190.68 22.3581C191.091 23.3335 191.282 24.3882 191.237 25.4461C191.239 26.6289 190.997 27.7994 190.525 28.8841C190.029 30.0147 189.303 31.0304 188.395 31.8671C187.316 32.8402 186.094 33.6434 184.773 34.2491V32.6491L191.605 39.3891H189.905C190.275 38.8041 190.597 38.1905 190.869 37.5541C191.15 36.8934 191.38 36.212 191.556 35.5161C191.74 34.7991 191.91 34.0871 192.056 33.3851C192.213 32.4852 192.627 31.6497 193.247 30.9791C193.89 30.413 194.731 30.1253 195.586 30.1791C196.058 30.1451 196.532 30.2136 196.974 30.3798C197.417 30.546 197.819 30.8061 198.152 31.1421C198.448 31.501 198.653 31.9263 198.75 32.3817C198.846 32.8371 198.83 33.309 198.704 33.7571C198.527 35.0412 198.236 36.3069 197.833 37.5391C197.452 38.7038 196.984 39.8383 196.433 40.9331C195.914 41.9626 195.293 42.9374 194.579 43.8431L194.535 42.0561L198.435 45.7701C198.809 46.0528 199.118 46.4112 199.343 46.8219C199.569 47.2325 199.704 47.6862 199.742 48.1531C199.757 48.5439 199.683 48.9329 199.524 49.2904C199.366 49.6478 199.127 49.9642 198.827 50.2151C198.096 50.8027 197.173 51.0978 196.237 51.0431C195.407 51.0811 194.585 50.8723 193.874 50.4431C193.17 49.9605 192.503 49.4256 191.879 48.8431L190 47.0081H191.787C190.322 48.2604 188.668 49.273 186.887 50.0081C185.1 50.7537 183.182 51.1355 181.246 51.1311L181.247 51.1121ZM181.799 44.8761C182.832 44.8889 183.856 44.6774 184.799 44.2561C185.752 43.8094 186.626 43.2128 187.39 42.4891L187.162 44.3241L178.083 35.6131L181.569 35.7051L180.33 36.3491C179.677 36.6523 179.079 37.063 178.562 37.5641C178.1 38.0208 177.733 38.5646 177.483 39.1641C177.23 39.7982 177.104 40.4763 177.115 41.1591C177.095 41.6758 177.197 42.19 177.412 42.6602C177.627 43.1304 177.95 43.5435 178.354 43.8661C179.348 44.5906 180.564 44.9466 181.792 44.8731L181.799 44.8761ZM182.351 23.0481C181.976 23.0295 181.601 23.0893 181.25 23.2236C180.898 23.3579 180.579 23.5637 180.312 23.8281C180.053 24.1124 179.852 24.4455 179.723 24.8079C179.593 25.1702 179.537 25.5547 179.557 25.9391C179.556 26.3947 179.641 26.8465 179.809 27.2701C180.025 27.7715 180.319 28.2356 180.68 28.6451C181.177 29.2241 181.706 29.7753 182.264 30.2961L180.564 30.2531C181.458 29.8617 182.317 29.3933 183.13 28.8531C183.701 28.4858 184.18 27.9921 184.53 27.4101C184.824 26.8767 184.974 26.276 184.965 25.6671C184.99 25.31 184.94 24.9517 184.817 24.6154C184.695 24.279 184.503 23.9723 184.254 23.7151C183.73 23.2566 183.049 23.0189 182.354 23.0521L182.351 23.0481Z" fill="white"/>
<path d="M209.035 51.0201C208.457 51.0589 207.878 50.9769 207.334 50.7794C206.789 50.582 206.292 50.2733 205.874 49.8731C205.491 49.4444 205.197 48.9444 205.009 48.4018C204.82 47.8592 204.74 47.2846 204.774 46.7111V22.5411C204.733 21.9577 204.812 21.3722 205.005 20.8202C205.198 20.2683 205.502 19.7616 205.898 19.3311C206.33 18.9462 206.834 18.6508 207.381 18.462C207.928 18.2732 208.507 18.1947 209.084 18.2311H220.366C224.002 18.2311 226.814 19.1704 228.801 21.0491C230.721 23.1824 231.783 25.9507 231.783 28.8206C231.783 31.6905 230.721 34.4588 228.801 36.5921C226.815 38.4708 224.003 39.4101 220.366 39.4101H213.214V46.7021C213.283 47.857 212.895 48.9927 212.134 49.8641C211.728 50.2626 211.243 50.5708 210.71 50.7685C210.176 50.9662 209.607 51.0489 209.04 51.0111L209.035 51.0201ZM213.209 32.9551H218.85C220.156 33.0494 221.454 32.6843 222.52 31.9231C223.316 31.0896 223.76 29.9815 223.76 28.8291C223.76 27.6767 223.316 26.5686 222.52 25.7351C221.454 24.9747 220.156 24.61 218.85 24.7041H213.209V32.9551Z" fill="#2CD1EA"/>
<path d="M245.351 51.1119C243.083 51.1654 240.835 50.6775 238.794 49.6889C236.969 48.7784 235.454 47.3502 234.437 45.5829C233.363 43.6603 232.824 41.4846 232.878 39.2829C232.851 37.5993 233.146 35.9261 233.749 34.3539C234.307 32.9384 235.168 31.6625 236.272 30.6159C237.403 29.5581 238.747 28.7527 240.213 28.2529C241.869 27.6998 243.606 27.4294 245.351 27.4529C247.618 27.3997 249.866 27.8879 251.907 28.8769C253.722 29.7806 255.23 31.2008 256.24 32.9589C257.303 34.8949 257.833 37.0788 257.775 39.2869C257.804 40.9611 257.508 42.6251 256.904 44.1869C256.335 45.6149 255.462 46.9019 254.346 47.9589C253.229 49.0158 251.897 49.8174 250.44 50.3079C248.801 50.8583 247.08 51.1287 245.351 51.1079V51.1119ZM245.351 45.0119C246.116 45.0283 246.871 44.8305 247.53 44.4409C248.208 43.9933 248.729 43.3451 249.021 42.5869C249.423 41.5348 249.611 40.4127 249.573 39.2869C249.714 37.7173 249.292 36.1487 248.382 34.8619C248.009 34.4261 247.544 34.0787 247.021 33.845C246.497 33.6113 245.928 33.4972 245.355 33.5109C244.58 33.4988 243.817 33.7069 243.155 34.1109C242.471 34.5571 241.943 35.2056 241.645 35.9659C241.238 37.0258 241.05 38.1573 241.093 39.2919C240.955 40.8462 241.378 42.3986 242.284 43.6689C242.663 44.1062 243.136 44.4536 243.666 44.6857C244.197 44.9178 244.772 45.0289 245.351 45.0109V45.0119Z" fill="#2CD1EA"/>
<path d="M265.615 24.331C264.399 24.4109 263.195 24.0537 262.22 23.324C261.816 22.9636 261.498 22.5161 261.292 22.0154C261.086 21.5146 260.996 20.9736 261.029 20.433C260.996 19.886 261.086 19.3386 261.292 18.8309C261.498 18.3233 261.815 17.8681 262.22 17.499C263.195 16.7692 264.399 16.4121 265.615 16.492C266.815 16.4139 268.003 16.7715 268.96 17.499C269.367 17.8664 269.686 18.3212 269.892 18.8293C270.098 19.3375 270.187 19.8857 270.151 20.433C270.187 20.9739 270.098 21.5158 269.892 22.017C269.685 22.5183 269.366 22.9654 268.96 23.324C268.001 24.0487 266.814 24.406 265.615 24.331ZM265.615 50.931C265.056 50.9723 264.494 50.8934 263.968 50.6998C263.442 50.5061 262.963 50.202 262.564 49.808C261.818 48.8851 261.449 47.7137 261.533 46.53V31.991C261.449 30.8072 261.818 29.6359 262.564 28.713C262.963 28.3191 263.442 28.0151 263.968 27.8215C264.494 27.6278 265.056 27.5488 265.615 27.59C266.166 27.5518 266.719 27.6322 267.237 27.8259C267.754 28.0197 268.224 28.3222 268.615 28.713C269.389 29.6225 269.777 30.7992 269.694 31.991V46.527C269.778 47.7148 269.4 48.8893 268.639 49.805C268.242 50.1947 267.768 50.4962 267.247 50.6898C266.726 50.8833 266.17 50.9645 265.615 50.928V50.931Z" fill="#2CD1EA"/>
<path d="M278.5 51.0201C277.945 51.0614 277.387 50.9867 276.862 50.801C276.337 50.6152 275.856 50.3224 275.45 49.9411C274.717 49.1 274.346 48.0034 274.418 46.8901V31.6671C274.348 30.5541 274.719 29.4582 275.45 28.6161C275.842 28.2419 276.307 27.9531 276.816 27.768C277.325 27.583 277.867 27.5057 278.408 27.5411C278.941 27.5055 279.476 27.5829 279.978 27.7681C280.479 27.9534 280.936 28.2423 281.318 28.6161C282.051 29.4572 282.422 30.5538 282.35 31.6671V33.8211L281.85 31.9431C282.545 30.5477 283.639 29.3898 284.992 28.6161C286.413 27.822 288.019 27.4193 289.646 27.4491C291.199 27.3945 292.738 27.7663 294.095 28.5241C295.292 29.2822 296.209 30.4088 296.71 31.7341C297.347 33.4892 297.643 35.3499 297.582 37.2161V46.8901C297.617 47.4431 297.542 47.9976 297.361 48.5213C297.179 49.0449 296.896 49.5272 296.526 49.9401C295.672 50.6386 294.603 51.0202 293.5 51.0202C292.397 51.0202 291.328 50.6386 290.474 49.9401C290.104 49.5272 289.821 49.0449 289.639 48.5213C289.458 47.9976 289.383 47.4431 289.418 46.8901V37.5351C289.505 36.5134 289.255 35.4913 288.706 34.6251C288.453 34.3217 288.133 34.0821 287.77 33.9257C287.407 33.7693 287.013 33.7006 286.619 33.7251C286.075 33.7001 285.531 33.7918 285.025 33.9939C284.519 34.1961 284.062 34.504 283.685 34.8971C282.922 35.7607 282.527 36.8889 282.585 38.0401V46.8911C282.582 49.6438 281.221 51.0201 278.5 51.0201Z" fill="#2CD1EA"/>
<path d="M314.04 51.112C312.103 51.1779 310.175 50.8092 308.399 50.033C306.955 49.3681 305.777 48.2372 305.053 46.822C304.268 45.1546 303.891 43.3241 303.953 41.482V34.005H302.437C301.595 34.0507 300.766 33.772 300.123 33.226C299.832 32.9416 299.606 32.5979 299.46 32.2183C299.314 31.8386 299.251 31.432 299.276 31.026C299.244 30.6087 299.303 30.1894 299.449 29.7972C299.596 29.405 299.826 29.0494 300.123 28.755C300.772 28.2219 301.598 27.9521 302.437 27.999H303.953V25.109C303.918 24.5559 303.993 24.0012 304.174 23.4774C304.355 22.9536 304.639 22.4711 305.008 22.058C305.862 21.3602 306.932 20.979 308.035 20.979C309.138 20.979 310.207 21.3602 311.061 22.058C311.43 22.4712 311.714 22.9538 311.895 23.4776C312.076 24.0013 312.151 24.5559 312.116 25.109V27.999H315.879C316.711 27.9486 317.531 28.2192 318.169 28.755C318.461 29.0525 318.686 29.4091 318.829 29.8008C318.972 30.1925 319.029 30.6103 318.997 31.026C319.021 31.4303 318.96 31.8352 318.817 32.2142C318.675 32.5933 318.454 32.938 318.169 33.226C317.537 33.7744 316.715 34.0539 315.879 34.005H312.116V41.205C312.04 42.1082 312.32 43.0054 312.896 43.705C313.242 44.0003 313.643 44.2232 314.077 44.3606C314.51 44.498 314.966 44.5471 315.419 44.505C315.851 44.5087 316.281 44.463 316.702 44.369C317.064 44.2821 317.432 44.2206 317.802 44.185C318.027 44.1779 318.25 44.2169 318.459 44.2994C318.668 44.382 318.858 44.5064 319.017 44.665C319.425 45.3136 319.595 46.084 319.497 46.844C319.521 47.6378 319.372 48.4273 319.061 49.158C318.914 49.4708 318.707 49.7513 318.451 49.9832C318.195 50.2151 317.896 50.3939 317.57 50.509C316.999 50.7212 316.406 50.8675 315.802 50.945C315.218 51.0399 314.627 51.0933 314.035 51.105L314.04 51.112Z" fill="#2CD1EA"/>
<path d="M49.4469 29.134H33.9229C33.5756 29.134 33.2939 29.4156 33.2939 29.763V35.54C33.2939 35.8874 33.5756 36.169 33.9229 36.169H49.4469C49.7943 36.169 50.0759 35.8874 50.0759 35.54V29.763C50.0759 29.4156 49.7943 29.134 49.4469 29.134Z" fill="#2CD1EA"/>
<path d="M49.442 52.6809H17.14C16.7926 52.6809 16.511 52.9625 16.511 53.3099V59.0869C16.511 59.4343 16.7926 59.7159 17.14 59.7159H49.442C49.7894 59.7159 50.071 59.4343 50.071 59.0869V53.3099C50.071 52.9625 49.7894 52.6809 49.442 52.6809Z" fill="#2CD1EA"/>
<path d="M49.442 7.04004H17.14C16.7926 7.04004 16.511 7.32165 16.511 7.66904V13.446C16.511 13.7934 16.7926 14.075 17.14 14.075H49.442C49.7894 14.075 50.071 13.7934 50.071 13.446V7.66904C50.071 7.32165 49.7894 7.04004 49.442 7.04004Z" fill="#2CD1EA"/>
<path d="M10.556 21.112C16.3859 21.112 21.112 16.3859 21.112 10.556C21.112 4.72608 16.3859 0 10.556 0C4.72608 0 0 4.72608 0 10.556C0 16.3859 4.72608 21.112 10.556 21.112Z" fill="white"/>
<path d="M24.3609 43.2111C30.1908 43.2111 34.9169 38.485 34.9169 32.6551C34.9169 26.8252 30.1908 22.0991 24.3609 22.0991C18.531 22.0991 13.8049 26.8252 13.8049 32.6551C13.8049 38.485 18.531 43.2111 24.3609 43.2111Z" fill="white"/>
<path d="M10.556 66.758C16.3859 66.758 21.112 62.0319 21.112 56.202C21.112 50.3721 16.3859 45.646 10.556 45.646C4.72608 45.646 0 50.3721 0 56.202C0 62.0319 4.72608 66.758 10.556 66.758Z" fill="white"/>
<path d="M24.36 33.8651C24.0391 33.8651 23.7313 33.7376 23.5044 33.5107C23.2775 33.2838 23.15 32.976 23.15 32.6551V25.9721C23.1591 25.6571 23.2906 25.358 23.5166 25.1384C23.7426 24.9188 24.0454 24.7959 24.3605 24.7959C24.6757 24.7959 24.9784 24.9188 25.2045 25.1384C25.4305 25.358 25.562 25.6571 25.571 25.9721V32.6551C25.5708 32.9761 25.4431 33.2839 25.216 33.5108C24.9889 33.7376 24.681 33.8651 24.36 33.8651Z" fill="#353535"/>
<path d="M31.042 33.8651H24.36C24.039 33.8651 23.7311 33.7376 23.5041 33.5105C23.2771 33.2835 23.1495 32.9756 23.1495 32.6546C23.1495 32.3335 23.2771 32.0256 23.5041 31.7986C23.7311 31.5716 24.039 31.4441 24.36 31.4441H31.042C31.3631 31.4441 31.671 31.5716 31.898 31.7986C32.125 32.0256 32.2525 32.3335 32.2525 32.6546C32.2525 32.9756 32.125 33.2835 31.898 33.5105C31.671 33.7376 31.3631 33.8651 31.042 33.8651Z" fill="#353535"/>
</g>
<defs>
<clipPath id="clip0_243_1272">
<rect width="319.497" height="66.757" fill="white"/>
</clipPath>
</defs>
</svg>
