<svg width="211" height="45" viewBox="0 0 211 45" fill="none" xmlns="http://www.w3.org/2000/svg">
<path d="M32.6554 19.6373H22.4034C22.1738 19.6373 21.9877 19.8273 21.9877 20.0617V23.9558C21.9877 24.1902 22.1738 24.3802 22.4034 24.3802H32.6554C32.885 24.3802 33.071 24.1902 33.071 23.9558V20.0617C33.071 19.8273 32.885 19.6373 32.6554 19.6373Z" fill="#2CD1EA"/>
<path d="M32.6522 35.511H11.32C11.0904 35.511 10.9043 35.701 10.9043 35.9354V39.8295C10.9043 40.0639 11.0904 40.2539 11.32 40.2539H32.6522C32.8818 40.2539 33.0678 40.0639 33.0678 39.8295V35.9354C33.0678 35.701 32.8818 35.511 32.6522 35.511Z" fill="#2CD1EA"/>
<path d="M32.6522 4.74286H11.32C11.0904 4.74286 10.9043 4.93286 10.9043 5.16722V9.06136C10.9043 9.29572 11.0904 9.48572 11.32 9.48572H32.6522C32.8818 9.48572 33.0678 9.29572 33.0678 9.06136V5.16722C33.0678 4.93286 32.8818 4.74286 32.6522 4.74286Z" fill="#2CD1EA"/>
<path d="M6.9711 14.2319C10.8211 14.2319 13.9422 11.0459 13.9422 7.11593C13.9422 3.18592 10.8211 0 6.9711 0C3.12108 0 0 3.18592 0 7.11593C0 11.0459 3.12108 14.2319 6.9711 14.2319Z" fill="#6B6B6B"/>
<path d="M16.0879 29.1263C19.9379 29.1263 23.0589 25.9404 23.0589 22.0104C23.0589 18.0804 19.9379 14.8945 16.0879 14.8945C12.2379 14.8945 9.11678 18.0804 9.11678 22.0104C9.11678 25.9404 12.2379 29.1263 16.0879 29.1263Z" fill="#6B6B6B"/>
<path d="M6.9711 45C10.8211 45 13.9422 41.8141 13.9422 37.8841C13.9422 33.9541 10.8211 30.7682 6.9711 30.7682C3.12108 30.7682 0 33.9541 0 37.8841C0 41.8141 3.12108 45 6.9711 45Z" fill="#6B6B6B"/>
<path fill-rule="evenodd" clip-rule="evenodd" d="M16.0879 16.6897C16.5294 16.6897 16.8873 17.0551 16.8873 17.5058V22.0104C16.8873 22.4611 16.5294 22.8264 16.0879 22.8264C15.6463 22.8264 15.2884 22.4611 15.2884 22.0104V17.5058C15.2884 17.0551 15.6463 16.6897 16.0879 16.6897Z" fill="white"/>
<path fill-rule="evenodd" clip-rule="evenodd" d="M15.2884 22.0104C15.2884 21.5597 15.6464 21.1943 16.0879 21.1943H20.5007C20.9423 21.1943 21.3002 21.5597 21.3002 22.0104C21.3002 22.4611 20.9423 22.8264 20.5007 22.8264H16.0879C15.6464 22.8264 15.2884 22.4611 15.2884 22.0104Z" fill="white"/>
<path d="M52.9866 34.3914C52.0785 34.3914 51.3813 34.1335 50.8985 33.6178C50.4156 33.1021 50.1726 32.3937 50.1726 31.4863V16.9281H45.4176C44.6693 16.9281 44.1001 16.7224 43.7068 16.3111C43.3134 15.8998 43.1152 15.3221 43.1152 14.5811C43.1152 13.8401 43.3134 13.2722 43.7068 12.8805C44.1001 12.4888 44.6693 12.2929 45.4176 12.2929H60.4981C61.2656 12.2929 61.8412 12.4888 62.2249 12.8805C62.6087 13.2722 62.8006 13.8401 62.8006 14.5811C62.8006 15.3221 62.6087 15.9259 62.2249 16.3274C61.8412 16.7289 61.2656 16.9313 60.4981 16.9313H55.7431V31.4896C55.7431 32.397 55.5097 33.1086 55.046 33.621C54.5823 34.1368 53.8948 34.3946 52.9866 34.3946V34.3914Z" fill="#6B6B6B"/>
<path d="M67.0663 34.4534C65.9151 34.4534 64.895 34.2314 64.0092 33.7875C63.1203 33.3436 62.4295 32.7462 61.9339 31.9955C61.4382 31.2447 61.1921 30.383 61.1921 29.4135C61.1921 28.3005 61.4734 27.4256 62.0394 26.7859C62.6054 26.1461 63.5168 25.6891 64.7799 25.4117C66.0398 25.1342 67.7122 24.9938 69.7908 24.9938H71.4568V27.5595H69.7908C69.0041 27.5595 68.3582 27.6215 67.8529 27.7455C67.3477 27.8696 66.9735 28.0459 66.7337 28.2711C66.4907 28.4996 66.3692 28.8064 66.3692 29.1981C66.3692 29.6714 66.5291 30.0631 66.8521 30.3732C67.175 30.6833 67.6579 30.8367 68.3071 30.8367C68.7899 30.8367 69.2312 30.7225 69.6245 30.4972C70.0178 30.272 70.3376 29.9554 70.5774 29.5539C70.8204 29.1524 70.942 28.6824 70.942 28.147V24.5597C70.942 23.7992 70.7565 23.2671 70.3824 22.9668C70.0083 22.6698 69.3782 22.5196 68.4893 22.5196C67.984 22.5196 67.434 22.5751 66.8393 22.6893C66.2445 22.8036 65.5634 23.0027 64.7959 23.2932C64.2523 23.4989 63.7822 23.5315 63.3889 23.3846C62.9956 23.241 62.7014 22.9994 62.5095 22.6567C62.3176 22.3172 62.2217 21.9418 62.2217 21.5273C62.2217 21.1127 62.3464 20.7145 62.5991 20.3228C62.8517 19.9311 63.2386 19.6439 63.7662 19.4578C64.7351 19.1085 65.6337 18.8605 66.462 18.7168C67.2902 18.5732 68.0352 18.5014 68.7036 18.5014C70.36 18.5014 71.7254 18.7495 72.8062 19.2424C73.8871 19.7352 74.6929 20.4827 75.2301 21.4848C75.7642 22.4837 76.0328 23.7665 76.0328 25.3333V31.6071C76.0328 32.4949 75.8153 33.1804 75.3804 33.6635C74.9455 34.1466 74.3348 34.3914 73.5481 34.3914C72.7199 34.3914 72.09 34.1498 71.6551 33.6635C71.2202 33.1804 71.0027 32.4949 71.0027 31.6071V30.7714L71.185 31.2056C71.0827 31.8454 70.8524 32.4068 70.4879 32.8899C70.1233 33.373 69.6501 33.7549 69.0649 34.0323C68.4797 34.3098 67.8114 34.4502 67.0663 34.4502V34.4534Z" fill="#6B6B6B"/>
<path d="M85.0536 34.4534C84.1454 34.4534 83.2309 34.3816 82.3131 34.238C81.3953 34.0943 80.5512 33.8561 79.7837 33.5264C79.2977 33.3208 78.9523 33.0368 78.738 32.6777C78.527 32.3187 78.4247 31.94 78.4343 31.5483C78.4439 31.1566 78.5558 30.8008 78.7668 30.4809C78.9779 30.161 79.2625 29.9358 79.6142 29.802C79.966 29.6681 80.3657 29.6845 80.8102 29.8477C81.6576 30.1773 82.4187 30.4026 83.0966 30.5266C83.7713 30.6506 84.4236 30.7127 85.0504 30.7127C85.7955 30.7127 86.3327 30.605 86.6557 30.3895C86.9786 30.1741 87.1385 29.8901 87.1385 29.5408C87.1385 29.2307 87.033 28.9957 86.8219 28.8292C86.6109 28.666 86.3135 28.5518 85.9298 28.4898L82.5689 27.9642C81.3154 27.739 80.3466 27.2624 79.6622 26.5411C78.9747 25.8197 78.6325 24.8731 78.6325 23.698C78.6325 22.6469 78.9299 21.7362 79.5247 20.9626C80.1195 20.189 80.9381 19.5884 81.9774 19.1542C83.0167 18.7201 84.2126 18.5046 85.5653 18.5046C86.4734 18.5046 87.3016 18.5765 88.0499 18.7201C88.795 18.8637 89.5336 19.102 90.2595 19.4317C90.6848 19.6373 90.9854 19.9148 91.1677 20.2673C91.35 20.6166 91.4203 20.9822 91.3787 21.3641C91.3372 21.746 91.2061 22.0952 90.9854 22.4151C90.7616 22.735 90.4706 22.957 90.106 23.081C89.7415 23.2051 89.3386 23.1724 88.8941 22.9896C88.229 22.722 87.6309 22.5261 87.1065 22.4021C86.5821 22.278 86.0961 22.216 85.6548 22.216C84.8074 22.216 84.2158 22.3303 83.8832 22.5555C83.5507 22.784 83.3844 23.081 83.3844 23.4532C83.3844 23.7012 83.4803 23.9167 83.6721 24.1027C83.864 24.2888 84.1422 24.4128 84.5036 24.4748L87.8644 25.033C89.1755 25.2615 90.1763 25.712 90.8639 26.3942C91.5514 27.0731 91.8936 28.0001 91.8936 29.1752C91.8936 30.8432 91.2668 32.1424 90.0165 33.0694C88.763 33.9964 87.1097 34.46 85.0504 34.46L85.0536 34.4534Z" fill="#6B6B6B"/>
<path d="M96.8053 34.3914C95.9163 34.3914 95.2448 34.1498 94.7907 33.6635C94.3366 33.1804 94.1096 32.4949 94.1096 31.6071V14.7606C94.1096 13.876 94.3366 13.1906 94.7907 12.7042C95.2448 12.2211 95.9163 11.9763 96.8053 11.9763C97.6943 11.9763 98.3146 12.2178 98.7879 12.7042C99.2612 13.1873 99.501 13.8728 99.501 14.7606V24.9612H99.5618L103.255 20.4174C103.76 19.8005 104.23 19.337 104.662 19.0269C105.097 18.7168 105.685 18.5634 106.434 18.5634C107.182 18.5634 107.754 18.7527 108.161 19.1346C108.563 19.5165 108.774 19.9833 108.797 20.5415C108.816 21.0964 108.605 21.6644 108.161 22.2421L104.163 27.0633V25.1146L108.615 30.8628C109.059 31.4406 109.241 32.002 109.158 32.5471C109.078 33.0923 108.819 33.5362 108.384 33.8757C107.949 34.2151 107.399 34.3849 106.734 34.3849C105.925 34.3849 105.283 34.2347 104.796 33.9377C104.314 33.6374 103.837 33.1608 103.373 32.5014L99.5586 27.7423H99.4978V31.6071C99.4978 33.4611 98.5992 34.3881 96.8021 34.3881L96.8053 34.3914Z" fill="#6B6B6B"/>
<path d="M119.698 34.4534C118.064 34.4534 116.641 34.189 115.429 33.6635C114.217 33.1379 113.283 32.4003 112.628 31.4537C111.972 30.507 111.643 29.4037 111.643 28.147C111.643 27.4257 111.739 26.7663 111.931 26.1689C112.123 25.5716 112.404 25.0265 112.778 24.5303C113.152 24.0374 113.59 23.5772 114.096 23.1561C114.601 22.735 115.167 22.3564 115.79 22.0267L116.91 21.4718L116.091 22.5228C115.304 21.8014 114.713 21.0181 114.319 20.1726C113.926 19.3272 113.728 18.472 113.728 17.607C113.728 16.4939 114 15.5049 114.546 14.6399C115.093 13.7749 115.867 13.1057 116.878 12.6291C117.888 12.1558 119.068 11.9175 120.421 11.9175C122.237 11.9175 123.67 12.3908 124.722 13.3407C125.771 14.2873 126.295 15.5571 126.295 17.1435C126.295 17.9465 126.138 18.7201 125.825 19.461C125.511 20.202 125.041 20.8744 124.418 21.4718C123.791 22.0691 122.995 22.6045 122.026 23.0778V21.9973L126.538 26.5411H125.419C125.662 26.1493 125.873 25.7381 126.055 25.3039C126.237 24.8698 126.388 24.4128 126.509 23.9297C126.631 23.4466 126.743 22.9668 126.842 22.4935C127.002 21.7721 127.267 21.2302 127.628 20.8712C127.993 20.5121 128.508 20.3293 129.173 20.3293C129.918 20.3293 130.484 20.5447 130.868 20.9789C131.251 21.413 131.373 22.0006 131.232 22.7415C131.111 23.6261 130.919 24.4781 130.657 25.2909C130.394 26.1069 130.084 26.8675 129.732 27.5791C129.378 28.2907 128.971 28.9435 128.508 29.5408L128.479 28.3363L131.053 30.84C131.619 31.3557 131.907 31.891 131.917 32.4459C131.926 33.0041 131.725 33.4676 131.312 33.8365C130.9 34.2086 130.327 34.3946 129.601 34.3946C128.955 34.3946 128.434 34.2608 128.041 33.9932C127.648 33.7255 127.209 33.3665 126.723 32.9127L125.483 31.6756H126.663C125.694 32.521 124.613 33.1967 123.423 33.6994C122.231 34.2054 120.99 34.4567 119.698 34.4567V34.4534ZM120.063 30.2492C120.788 30.2492 121.45 30.1088 122.045 29.8313C122.64 29.5539 123.212 29.1557 123.756 28.6399L123.606 29.877L117.61 24.0048L119.912 24.0668L119.094 24.5009C118.63 24.7294 118.24 25.0004 117.926 25.3203C117.613 25.6401 117.376 25.9992 117.213 26.4007C117.05 26.8022 116.97 27.2494 116.97 27.7455C116.97 28.5093 117.242 29.1165 117.789 29.5702C118.336 30.0239 119.09 30.2492 120.059 30.2492H120.063ZM120.427 15.5343C119.861 15.5343 119.413 15.7105 119.081 16.0598C118.748 16.409 118.582 16.8856 118.582 17.483C118.582 17.7931 118.636 18.0901 118.748 18.3806C118.86 18.6679 119.052 18.9779 119.324 19.3076C119.596 19.6373 119.944 20.0094 120.369 20.4207L119.25 20.3913C119.957 20.0617 120.523 19.7483 120.945 19.448C121.37 19.151 121.677 18.8245 121.869 18.4753C122.061 18.126 122.157 17.7343 122.157 17.3001C122.157 16.7224 122 16.285 121.687 15.9847C121.374 15.6877 120.955 15.5375 120.43 15.5375L120.427 15.5343Z" fill="#6B6B6B"/>
<path d="M138.05 34.3914C137.142 34.3914 136.445 34.1336 135.962 33.6178C135.476 33.1021 135.236 32.3937 135.236 31.4863V15.1948C135.236 14.2482 135.482 13.5268 135.978 13.0306C136.473 12.5377 137.174 12.2896 138.082 12.2896H145.533C147.934 12.2896 149.792 12.9229 151.103 14.1894C152.414 15.4559 153.073 17.2022 153.073 19.4284C153.073 21.6546 152.417 23.4009 151.103 24.6674C149.792 25.9339 147.934 26.5672 145.533 26.5672H140.81V31.483C140.81 32.3905 140.573 33.1021 140.096 33.6145C139.623 34.1303 138.942 34.3882 138.053 34.3882L138.05 34.3914ZM140.806 22.2127H144.532C145.603 22.2127 146.409 21.981 146.956 21.5175C147.499 21.054 147.774 20.3587 147.774 19.4317C147.774 18.5046 147.502 17.8094 146.956 17.3458C146.409 16.8823 145.603 16.6506 144.532 16.6506H140.806V22.216V22.2127Z" fill="#2CD1EA"/>
<path d="M162.033 34.4534C160.376 34.4534 158.934 34.1335 157.703 33.4938C156.472 32.854 155.513 31.9335 154.825 30.7257C154.138 29.5212 153.796 28.1046 153.796 26.4758C153.796 25.2387 153.987 24.1321 154.371 23.1528C154.755 22.1736 155.311 21.3347 156.037 20.6329C156.763 19.9311 157.633 19.4023 158.64 19.04C159.651 18.6809 160.779 18.4981 162.033 18.4981C163.689 18.4981 165.132 18.818 166.363 19.4578C167.594 20.0976 168.547 21.0148 169.225 22.2095C169.899 23.4042 170.238 24.8274 170.238 26.4758C170.238 27.7129 170.046 28.8162 169.663 29.7824C169.279 30.7519 168.723 31.5907 167.997 32.3023C167.271 33.0139 166.401 33.5492 165.394 33.9083C164.383 34.2673 163.264 34.4502 162.033 34.4502V34.4534ZM162.033 30.3406C162.577 30.3406 163.056 30.2132 163.472 29.9554C163.884 29.6975 164.214 29.2797 164.457 28.7052C164.7 28.1274 164.821 27.3865 164.821 26.479C164.821 25.0983 164.559 24.1027 164.035 23.4956C163.51 22.8885 162.842 22.5849 162.036 22.5849C161.489 22.5849 161.006 22.7187 160.581 22.9864C160.156 23.254 159.823 23.6718 159.583 24.2365C159.34 24.8045 159.219 25.5487 159.219 26.479C159.219 27.8402 159.481 28.8227 160.006 29.4298C160.53 30.037 161.205 30.3406 162.033 30.3406Z" fill="#2CD1EA"/>
<path d="M175.415 16.4025C174.447 16.4025 173.698 16.1773 173.174 15.7236C172.649 15.2698 172.387 14.6203 172.387 13.7749C172.387 12.9294 172.649 12.2505 173.174 11.7967C173.698 11.343 174.447 11.1178 175.415 11.1178C176.384 11.1178 177.101 11.3463 177.625 11.7967C178.15 12.2505 178.412 12.9098 178.412 13.7749C178.412 14.6399 178.15 15.2698 177.625 15.7236C177.101 16.1773 176.362 16.4025 175.415 16.4025ZM175.415 34.3326C174.527 34.3326 173.855 34.0813 173.401 33.5754C172.947 33.0694 172.72 32.335 172.72 31.3655V21.5664C172.72 20.597 172.947 19.8625 173.401 19.3566C173.855 18.8506 174.527 18.5993 175.415 18.5993C176.304 18.5993 176.925 18.8506 177.398 19.3566C177.871 19.8625 178.111 20.597 178.111 21.5664V31.3655C178.111 32.335 177.878 33.0727 177.414 33.5754C176.95 34.0813 176.282 34.3326 175.415 34.3326Z" fill="#2CD1EA"/>
<path d="M183.925 34.3914C183.036 34.3914 182.364 34.1498 181.91 33.6635C181.456 33.1804 181.229 32.4949 181.229 31.6071V21.3445C181.229 20.4599 181.456 19.7744 181.91 19.2881C182.364 18.805 183.016 18.5634 183.864 18.5634C184.711 18.5634 185.332 18.805 185.786 19.2881C186.24 19.7712 186.467 20.4566 186.467 21.3445V22.7971L186.134 21.5305C186.62 20.5611 187.311 19.8136 188.21 19.2881C189.108 18.7625 190.131 18.5014 191.283 18.5014C192.434 18.5014 193.454 18.7429 194.221 19.226C194.989 19.7091 195.564 20.4305 195.948 21.3902C196.332 22.3498 196.524 23.5805 196.524 25.0852V31.6071C196.524 32.4949 196.29 33.1804 195.827 33.6635C195.363 34.1466 194.695 34.3914 193.828 34.3914C192.962 34.3914 192.293 34.1498 191.83 33.6635C191.366 33.1804 191.132 32.4949 191.132 31.6071V25.3007C191.132 24.3932 190.976 23.7404 190.662 23.3389C190.349 22.9374 189.888 22.735 189.284 22.735C188.475 22.735 187.832 22.9962 187.346 23.525C186.863 24.0505 186.62 24.7555 186.62 25.6434V31.6103C186.62 33.4644 185.722 34.3914 183.925 34.3914Z" fill="#2CD1EA"/>
<path d="M207.396 34.4534C205.903 34.4534 204.659 34.2119 203.671 33.7255C202.683 33.2424 201.944 32.521 201.461 31.5614C200.978 30.6017 200.735 29.4037 200.735 27.961V22.9211H199.734C199.088 22.9211 198.58 22.7448 198.206 22.3956C197.832 22.0463 197.646 21.5501 197.646 20.9103C197.646 20.2314 197.832 19.7189 198.206 19.3794C198.58 19.0399 199.088 18.8702 199.734 18.8702H200.735V16.9215C200.735 16.0369 200.965 15.3514 201.432 14.8651C201.896 14.382 202.564 14.1372 203.431 14.1372C204.297 14.1372 204.966 14.3787 205.429 14.8651C205.893 15.3482 206.127 16.0337 206.127 16.9215V18.8702H208.611C209.257 18.8702 209.762 19.0399 210.124 19.3794C210.488 19.7189 210.671 20.2281 210.671 20.9103C210.671 21.5501 210.488 22.043 210.124 22.3956C209.759 22.7448 209.257 22.9211 208.611 22.9211H206.127V27.7749C206.127 28.5387 206.299 29.1001 206.641 29.4592C206.984 29.8183 207.54 30.0011 208.307 30.0011C208.611 30.0011 208.893 29.9717 209.155 29.9097C209.417 29.8476 209.66 29.8052 209.881 29.7856C210.204 29.7856 210.472 29.8934 210.683 30.1088C210.894 30.3243 211 30.8139 211 31.5777C211 32.1946 210.904 32.7169 210.712 33.1379C210.52 33.559 210.191 33.8659 209.727 34.0487C209.424 34.1727 209.037 34.2706 208.56 34.3424C208.087 34.4143 207.697 34.4501 207.393 34.4501L207.396 34.4534Z" fill="#2CD1EA"/>
</svg>
